<?xml version="1.0" encoding="utf-8"?>
<!-- Generator: Adobe Illustrator 27.9.2, SVG Export Plug-In . SVG Version: 6.00 Build 0)  -->
<svg version="1.1" id="Layer_1" xmlns="http://www.w3.org/2000/svg" xmlns:xlink="http://www.w3.org/1999/xlink" x="0px" y="0px"
	 viewBox="0 0 443.5 443.5" style="enable-background:new 0 0 443.5 443.5;" xml:space="preserve">
<style type="text/css">
	.st0{fill:#DD3305;}
</style>
<g>
	<path class="st0" d="M234.99,196.53c0,1.02,0,2.03,0,3.19c1.36,0.37,2.7,0.73,4.22,1.15c0.78-1.25,1.42-2.5,2.28-3.59
		c0.38-0.48,1.19-0.61,1.8-0.89c0.09,0.72,0.42,1.52,0.23,2.15c-0.29,0.97-0.94,1.83-1.43,2.73c3.26,2.5,3.66,2.45,6.2-0.12
		c0.54-0.55,1.51-0.67,2.28-0.98c-0.09,0.82-0.04,1.7-0.33,2.45c-0.25,0.67-0.87,1.2-1.47,1.98c2.02,1.39,3.63,3.79,6.37,1.11
		c0.29-0.28,1.15,0.03,1.75,0.07c-0.07,0.59,0,1.26-0.26,1.75c-0.25,0.45-0.85,0.71-1.26,1.02c2.95,4.12,3.59,4.28,7.47,2
		c3.57-2.1,7.11-4.25,10.74-6.24c0.65-0.35,1.64-0.07,2.48-0.08c-0.4,0.73-0.62,1.73-1.23,2.14c-2.1,1.42-4.34,2.63-6.53,3.93
		c-2.17,1.3-4.33,2.61-6.47,3.91c0.11,0.32,0.12,0.54,0.23,0.66c3.73,4.07,3.71,3.99,8.96,2.19c1.42-0.49,3.06-0.32,4.6-0.45
		c0.01,2.5-2.3,2-3.62,2.72c-1.14,0.62-2.42,0.98-3.89,1.55c0.52,0.72,0.9,1.31,1.33,1.85c1.77,2.2,3.52,4.42,5.34,6.58
		c2.49,2.96,5.46,5.14,9.41,5.79c0.59,0.1,1.08,0.78,1.61,1.19c-0.49,0.47-0.89,1.19-1.47,1.38c-4.27,1.4-8.59,2.63-12.84,4.06
		c-1.12,0.37-2.66,0.73-2.11,2.69c0.07,0.24-1.13,1.25-1.5,1.13c-3.74-1.18-5.83,1.94-8.79,3.56c2.49,0.91,5.02,1.72,7.45,2.78
		c0.77,0.33,1.25,1.3,1.87,1.98c-0.89,0.13-1.88,0.55-2.66,0.32c-2.52-0.75-5.04-1.58-7.43-2.68c-2.66-1.22-4.86-0.6-7.04,0.99
		c0.13,0.22,0.23,0.37,0.31,0.52c0.4,0.8,0.8,1.61,1.2,2.41c-0.94-0.1-1.88-0.15-2.81-0.32c-1.68-0.31-3.36-0.69-5.05-1.04
		c-0.13,1.73-0.2,2.64-0.27,3.54c-0.88-0.33-1.74-0.71-2.63-0.97c-0.77-0.23-1.58-0.31-2.38-0.46c-0.09,0.21-0.19,0.43-0.28,0.64
		c2.31,2.56,4.67,5.08,6.87,7.73c0.52,0.63,0.51,1.71,0.74,2.59c-0.85-0.3-1.94-0.36-2.51-0.94c-2.32-2.34-4.36-4.95-6.74-7.21
		c-0.85-0.81-2.38-1.35-3.57-1.29c-3.46,0.17-6.9,0.83-10.37,1.06c-1.75,0.12-2.27,0.78-2.23,2.42c0.08,2.92,0.1,5.84-0.04,8.75
		c-0.04,0.74-0.76,1.45-1.16,2.18c-0.43-0.71-1.2-1.41-1.24-2.14c-0.15-2.72-0.05-5.46-0.08-8.18c-0.01-0.89-0.11-1.77-0.8-2.81
		c-0.25,0.47-0.64,0.92-0.73,1.43c-0.93,4.8-1.75,9.62-2.77,14.4c-0.16,0.76-1.12,1.35-1.7,2.02c-0.25-0.82-0.81-1.68-0.69-2.44
		c0.71-4.55,1.59-9.07,2.39-13.61c0.11-0.6,0.09-1.22,0.14-1.83c-0.28-0.1-0.55-0.2-0.83-0.31c-0.57,1.34-1.02,2.75-1.74,4
		c-0.4,0.69-1.25,1.11-1.9,1.65c-0.16-0.81-0.55-1.64-0.43-2.41c0.16-1.08,0.68-2.11,1.05-3.15c-0.2-0.22-0.4-0.44-0.61-0.66
		c-0.74,0.61-1.72,1.08-2.19,1.85c-2.67,4.43-5.22,8.94-7.81,13.41c-0.28,0.49-0.48,1.08-0.89,1.43c-0.57,0.48-1.3,0.76-1.96,1.13
		c-0.04-0.82-0.41-1.82-0.07-2.44c2.39-4.37,4.93-8.66,7.42-12.99c0.46-0.8,0.88-1.62,1.41-2.61c-0.98-0.3-1.77-0.53-1.94-0.59
		c-3.2,3.8-6.15,7.35-9.19,10.83c-0.28,0.32-1.14,0.12-1.73,0.17c0.1-0.74-0.07-1.69,0.33-2.19c2.46-3.09,5.04-6.07,7.59-9.09
		c-1.67-1.56-2.95-0.7-4.31,0.46c-3.29,2.82-6.6,5.6-10,8.28c-0.56,0.44-1.59,0.3-2.4,0.43c0.28-0.78,0.33-1.82,0.88-2.3
		c3.24-2.86,6.6-5.58,10.11-8.51c-1.92-1.38-3.49-1.65-5.43-0.29c-2.07,1.46-4.33,2.66-6.6,3.79c-0.53,0.27-1.43-0.19-2.15-0.31
		c0.31-0.6,0.47-1.44,0.96-1.77c2.11-1.39,4.31-2.62,6.77-4.08c-4.46-2.49-8.56-4.92-12.81-7.04c-1-0.5-2.53,0.17-3.81,0.11
		c-1.01-0.04-2.01-0.37-3.01-0.58c0.58-0.78,1.17-1.56,1.81-2.42c-5.66-3.51-12.07-4.97-18.86-5.06c-1.98-0.03-3.97,0.1-5.92-0.1
		c-0.74-0.07-1.41-0.85-2.12-1.31c0.74-0.43,1.45-1.18,2.21-1.22c2.63-0.15,5.27-0.1,7.9-0.04c4.43,0.1,8.11-1.53,10.97-4.84
		c2.52-2.91,4.88-5.95,7.55-9.22c-1.01-0.46-1.89-0.73-2.61-1.23c-0.46-0.32-0.69-0.98-1.03-1.49c0.62-0.27,1.5-0.94,1.82-0.74
		c3.51,2.23,5.41-0.19,7.57-2.33c2.06-2.03,4.34-3.85,6.7-5.91c-2.22-1.95-4.38-3.74-6.4-5.67c-0.56-0.54-0.7-1.51-1.03-2.29
		c0.89,0.14,1.95,0.01,2.62,0.46c1.4,0.93,2.59,2.17,3.86,3.29c3.42,2.99,3.42,2.99,7.33-0.03c-0.91-1.16-1.92-2.26-2.68-3.51
		c-0.28-0.46,0.05-1.29,0.11-1.95c0.58,0.13,1.21,0.17,1.73,0.43c0.39,0.19,0.64,0.67,0.95,1.03c2.8,3.24,2.69,2.96,6.51,1.32
		c3.27-1.41,6.79-2.36,10.3-3c3.43-0.63,3.72-0.66,3.12-4.01c-0.68-3.79-1.39-7.58-1.93-11.4c-0.1-0.73,0.53-1.56,0.82-2.35
		c0.54,0.63,1.42,1.19,1.57,1.9c0.83,3.95,1.49,7.95,2.21,11.92c0.57,3.16,0.7,3.23,4.4,2.29c0-1.4-0.16-2.9,0.05-4.36
		c0.17-1.24,0.76-2.43,1.16-3.64c0.44,1.16,1.09,2.29,1.27,3.49c0.22,1.46,0.05,2.98,0.05,4.39c3.91,1.3,4.29,1.08,4.97-2.68
		c0.83-4.63,1.57-9.27,2.51-13.87c0.16-0.79,1.09-1.43,1.66-2.14c0.26,0.89,0.86,1.83,0.74,2.66c-0.68,4.55-1.55,9.08-2.32,13.62
		c-0.17,1-0.24,2.02-0.37,3.16c1.74,0.74,3.19,1.57,4.18-0.89c0.2-0.5,1.4-0.59,2.13-0.87L234.99,196.53z M191.65,210.92
		c-1.39,0.84-2.79,1.67-4.18,2.51c-0.64,0.38-1.38,0.65-1.91,1.15c-6.26,5.88-12.49,11.79-18.73,17.7c0.17,0.21,0.35,0.41,0.52,0.62
		c1.37-0.97,2.74-1.94,4.12-2.91c0.14,0.17,0.28,0.34,0.42,0.5c-0.62,0.76-1.24,1.51-1.86,2.27c0.19,0.17,0.38,0.35,0.56,0.52
		c3.92-3.75,7.98-7.36,11.74-11.27c8.88-9.22,19.23-15.22,32.32-15.83c10.63-0.49,21.08-0.12,30.72,5.16
		c0.33,0.18,0.91,0.55,0.97,0.47c1.92-2.16,3.3,0.09,4.23,0.89c4.6,3.98,9.36,7.92,13.24,12.56c1.85,2.21,3.17,4.96,5.68,6.57
		c1.82,1.16,4.32,1.46,5.81,2.89c1.79,1.71,3.56,1.84,5.79,1.51c-6.6-1.61-10.02-7.04-14.31-11.43c-1.38-1.41-2.78-2.81-4.22-4.16
		c-18.24-17.14-39.4-21.12-62.96-13.73C196.8,207.78,194.29,209.56,191.65,210.92z M203.84,243.91c0.9,0.75,1.8,1.51,2.92,2.45
		c-0.88,0.27-1.21,0.37-1.63,0.5c6.44,4.07,12.93,5.58,20.29,4.21c6.92-1.29,12.93-4.34,16.86-10.54c0.37-0.56,0.74-1.12,1.12-1.68
		c3.86-5.56,4.99-11.55,2.81-18.05l0.04,0.05c-0.33-1.24-0.65-2.48-1.19-4.48c-0.22,1.42-0.31,2-0.51,3.25
		c-1.52-2.44-2.72-4.35-3.61-5.78c-1.17,0.26-1.74,0.38-2.29,0.5c2.75,6.06,3.57,10.85,2.28,13.38c-1.77-11.06-4-15.02-8.78-16.18
		c1.01,1.3,2.21,2.83,3.41,4.37c-0.23,0.23-0.46,0.46-0.68,0.69c-2.62-2.43-4.96-5.33-8.48-6.32c-0.21,0.26-0.42,0.51-0.62,0.77
		c0.6,0.21,1.2,0.42,2.17,0.76c-5.69,2.05-7.53,4.33-6.99,7.97c0.43,2.93,3.06,5.55,6.03,5.25c1.79-0.18,3.92-1.09,5.07-2.4
		c1.2-1.36,1.4-3.59,2.18-5.82c0.79,1.6,1.49,3,2.18,4.4c0.26,0.58,0.51,1.16,0.77,1.75c0.04,0.66,0.1,1.31,0.12,1.97
		c0.29,8.04-4.15,14.4-11.6,16.62c-7.61,2.27-15.65-0.61-19.67-7.2c-3.41-5.6-2.94-11.23-0.15-17.21c-1.65,1.45-3.29,2.9-4.9,4.31
		c0.21-2.39,0.91-4.93,3.22-6.5c1.96-1.33,4.18-2.29,6.35-3.28c1.04-0.47,2.24-0.61,3.37-0.9c-3.43-0.84-5.71,1.92-9.14,3.24
		c0.81-1.19,1.24-1.82,1.76-2.58c-2.87,0-3.66,2.24-4.88,3.92c-0.76,1.05-1.7,3.16-2.14,3.05c-2.25-0.55-1.86,1.25-2.21,2.17
		c-2.15,5.72-1.32,11.22,1.41,16.54C200.43,239.39,202.13,241.65,203.84,243.91z M169.49,237.27c14.93,5.81,28.83,15.86,46.1,16.04
		c-14.48-2.7-27.71-15.65-22.93-35.7c-0.26-0.03-0.52-0.06-0.77-0.09c-0.42,4.2-0.84,8.39-1.27,12.59c-0.24,0-0.47,0-0.71,0
		c-0.2-3.31-0.39-6.61-0.6-10.2c-1.71,1.19-3.68,2.16-5.04,3.67c-0.72,0.8-0.36,2.57-0.49,3.94c-2.4-2.05-2.35-2.02-3.79,1.09
		c-0.42,0.91-1.09,1.82-1.89,2.43C175.23,233.23,172.26,235.28,169.49,237.27z M225.51,253.36c9.5-0.78,18.53-3.15,27.09-7.24
		c6.38-3.05,12.73-6.16,18.98-9.18c-0.64-0.31-1.79-0.62-2.61-1.31c-1.96-1.69-3.83-3.5-5.61-5.38c-0.84-0.88-1.19-2.26-2.08-3.04
		c-1.59-1.38-3.42-2.48-4.98-3.58c-0.23,0.77-0.51,1.71-0.8,2.66c-0.24-0.05-0.49-0.1-0.73-0.15c0-1.24,0-2.48,0-3.72
		c-0.09,0-0.18,0-0.27,0c-0.29,1.35-0.58,2.7-0.87,4.05c-0.14-0.03-0.28-0.06-0.42-0.09c-0.45-2.37-0.89-4.75-1.34-7.12
		c-0.31,0.05-0.63,0.11-0.94,0.16c0.83,3.6,0.61,7.06-1.05,11.03c-0.28-1.19-0.4-1.68-0.59-2.5
		C248.57,240.48,239.01,250.49,225.51,253.36z M174.25,241.04c32.67,23.29,65.45,18.14,93.67-0.36c-4.29,1.86-8.54,3.81-12.76,5.82
		c-9.94,4.74-20.34,7.75-31.38,8.29c-13.66,0.67-26.43-2.72-38.64-8.61C181.53,244.44,177.89,242.76,174.25,241.04z M232.49,231.72
		c-0.02-0.4-0.04-0.81-0.06-1.21c-1.06-0.6-2.24-1.81-3.13-1.62c-1,0.21-1.74,1.68-2.59,2.6c0.95,0.85,1.86,2.29,2.87,2.36
		C230.49,233.92,231.51,232.49,232.49,231.72z M194.63,220.92c-1.46,4.17-1.08,9.01,0.58,13.25
		C195.02,229.87,194.81,225.03,194.63,220.92z M256.17,218.89c0.07-0.1,0.14-0.19,0.21-0.29c2.34,2.55,4.68,5.09,7.01,7.64
		c-0.01,0.01-0.03,0.02-0.04,0.03C260.95,223.81,258.56,221.35,256.17,218.89z M221.53,236.49c-0.99-0.58-1.64-1.25-2.11-1.15
		c-0.51,0.12-1.21,0.98-1.18,1.47c0.03,0.46,0.91,1.18,1.43,1.19C220.17,238,220.67,237.23,221.53,236.49z"/>
</g>
<g>
	<path class="st0" d="M125.1,237.71c-4.24,0-8.47,0.07-12.71-0.06c-0.83-0.02-1.63-0.81-2.45-1.25c0.8-0.44,1.6-1.25,2.42-1.26
		c8.38-0.13,16.75-0.17,25.13-0.09c0.87,0.01,1.72,0.91,2.59,1.4c-0.85,0.41-1.69,1.13-2.56,1.16c-4.14,0.12-8.28,0.06-12.42,0.06
		C125.1,237.68,125.1,237.7,125.1,237.71z"/>
</g>
<g>
	<path class="st0" d="M297.75,235.09c2.72,0,5.44-0.08,8.16,0.06c0.65,0.03,1.26,0.79,1.88,1.21c-0.62,0.44-1.24,1.25-1.87,1.26
		c-5.53,0.09-11.07,0.09-16.6-0.03c-0.59-0.01-1.16-0.89-1.74-1.37c0.58-0.39,1.14-1.08,1.73-1.11c2.81-0.12,5.62-0.05,8.44-0.05
		C297.75,235.08,297.75,235.08,297.75,235.09z"/>
</g>
<g>
	<path class="st0" d="M294.18,250.47c-6.84-1.27-13.28-2.45-19.7-3.72c-0.54-0.11-0.93-0.94-1.39-1.44c0.67-0.32,1.4-0.98,2.02-0.89
		c3.61,0.53,7.19,1.23,10.78,1.89c2.76,0.51,5.53,0.97,8.26,1.61c0.55,0.13,0.93,0.95,1.39,1.45
		C295.03,249.78,294.52,250.19,294.18,250.47z"/>
</g>
<g>
	<path class="st0" d="M322.76,235.2c3.01,0,6.01-0.06,9.02,0.05c0.59,0.02,1.16,0.66,1.74,1.01c-0.56,0.49-1.11,1.39-1.67,1.39
		c-6.29,0.09-12.59,0.07-18.88-0.03c-0.56-0.01-1.1-0.78-1.65-1.19c0.62-0.42,1.24-1.17,1.88-1.19c3.19-0.12,6.39-0.06,9.58-0.06
		C322.76,235.19,322.76,235.19,322.76,235.2z"/>
</g>
<g>
	<path class="st0" d="M237.68,280.71c-0.24,0.07-0.93,0.52-1.49,0.38c-0.6-0.14-1.32-0.73-1.54-1.29
		c-1.32-3.31-2.51-6.66-3.74-10.01c-0.74-2.02-1.56-4.03-2.16-6.09c-0.16-0.54,0.35-1.27,0.56-1.91c0.49,0.17,1.29,0.22,1.41,0.54
		C232.96,268.09,235.11,273.88,237.68,280.71z"/>
</g>
<g>
	<path class="st0" d="M234.18,258.86c0.48,0.52,1.06,0.99,1.41,1.58c2.56,4.37,5.11,8.75,7.55,13.19c0.34,0.62-0.01,1.61-0.04,2.43
		c-0.71-0.42-1.72-0.66-2.1-1.28c-2.62-4.33-5.15-8.72-7.59-13.16c-0.38-0.68-0.16-1.69-0.21-2.55
		C233.53,259,233.86,258.93,234.18,258.86z"/>
</g>
<g>
	<path class="st0" d="M203.46,283.42c-0.35-0.97-0.94-1.75-0.76-2.25c1.79-5.01,3.67-9.99,5.63-14.94c0.17-0.43,1-0.59,1.53-0.88
		c0.26,0.53,0.86,1.19,0.72,1.58c-1.84,5.09-3.76,10.16-5.71,15.21C204.71,282.51,204.22,282.74,203.46,283.42z"/>
</g>
<g>
	<path class="st0" d="M207.38,196.34c-0.38,0.49-0.79,1.29-0.99,1.24c-0.62-0.16-1.47-0.51-1.67-1.01
		c-0.99-2.52-1.78-5.12-2.69-7.68c-0.85-2.38-1.83-4.71-2.59-7.12c-0.18-0.55,0.28-1.3,0.44-1.96c0.55,0.21,1.45,0.28,1.6,0.65
		C203.49,185.71,205.41,190.98,207.38,196.34z"/>
</g>
<g>
	<path class="st0" d="M260.99,282.28c-0.18,0.28-0.35,0.88-0.66,0.96c-0.45,0.12-1.22,0.07-1.49-0.23c-3.22-3.66-6.4-7.35-9.51-11.1
		c-0.29-0.35-0.04-1.16-0.05-1.75c0.58,0.04,1.44-0.17,1.71,0.14c3.29,3.72,6.49,7.52,9.7,11.3
		C260.81,281.73,260.84,281.93,260.99,282.28z"/>
</g>
<g>
	<path class="st0" d="M181.96,269.59c-0.43,0.52-0.73,1-1.15,1.36c-2.86,2.44-5.69,4.9-8.65,7.22c-0.54,0.43-1.58,0.21-2.4,0.29
		c0.24-0.71,0.28-1.65,0.77-2.09c2.88-2.56,5.84-5.02,8.83-7.44c0.43-0.35,1.18-0.46,1.75-0.41
		C181.41,268.55,181.66,269.18,181.96,269.59z"/>
</g>
<g>
	<path class="st0" d="M228.53,275.95c-0.26,0.33-0.67,0.84-1.07,1.35c-0.51-0.44-1.36-0.82-1.46-1.33
		c-0.73-3.85-1.36-7.72-1.87-11.6c-0.08-0.58,0.66-1.27,1.02-1.91c0.46,0.49,1.22,0.93,1.33,1.49
		C227.21,267.8,227.82,271.67,228.53,275.95z"/>
</g>
<g>
	<path class="st0" d="M210.29,300.37c-0.77,4.19-1.41,7.99-2.21,11.74c-0.1,0.49-1.02,0.8-1.56,1.19c-0.28-0.54-0.88-1.13-0.8-1.61
		c0.59-3.8,1.27-7.59,2.05-11.35c0.11-0.53,0.95-0.91,1.45-1.36C209.62,299.51,210.03,300.03,210.29,300.37z"/>
</g>
<g>
	<path class="st0" d="M195.76,280.99c-0.22,0.53-0.33,0.89-0.51,1.21c-1.87,3.24-3.7,6.5-5.67,9.67c-0.33,0.53-1.29,0.66-1.96,0.98
		c-0.06-0.74-0.43-1.65-0.14-2.2c1.77-3.29,3.66-6.52,5.61-9.71c0.32-0.52,1.12-0.85,1.76-1.02
		C195.05,279.87,195.47,280.64,195.76,280.99z"/>
</g>
<g>
	<path class="st0" d="M245.65,278.75c0.43,0.46,0.97,0.85,1.28,1.38c1.86,3.15,3.73,6.31,5.46,9.53c0.3,0.55-0.06,1.45-0.11,2.19
		c-0.68-0.32-1.65-0.45-1.98-0.98c-1.97-3.19-3.85-6.45-5.62-9.76c-0.31-0.59,0.07-1.55,0.13-2.34
		C245.09,278.77,245.37,278.76,245.65,278.75z"/>
</g>
<g>
	<path class="st0" d="M191.54,184.9c-0.19,0.22-0.44,0.78-0.75,0.82c-0.47,0.05-1.22-0.12-1.43-0.45c-2.13-3.5-4.2-7.04-6.19-10.63
		c-0.2-0.37,0.13-1.21,0.47-1.63c0.15-0.18,1.21-0.01,1.39,0.28c2.18,3.58,4.27,7.22,6.37,10.85
		C191.48,184.29,191.47,184.5,191.54,184.9z"/>
</g>
<g>
	<path class="st0" d="M179.46,286.53c-0.41,0.64-0.7,1.22-1.11,1.72c-2.1,2.53-4.18,5.08-6.39,7.51c-0.51,0.56-1.5,0.67-2.28,0.99
		c0.09-0.82-0.1-1.86,0.33-2.42c2.13-2.74,4.39-5.39,6.69-7.99c0.42-0.47,1.21-0.7,1.87-0.82
		C178.79,285.48,179.13,286.14,179.46,286.53z"/>
</g>
<g>
	<path class="st0" d="M180.15,249.33c0.46,0.33,1.21,0.62,1.22,0.93c0,0.53-0.33,1.38-0.74,1.55c-3.47,1.41-6.98,2.74-10.52,3.97
		c-0.41,0.14-1.19-0.33-1.57-0.73c-0.15-0.16,0.19-1.21,0.52-1.34C172.69,252.2,176.37,250.8,180.15,249.33z"/>
</g>
<g>
	<path class="st0" d="M213.44,282.58c-0.71,3.88-1.27,7.32-2.02,10.71c-0.13,0.61-1.02,1.05-1.55,1.57
		c-0.31-0.61-0.94-1.26-0.86-1.81c0.51-3.44,1.11-6.86,1.85-10.25c0.13-0.61,1.02-1.05,1.57-1.57
		C212.82,281.76,213.22,282.3,213.44,282.58z"/>
</g>
<g>
	<path class="st0" d="M254.98,255.32c0.51,0.18,0.89,0.26,1.2,0.44c3.08,1.76,6.18,3.49,9.2,5.37c0.54,0.34,0.7,1.29,1.03,1.95
		c-0.73,0.07-1.63,0.45-2.17,0.16c-3.13-1.66-6.21-3.44-9.23-5.3c-0.5-0.31-0.74-1.16-0.9-1.81
		C254.06,255.95,254.69,255.58,254.98,255.32z"/>
</g>
<g>
	<path class="st0" d="M228.61,292.09c0.24-0.32,0.61-0.79,0.97-1.27c0.53,0.4,1.41,0.73,1.52,1.22c0.77,3.56,1.42,7.15,1.99,10.75
		c0.07,0.47-0.54,1.04-0.84,1.57c-0.53-0.4-1.43-0.72-1.54-1.21C229.95,299.6,229.34,296,228.61,292.09z"/>
</g>
<g>
	<path class="st0" d="M143.87,248.36c0.3,0.26,0.8,0.68,1.3,1.11c-0.46,0.5-0.84,1.31-1.38,1.43c-3.47,0.78-6.97,1.47-10.49,2.03
		c-0.52,0.08-1.17-0.62-1.75-0.95c0.46-0.49,0.85-1.29,1.4-1.42C136.43,249.78,139.93,249.14,143.87,248.36z"/>
</g>
<g>
	<path class="st0" d="M260.45,268.64c0.51,0.32,0.95,0.51,1.3,0.81c2.53,2.1,5.09,4.17,7.52,6.38c0.46,0.41,0.38,1.41,0.56,2.13
		c-0.74-0.1-1.67,0.04-2.18-0.35c-2.59-2.02-5.11-4.15-7.57-6.33c-0.45-0.4-0.6-1.24-0.67-1.9
		C259.4,269.17,260.08,268.89,260.45,268.64z"/>
</g>
<g>
	<path class="st0" d="M284.8,226.35c-0.31-0.28-1.01-0.65-1.2-1.19c-0.1-0.28,0.63-1.19,1.09-1.28c3.4-0.72,6.81-1.34,10.24-1.87
		c0.46-0.07,1.03,0.57,1.55,0.89c-0.42,0.52-0.77,1.39-1.28,1.51C291.9,225.12,288.57,225.67,284.8,226.35z"/>
</g>
<g>
	<path class="st0" d="M194.84,309.94c-1.35,3.56-2.62,6.99-4,10.39c-0.13,0.32-1.16,0.66-1.37,0.5c-0.41-0.34-0.87-1.13-0.73-1.54
		c1.11-3.29,2.31-6.55,3.6-9.78c0.16-0.41,1.01-0.74,1.54-0.74C194.21,308.78,194.52,309.51,194.84,309.94z"/>
</g>
<g>
	<path class="st0" d="M195.44,305.32c-0.33-0.89-0.93-1.65-0.76-2.16c1.06-3.28,2.24-6.52,3.5-9.73c0.17-0.43,0.97-0.78,1.51-0.83
		c0.23-0.02,0.88,0.91,0.78,1.22c-1.19,3.53-2.47,7.02-3.78,10.51C196.58,304.61,196.14,304.77,195.44,305.32z"/>
</g>
<g>
	<path class="st0" d="M251.41,184.98c-0.73,1.28-1.37,2.42-2.02,3.54c-1.17,2.02-2.28,4.08-3.57,6.01
		c-0.28,0.43-1.21,0.43-1.84,0.63c-0.1-0.58-0.47-1.31-0.25-1.72c1.64-3.03,3.37-6.03,5.17-8.97c0.25-0.42,1.06-0.7,1.59-0.67
		C250.82,183.83,251.1,184.56,251.41,184.98z"/>
</g>
<g>
	<path class="st0" d="M210.12,170.38c-0.24,0.3-0.62,0.77-1,1.24c-0.52-0.42-1.38-0.76-1.49-1.27c-0.68-3.1-1.24-6.23-1.7-9.37
		c-0.07-0.52,0.6-1.14,0.93-1.71c0.47,0.38,1.25,0.69,1.35,1.16C208.91,163.62,209.46,166.84,210.12,170.38z"/>
</g>
<g>
	<path class="st0" d="M176.05,158.28c0.43,0.46,0.95,0.86,1.27,1.39c1.48,2.48,2.97,4.97,4.3,7.53c0.31,0.59,0.03,1.49,0.02,2.25
		c-0.69-0.29-1.7-0.37-2.03-0.89c-1.65-2.6-3.19-5.27-4.61-8c-0.29-0.57,0.11-1.5,0.2-2.26
		C175.49,158.29,175.77,158.28,176.05,158.28z"/>
</g>
<g>
	<path class="st0" d="M270.44,296.61c-1.24-1-1.81-1.33-2.2-1.81c-1.78-2.18-3.56-4.36-5.2-6.65c-0.39-0.55-0.24-1.48-0.34-2.24
		c0.72,0.18,1.71,0.12,2.11,0.58c1.96,2.27,3.84,4.62,5.58,7.06C270.75,294.08,270.44,295.09,270.44,296.61z"/>
</g>
<g>
	<path class="st0" d="M229.77,177.13c0.61-3.88,1.07-7.14,1.69-10.38c0.1-0.53,0.93-0.92,1.42-1.37c0.33,0.58,1.01,1.21,0.94,1.74
		c-0.46,3.36-1.03,6.72-1.72,10.04c-0.1,0.49-1,0.82-1.52,1.23C230.21,177.81,229.84,177.23,229.77,177.13z"/>
</g>
<g>
	<path class="st0" d="M252.64,198.67c-0.22-0.74-0.73-1.59-0.52-1.87c2.11-2.73,4.32-5.38,6.58-7.98c0.23-0.27,1.17-0.28,1.48-0.04
		c0.3,0.24,0.47,1.17,0.25,1.45c-2.07,2.64-4.22,5.22-6.39,7.78C253.83,198.27,253.4,198.33,252.64,198.67z"/>
</g>
<g>
	<path class="st0" d="M241.43,178.78c-0.35-0.73-0.98-1.43-0.84-1.85c1.09-3.18,2.3-6.33,3.59-9.43c0.16-0.39,1.03-0.65,1.56-0.63
		c0.23,0.01,0.72,0.97,0.59,1.33c-1.16,3.25-2.41,6.47-3.69,9.69C242.54,178.16,242.1,178.31,241.43,178.78z"/>
</g>
<g>
	<path class="st0" d="M247.31,163.51c-0.31-0.89-0.88-1.66-0.72-2.2c0.85-2.87,1.84-5.71,2.91-8.51c0.16-0.42,0.98-0.77,1.52-0.8
		c0.25-0.02,0.87,0.92,0.77,1.24c-1,3.12-2.11,6.2-3.23,9.27C248.45,162.8,248,162.96,247.31,163.51z"/>
</g>
<g>
	<path class="st0" d="M221.49,300.19c0,1.59,0.11,3.18-0.06,4.75c-0.06,0.53-0.82,0.98-1.26,1.47c-0.37-0.46-1.05-0.92-1.07-1.39
		c-0.09-3.26-0.09-6.53,0.02-9.79c0.01-0.45,0.74-0.88,1.14-1.32c0.42,0.51,1.14,0.98,1.19,1.53c0.16,1.57,0.06,3.17,0.06,4.75
		C221.5,300.19,221.5,300.19,221.49,300.19z"/>
</g>
<g>
	<path class="st0" d="M194.19,188.7c0.3,0.57,0.59,1.16,0.91,1.72c1.4,2.43,2.88,4.81,4.17,7.3c0.28,0.55-0.09,1.43-0.16,2.16
		c-0.67-0.33-1.62-0.48-1.97-1.02c-1.51-2.36-2.92-4.79-4.2-7.28c-0.32-0.63-0.05-1.57-0.05-2.36
		C193.32,189.05,193.75,188.87,194.19,188.7z"/>
</g>
<g>
	<path class="st0" d="M179.51,212.54c-0.9,0.2-1.75,0.69-2.21,0.45c-2.65-1.38-5.23-2.89-7.77-4.46c-0.37-0.23-0.52-1.11-0.43-1.63
		c0.04-0.24,1.05-0.62,1.37-0.46c2.79,1.5,5.54,3.09,8.27,4.7C178.99,211.3,179.08,211.75,179.51,212.54z"/>
</g>
<g>
	<path class="st0" d="M165.59,256.6c-1.1,0.9-1.52,1.43-2.06,1.64c-2.6,1.03-5.21,2.03-7.86,2.9c-0.53,0.17-1.27-0.29-1.91-0.46
		c0.38-0.62,0.61-1.58,1.16-1.81c2.56-1.1,5.19-2.08,7.85-2.93C163.38,255.75,164.23,256.26,165.59,256.6z"/>
</g>
<g>
	<path class="st0" d="M152.3,276.01c-0.24,0.61-0.25,0.87-0.38,0.95c-2.87,1.67-5.75,3.34-8.66,4.93c-0.18,0.1-0.97-0.39-1.01-0.67
		c-0.06-0.47,0.1-1.23,0.44-1.44c2.53-1.56,5.1-3.06,7.74-4.43C150.84,275.14,151.67,275.77,152.3,276.01z"/>
</g>
<g>
	<path class="st0" d="M252,319.67c-0.32,0.41-0.64,1.15-0.96,1.15c-0.52,0-1.35-0.35-1.52-0.76c-1.06-2.6-2.03-5.24-2.89-7.92
		c-0.14-0.42,0.31-1.18,0.71-1.55c0.15-0.14,1.2,0.22,1.34,0.57C249.84,313.91,250.87,316.72,252,319.67z"/>
</g>
<g>
	<path class="st0" d="M162.53,271.18c-0.49-0.32-1.01-0.49-1.18-0.82c-0.17-0.34-0.15-1.11,0.07-1.25c2.68-1.68,5.4-3.3,8.17-4.84
		c0.26-0.14,1.03,0.3,1.32,0.67c0.17,0.22,0.02,1.04-0.24,1.2C168.01,267.85,165.29,269.48,162.53,271.18z"/>
</g>
<g>
	<path class="st0" d="M289.59,196.86c-0.52,0.71-0.68,1.11-0.97,1.29c-2.48,1.53-4.96,3.06-7.5,4.49c-0.34,0.19-1.39-0.12-1.43-0.33
		c-0.1-0.54-0.02-1.44,0.34-1.68c2.43-1.6,4.92-3.13,7.48-4.52C287.9,195.9,288.76,196.54,289.59,196.86z"/>
</g>
<g>
	<path class="st0" d="M305.42,267.3c-1.02,0.23-1.74,0.64-2.27,0.47c-2.48-0.79-4.94-1.69-7.35-2.68c-0.43-0.18-0.58-1-0.87-1.52
		c0.54-0.24,1.19-0.81,1.61-0.68c2.57,0.82,5.1,1.77,7.61,2.77C304.56,265.83,304.79,266.46,305.42,267.3z"/>
</g>
<g>
	<path class="st0" d="M242.47,296.11c0.85,1.01,1.39,1.41,1.6,1.94c0.88,2.25,1.75,4.52,2.43,6.84c0.17,0.57-0.42,1.37-0.67,2.06
		c-0.54-0.4-1.37-0.69-1.59-1.22c-0.96-2.32-1.81-4.69-2.53-7.1C241.55,298.08,242.08,297.33,242.47,296.11z"/>
</g>
<g>
	<path class="st0" d="M156.05,223.76c2.76,0.51,5.07,0.86,7.34,1.41c0.57,0.14,0.99,0.88,1.47,1.34c-0.65,0.36-1.33,1.09-1.94,1.03
		c-2.32-0.24-4.63-0.65-6.89-1.2c-0.62-0.15-1.06-1.01-1.58-1.54C155.06,224.39,155.68,223.99,156.05,223.76z"/>
</g>
<g>
	<path class="st0" d="M199.36,174.35c-0.25,0.4-0.48,1.16-0.8,1.2c-0.52,0.06-1.42-0.21-1.59-0.58c-1.07-2.5-2.03-5.05-2.89-7.63
		c-0.14-0.42,0.33-1.18,0.73-1.56c0.16-0.15,1.19,0.22,1.34,0.57C197.27,168.93,198.27,171.57,199.36,174.35z"/>
</g>
<g>
	<path class="st0" d="M160.28,213.22c2.66,1.05,5.2,2.01,7.68,3.1c0.33,0.14,0.67,1.16,0.51,1.35c-0.35,0.41-1.13,0.87-1.55,0.73
		c-2.4-0.79-4.77-1.69-7.09-2.7c-0.41-0.18-0.74-1.02-0.73-1.55C159.11,213.84,159.85,213.54,160.28,213.22z"/>
</g>
<g>
	<path class="st0" d="M221.49,180.33c0,1.21,0.13,2.44-0.06,3.63c-0.09,0.56-0.77,1.04-1.19,1.55c-0.4-0.44-1.13-0.86-1.14-1.31
		c-0.1-2.79-0.09-5.59,0.01-8.38c0.01-0.39,0.78-1.12,0.99-1.06c0.51,0.16,1.22,0.67,1.27,1.1c0.16,1.47,0.06,2.98,0.06,4.47
		C221.45,180.33,221.47,180.33,221.49,180.33z"/>
</g>
<g>
	<path class="st0" d="M235.04,196.56c-0.39-0.67-1.25-1.49-1.1-2c0.75-2.49,1.72-4.91,2.75-7.3c0.18-0.41,1.02-0.54,1.55-0.8
		c0.24,0.54,0.81,1.23,0.66,1.6c-1.22,2.86-2.59,5.66-3.91,8.47C234.99,196.53,235.04,196.56,235.04,196.56z"/>
</g>
<g>
	<path class="st0" d="M283.46,257.9c2.68,1.04,5.23,1.98,7.73,3.05c0.34,0.15,0.68,0.99,0.56,1.36c-0.13,0.38-0.93,0.9-1.25,0.79
		c-2.58-0.85-5.14-1.79-7.66-2.81c-0.33-0.14-0.63-0.97-0.53-1.38C282.41,258.51,283.04,258.25,283.46,257.9z"/>
</g>
<g>
	<path class="st0" d="M289.07,212.45c-0.49,0.26-0.97,0.56-1.48,0.76c-2.1,0.8-4.2,1.64-6.34,2.31c-0.46,0.15-1.12-0.32-1.68-0.51
		c0.29-0.59,0.42-1.52,0.88-1.72c2.05-0.91,4.17-1.7,6.32-2.35c0.55-0.16,1.31,0.38,1.98,0.59
		C288.86,211.84,288.96,212.14,289.07,212.45z"/>
</g>
<g>
	<path class="st0" d="M286.71,274.39c-0.9,0.2-1.79,0.7-2.3,0.45c-2.09-1.02-4.1-2.22-6.06-3.48c-0.41-0.26-0.63-1.06-0.63-1.61
		c0-0.21,1.02-0.73,1.29-0.58c2.38,1.26,4.71,2.62,7.03,3.99C286.24,273.28,286.31,273.62,286.71,274.39z"/>
</g>
<g>
	<path class="st0" d="M155.82,212.69c-0.74,0.35-1.4,0.95-1.84,0.82c-2.38-0.74-4.73-1.63-7.04-2.58c-0.3-0.12-0.48-0.96-0.4-1.4
		c0.05-0.29,0.78-0.74,1.05-0.66c2.46,0.8,4.89,1.68,7.31,2.6C155.18,211.57,155.33,212.02,155.82,212.69z"/>
</g>
<g>
	<path class="st0" d="M275.87,190.64c-0.52,0.88-0.64,1.27-0.9,1.5c-1.77,1.53-3.54,3.06-5.4,4.48c-0.36,0.28-1.13,0.02-1.72,0.01
		c0.05-0.59-0.14-1.44,0.18-1.74c1.71-1.59,3.49-3.13,5.38-4.5C273.84,190.07,274.81,190.5,275.87,190.64z"/>
</g>
<g>
	<path class="st0" d="M160.33,288.33c-0.65-0.49-1.22-0.71-1.29-1.03c-0.1-0.46,0-1.19,0.32-1.48c1.72-1.57,3.5-3.08,5.34-4.51
		c0.34-0.26,1.08-0.22,1.52-0.04c0.26,0.11,0.53,1.01,0.39,1.15C164.59,284.41,162.48,286.33,160.33,288.33z"/>
</g>
<g>
	<path class="st0" d="M181.93,282.94c-0.23-0.64-0.85-1.57-0.62-1.87c1.48-2.02,3.11-3.93,4.79-5.79c0.25-0.27,1.15-0.31,1.46-0.07
		c0.31,0.23,0.54,1.16,0.33,1.42c-1.61,2.04-3.32,3.99-5.02,5.96C182.77,282.71,182.54,282.72,181.93,282.94z"/>
</g>
<g>
	<path class="st0" d="M222.1,280.72c-0.63,1.45-1.26,2.91-1.88,4.36c-0.4-1.5-0.89-2.98-1.16-4.5c-0.18-1-0.18-2.09,0.03-3.07
		c0.14-0.69,0.77-1.28,1.18-1.92c0.43,0.6,1.08,1.16,1.23,1.83c0.21,0.99,0.05,2.05,0.05,3.08
		C221.73,280.57,221.91,280.64,222.1,280.72z"/>
</g>
<g>
	<path class="st0" d="M275.18,267.9c-0.69,0.2-1.47,0.7-1.88,0.49c-1.99-1.01-3.9-2.17-5.77-3.39c-0.28-0.19-0.34-1.03-0.19-1.45
		c0.09-0.27,0.91-0.58,1.16-0.44c2.11,1.16,4.18,2.4,6.23,3.66C274.92,266.86,274.94,267.24,275.18,267.9z"/>
</g>
<g>
	<path class="st0" d="M221.45,315.48c0,1.02,0.13,2.07-0.05,3.06c-0.09,0.47-0.75,0.84-1.15,1.26c-0.4-0.43-1.13-0.84-1.15-1.28
		c-0.11-2.22-0.11-4.46,0.02-6.68c0.03-0.45,0.76-0.85,1.17-1.28c0.39,0.44,1.06,0.83,1.13,1.31c0.16,1.18,0.05,2.41,0.05,3.62
		C221.46,315.48,221.45,315.48,221.45,315.48z"/>
</g>
<g>
	<path class="st0" d="M278.79,304.02c-0.37,0.62-0.52,1.15-0.85,1.32c-0.34,0.17-1.05,0.15-1.26-0.08c-1.62-1.8-3.18-3.66-4.67-5.57
		c-0.17-0.22,0.02-0.97,0.28-1.23c0.26-0.25,1.05-0.41,1.22-0.23C275.3,300.11,277.01,302.05,278.79,304.02z"/>
</g>
<g>
	<path class="st0" d="M150.32,195.63c-0.87,0.24-1.69,0.76-2.16,0.54c-1.84-0.87-3.62-1.92-5.32-3.05
		c-0.38-0.25-0.54-1.11-0.47-1.64c0.03-0.24,1.03-0.66,1.33-0.51c1.98,1.02,3.9,2.16,5.81,3.31
		C149.77,194.45,149.87,194.88,150.32,195.63z"/>
</g>
<g>
	<path class="st0" d="M176.56,183.81c1.11,0.64,1.6,0.77,1.88,1.09c1.29,1.47,2.59,2.94,3.73,4.53c0.32,0.45,0.07,1.31,0.08,1.98
		c-0.65-0.14-1.54-0.05-1.92-0.45c-1.35-1.41-2.61-2.93-3.71-4.53C176.28,185.94,176.56,185.04,176.56,183.81z"/>
</g>
<g>
	<path class="st0" d="M238.02,284.43c0.61,0.47,1.12,0.67,1.28,1.02c0.81,1.88,1.6,3.78,2.23,5.72c0.13,0.39-0.37,1.18-0.8,1.48
		c-0.22,0.16-1.19-0.22-1.34-0.57c-0.85-1.96-1.62-3.96-2.26-6C237.01,285.72,237.63,285.11,238.02,284.43z"/>
</g>
<g>
	<path class="st0" d="M251.1,264.02c-1.96-1.67-3.87-3.26-5.71-4.93c-0.15-0.14,0.06-1.02,0.32-1.17c0.41-0.22,1.15-0.32,1.48-0.09
		c1.68,1.17,3.31,2.43,4.86,3.76c0.31,0.27,0.41,1.01,0.31,1.48C252.3,263.39,251.71,263.59,251.1,264.02z"/>
</g>
<g>
	<path class="st0" d="M268.23,198.16c-2.91,2.09-5.06,3.62-7.21,5.16c-0.25-0.63-0.88-1.66-0.7-1.83c1.61-1.55,3.32-3.02,5.13-4.34
		C265.75,196.93,266.68,197.57,268.23,198.16z"/>
</g>
<g>
	<path class="st0" d="M255.87,175.92c-0.34-0.73-0.97-1.48-0.8-1.84c0.92-1.93,2-3.79,3.15-5.6c0.18-0.29,1.11-0.41,1.46-0.21
		c0.34,0.19,0.66,1.05,0.5,1.37c-0.94,1.83-2,3.59-3.07,5.34C256.93,175.28,256.54,175.43,255.87,175.92z"/>
</g>
<g>
	<path class="st0" d="M269.17,180.33c-1.87,1.96-3.61,3.83-5.43,5.63c-0.13,0.13-1.04-0.19-1.13-0.46
		c-0.15-0.45-0.13-1.17,0.14-1.53c1.18-1.56,2.45-3.06,3.77-4.49c0.3-0.32,1-0.46,1.47-0.39
		C268.33,179.15,268.58,179.69,269.17,180.33z"/>
</g>
<g>
	<path class="st0" d="M278.14,282.9c-1.12,0.75-1.86,1.43-2.01,1.32c-1.91-1.43-3.75-2.96-5.53-4.54c-0.08-0.07,0.53-0.93,0.82-1.42
		C273.5,279.7,275.58,281.13,278.14,282.9z"/>
</g>
<g>
	<path class="st0" d="M254.06,294.19c0.93,0.71,1.48,0.95,1.75,1.38c0.96,1.5,1.9,3.02,2.66,4.62c0.24,0.52-0.11,1.31-0.18,1.98
		c-0.63-0.22-1.53-0.26-1.84-0.71c-1.06-1.53-2.02-3.17-2.8-4.86C253.41,296.1,253.85,295.27,254.06,294.19z"/>
</g>
<g>
	<path class="st0" d="M168.1,206.14c-0.65,0.19-1.41,0.69-1.82,0.48c-1.91-0.96-3.76-2.07-5.55-3.24c-0.29-0.19-0.36-1.02-0.22-1.46
		c0.09-0.27,0.91-0.59,1.16-0.46c2.04,1.1,4.03,2.28,6.01,3.49C167.88,205.05,167.88,205.45,168.1,206.14z"/>
</g>
<g>
	<path class="st0" d="M272.57,253.95c2.05,0.8,4,1.49,5.87,2.34c0.33,0.15,0.67,1.19,0.52,1.34c-0.37,0.39-1.12,0.81-1.56,0.68
		c-1.8-0.51-3.58-1.14-5.29-1.89c-0.41-0.18-0.75-1.01-0.73-1.53C271.4,254.57,272.14,254.28,272.57,253.95z"/>
</g>
<g>
	<path class="st0" d="M208.12,174.09c0.27-0.36,0.68-0.9,1.08-1.43c0.5,0.44,1.3,0.79,1.46,1.33c0.47,1.61,0.78,3.29,0.95,4.96
		c0.05,0.47-0.61,1-0.94,1.51c-0.48-0.34-1.26-0.6-1.39-1.04C208.8,177.8,208.55,176.13,208.12,174.09z"/>
</g>
<g>
	<path class="st0" d="M222.12,166.44c-0.71,1.46-1.36,2.79-2.01,4.12c-0.37-1.4-1.05-2.81-1.03-4.21c0.02-1.45-1.07-3.61,1.38-4.07
		C220.73,162.24,221.48,164.79,222.12,166.44z"/>
</g>
<g>
	<path class="st0" d="M278.89,168.75c-1.71,1.75-3.42,3.51-5.13,5.26c-0.36-0.63-1.18-1.59-1-1.84c1.11-1.6,2.37-3.12,3.77-4.48
		c0.34-0.33,1.36,0.05,2.07,0.11C278.7,168.12,278.79,168.44,278.89,168.75z"/>
</g>
<g>
	<path class="st0" d="M171.51,176.14c1.93,2.81,3.35,4.89,4.78,6.96c-0.58,0.26-1.54,0.88-1.67,0.73c-1.5-1.64-2.92-3.36-4.21-5.16
		C170.22,178.42,170.85,177.6,171.51,176.14z"/>
</g>
<g>
	<path class="st0" d="M222.19,157.06c-0.7,1.38-1.33,2.61-1.96,3.85c-0.4-1.29-1.14-2.59-1.12-3.88c0.03-1.44-1.15-3.61,1.32-4.07
		C220.72,152.91,221.5,155.42,222.19,157.06z"/>
</g>
<g>
	<path class="st0" d="M206.98,318.89c-0.34,1.96-0.47,3.37-0.88,4.69c-0.17,0.55-0.96,0.9-1.46,1.34c-0.31-0.59-0.91-1.19-0.89-1.76
		c0.05-1.38,0.27-2.79,0.66-4.12c0.2-0.67,0.92-1.18,1.41-1.76C206.28,317.93,206.74,318.57,206.98,318.89z"/>
</g>
<g>
	<path class="st0" d="M150.6,262.01c-0.69,0.77-0.97,1.33-1.41,1.53c-1.26,0.57-2.56,1.13-3.9,1.43c-0.53,0.12-1.22-0.43-1.84-0.67
		c0.3-0.52,0.47-1.29,0.92-1.5c1.33-0.64,2.74-1.17,4.17-1.51C149.04,261.16,149.7,261.67,150.6,262.01z"/>
</g>
<g>
	<path class="st0" d="M178.75,261.09c-1.36,1.08-2.03,1.89-2.89,2.22c-1.38,0.52-2.47,2.66-4.35,0.98c1.01-1.03,1.98-2.1,3.04-3.07
		c0.47-0.42,1.11-0.81,1.71-0.87C176.83,260.29,177.45,260.68,178.75,261.09z"/>
</g>
<g>
	<path class="st0" d="M284.39,184.22c-2.08,1.57-3.71,2.8-5.35,4.04c-0.37-0.51-1.12-1.41-1.05-1.48c1.38-1.34,2.82-2.62,4.35-3.79
		C282.5,182.87,283.26,183.53,284.39,184.22z"/>
</g>
<g>
	<path class="st0" d="M168.13,300.71c-2.03,2.01-3.46,3.41-4.88,4.82c-0.39-0.58-1.23-1.47-1.09-1.67c0.95-1.38,2.05-2.69,3.27-3.84
		C165.68,299.78,166.67,300.31,168.13,300.71z"/>
</g>
<g>
	<path class="st0" d="M160.23,200.85c-0.87,0.6-1.47,1.24-1.69,1.13c-1.71-0.86-3.38-1.83-4.98-2.89c-0.18-0.12,0.1-0.96,0.17-1.46
		c1.17,0.34,2.41,0.54,3.5,1.06C158.23,199.17,159.06,199.99,160.23,200.85z"/>
</g>
<g>
	<path class="st0" d="M235.48,313.55c-0.53,0.75-0.96,1.35-1.39,1.95c-0.5-0.57-1.34-1.1-1.43-1.73c-0.22-1.58-0.11-3.21-0.08-4.81
		c0-0.04,0.93-0.19,0.98-0.08C234.22,310.36,234.8,311.87,235.48,313.55z"/>
</g>
<g>
	<path class="st0" d="M174.37,199.81c-2.08-2.01-3.59-3.46-5.09-4.91c0.53-0.42,1.38-1.31,1.53-1.2c1.51,1.06,2.96,2.23,4.27,3.53
		C175.3,197.45,174.77,198.44,174.37,199.81z"/>
</g>
<g>
	<path class="st0" d="M151.22,250.18c-0.87-0.7-1.45-1.16-2.02-1.62c1.51-0.65,2.99-1.43,4.56-1.87c0.49-0.14,1.24,0.66,1.87,1.02
		C154.22,248.5,152.81,249.29,151.22,250.18z"/>
</g>
<g>
	<path class="st0" d="M193.99,271.35c-1.47,1-2.91,2.06-4.45,2.94c-0.22,0.13-0.93-0.59-1.42-0.91c1.23-1.43,2.44-2.87,3.74-4.24
		c0.05-0.05,0.87,0.63,1.33,0.97C193.46,270.52,193.73,270.93,193.99,271.35z"/>
</g>
<g>
	<path class="st0" d="M164.54,189.25c-0.66,0.16-1.53,0.67-1.93,0.42c-1.25-0.8-2.4-1.8-3.41-2.9c-0.2-0.22,0.43-1.2,0.68-1.83
		c1.62,1.12,3.25,2.23,4.87,3.35C164.68,188.61,164.61,188.93,164.54,189.25z"/>
</g>
<g>
	<path class="st0" d="M151.21,226.07c-1.41-0.88-2.57-1.6-3.73-2.32c0.64-0.36,1.39-1.14,1.9-1.01c1.4,0.36,2.71,1.11,4.05,1.7
		C152.78,224.92,152.14,225.39,151.21,226.07z"/>
</g>
<g>
	<path class="st0" d="M184.62,295.41c0.86,1.07,1.62,1.76,1.52,1.92c-0.98,1.62-2.1,3.15-3.18,4.71c-0.38-0.35-1.15-0.86-1.09-1.01
		C182.62,299.31,183.5,297.64,184.62,295.41z"/>
</g>
<g>
	<path class="st0" d="M178.82,308.93c-0.23-0.49-0.79-1.15-0.64-1.44c0.81-1.61,1.79-3.15,2.78-4.66c0.04-0.06,1.27,0.56,1.26,0.59
		c-0.7,1.78-1.47,3.53-2.24,5.28C179.59,308.78,179.2,308.86,178.82,308.93z"/>
</g>
<g>
	<path class="st0" d="M157.15,181.46c-1.09,0.81-1.74,1.45-1.87,1.36c-1.47-1.04-2.87-2.17-4.23-3.36
		c-0.05-0.05,0.72-1.18,0.75-1.16C153.47,179.23,155.09,180.22,157.15,181.46z"/>
</g>
<g>
	<path class="st0" d="M300.44,248.49c1.46,0.95,2.67,1.74,3.88,2.53c-0.66,0.33-1.44,1.05-1.97,0.91c-1.3-0.35-2.49-1.11-3.73-1.71
		C299.13,249.73,299.64,249.25,300.44,248.49z"/>
</g>
<g>
	<path class="st0" d="M134.96,223.11c-1.24-0.75-2.34-1.41-3.43-2.06c0.69-0.4,1.5-1.26,2.05-1.11c1.34,0.35,2.55,1.17,3.82,1.8
		C136.69,222.14,135.97,222.55,134.96,223.11z"/>
</g>
<g>
	<path class="st0" d="M161.44,248.34c-0.77-0.82-1.26-1.34-1.75-1.86c1.2-0.53,2.37-1.23,3.63-1.51c0.54-0.12,1.27,0.64,1.91,1
		C164.06,246.7,162.9,247.43,161.44,248.34z"/>
</g>
<g>
	<path class="st0" d="M160.75,271.63c-0.93,0.74-1.68,1.53-2.59,2.01c-0.75,0.4-1.69,0.46-2.56,0.57c-0.11,0.01-0.47-0.86-0.44-0.88
		c1.53-0.96,3.08-1.88,4.67-2.75C159.89,270.55,160.27,271.08,160.75,271.63z"/>
</g>
<g>
	<path class="st0" d="M280.38,284.84c1.33,1.5,2.4,2.67,3.38,3.9c0.04,0.04-0.92,1.02-0.97,0.98c-1.28-0.96-2.52-1.98-3.68-3.07
		C279.06,286.6,279.72,285.78,280.38,284.84z"/>
</g>
<g>
	<path class="st0" d="M200.9,289.26c-0.19-0.6-0.71-1.34-0.52-1.78c0.55-1.28,1.39-2.44,2.11-3.65c0.4,0.5,1.23,1.14,1.12,1.49
		c-0.42,1.41-1.13,2.72-1.74,4.07C201.55,289.35,201.22,289.3,200.9,289.26z"/>
</g>
<g>
	<path class="st0" d="M141.96,224.39c-1.37-0.85-2.48-1.54-3.59-2.23c0.62-0.4,1.35-1.25,1.83-1.12c1.25,0.32,2.4,1.06,3.58,1.64
		C143.27,223.16,142.75,223.65,141.96,224.39z"/>
</g>
<g>
	<path class="st0" d="M218.42,323.3c0.74-1.07,1.29-1.87,1.84-2.67c0.41,0.99,1.12,1.98,1.14,2.98c0.01,0.89-0.75,1.79-1.17,2.69
		C219.68,325.39,219.13,324.47,218.42,323.3z"/>
</g>
<g>
	<path class="st0" d="M230.56,284.56c-0.76,0.87-1.28,1.46-1.8,2.06c-0.53-1.19-1.23-2.35-1.5-3.59c-0.11-0.5,0.74-1.2,1.15-1.81
		C229.07,282.24,229.73,283.26,230.56,284.56z"/>
</g>
<g>
	<path class="st0" d="M201.11,140.04c0.93-0.82,1.5-1.33,2.08-1.84c0.62,1.42,1.38,2.8,1.78,4.28c0.11,0.43-0.82,1.13-1.27,1.71
		C202.9,142.91,202.1,141.64,201.11,140.04z"/>
</g>
<g>
	<path class="st0" d="M276.76,228.32c-0.86-0.84-1.37-1.34-1.88-1.83c1.17-0.53,2.3-1.2,3.53-1.52c0.44-0.11,1.1,0.65,1.66,1.01
		C279.04,226.7,278.02,227.42,276.76,228.32z"/>
</g>
<g>
	<path class="st0" d="M187.4,199.52c-1.07-1.53-1.91-2.68-2.63-3.89c-0.05-0.08,1.18-1.04,1.21-1.01c0.98,1.02,1.92,2.07,2.74,3.22
		C188.8,197.96,188.08,198.66,187.4,199.52z"/>
</g>
<g>
	<path class="st0" d="M262.56,306.45c-0.76,0.64-1.2,1.01-1.64,1.38c-0.88-1.12-1.82-2.21-2.59-3.4c-0.1-0.15,0.67-0.86,1.04-1.3
		C260.36,304.15,261.35,305.18,262.56,306.45z"/>
</g>
<g>
	<path class="st0" d="M294.68,210.33c-1.2,0.51-2.36,1.14-3.61,1.45c-0.37,0.09-0.97-0.74-1.46-1.14c1.06-0.65,2.08-1.42,3.22-1.88
		c0.44-0.18,1.16,0.36,1.75,0.57C294.62,209.67,294.65,210,294.68,210.33z"/>
</g>
<g>
	<path class="st0" d="M288.52,273.99c1.28,1.22,2.29,2.18,3.3,3.14c-0.46,0.36-1.15,1.11-1.33,1c-1.14-0.66-2.18-1.5-3.18-2.37
		C287.26,275.72,287.91,274.88,288.52,273.99z"/>
</g>
<g>
	<path class="st0" d="M254.13,262.59c1.16,1.46,2.06,2.56,2.86,3.71c0.03,0.04-1.13,1.05-1.21,0.99c-1.02-0.86-2-1.8-2.84-2.83
		C252.83,264.33,253.5,263.56,254.13,262.59z"/>
</g>
<g>
	<path class="st0" d="M251.95,183.84c-0.72-1.14-1.38-1.81-1.25-2.06c0.58-1.11,1.39-2.1,2.11-3.14c0.44,0.38,1.33,0.93,1.26,1.1
		C253.58,180.96,252.89,182.1,251.95,183.84z"/>
</g>
<g>
	<path class="st0" d="M263.8,164.26c-1.15,1.14-2.08,2.06-3,2.98c-0.35-0.45-1.1-1.15-1-1.31c0.7-1.1,1.59-2.09,2.41-3.11
		C262.63,163.2,263.05,163.58,263.8,164.26z"/>
</g>
<g>
	<path class="st0" d="M166.22,189.39c1.08,1.22,1.93,2.13,2.67,3.13c0.05,0.07-1.05,1.16-1.12,1.11c-1.01-0.75-1.97-1.59-2.83-2.5
		C164.88,191.05,165.59,190.24,166.22,189.39z"/>
</g>
<g>
	<path class="st0" d="M273.22,175.49c-1.32,1.18-2.27,2.07-3.3,2.87c-0.04,0.03-1.13-1.06-1.07-1.14c0.73-0.99,1.53-1.94,2.45-2.76
		C271.43,174.34,272.23,174.94,273.22,175.49z"/>
</g>
<g>
	<path class="st0" d="M167.8,171.95c1,1.54,1.75,2.63,2.37,3.78c0.04,0.07-1.2,0.99-1.25,0.94c-0.87-0.89-1.71-1.84-2.38-2.88
		C166.43,173.61,167.12,172.91,167.8,171.95z"/>
</g>
<g>
	<path class="st0" d="M195.61,163.26c-0.77,0.72-1.19,1.1-1.61,1.49c-0.68-1-1.44-1.95-1.97-3.03c-0.11-0.23,0.66-0.88,1.03-1.34
		C193.84,161.28,194.63,162.17,195.61,163.26z"/>
</g>
<g>
	<path class="st0" d="M302.35,207.26c-0.8,0.44-1.57,1.06-2.43,1.24c-0.51,0.11-1.17-0.49-1.76-0.76c0.77-0.62,1.46-1.41,2.33-1.8
		c0.42-0.19,1.17,0.35,1.77,0.56C302.3,206.74,302.33,207,302.35,207.26z"/>
</g>
<g>
	<path class="st0" d="M159.56,288.89c-1.41,0.95-2.33,1.64-3.32,2.16c-0.11,0.06-1.06-1.14-1.01-1.2c0.71-0.79,1.48-1.57,2.37-2.13
		C157.79,287.58,158.51,288.24,159.56,288.89z"/>
</g>
<g>
	<path class="st0" d="M296.8,193.29c-1.25,0.82-2,1.48-2.88,1.79c-0.32,0.11-0.93-0.59-1.41-0.92c0.78-0.69,1.5-1.48,2.37-2.01
		C295.11,192.02,295.83,192.69,296.8,193.29z"/>
</g>
<g>
	<path class="st0" d="M241.6,184.56c-0.9,0.42-1.77,0.96-2.71,1.16c-0.27,0.06-1.17-1.09-1.05-1.4c0.33-0.84,1.05-1.52,1.61-2.27
		c0.47,0.41,0.95,0.81,1.42,1.22C241.12,183.7,241.36,184.13,241.6,184.56z"/>
</g>
<g>
	<path class="st0" d="M233.85,160.5c0.27,0.57,0.86,1.23,0.74,1.69c-0.22,0.84-0.88,1.57-1.35,2.35c-0.4-0.5-1.17-1.03-1.13-1.5
		c0.07-0.87,0.61-1.69,0.95-2.54C233.32,160.51,233.59,160.5,233.85,160.5z"/>
</g>
<g>
	<path class="st0" d="M222.07,288.05c-0.76,0.85-1.29,1.44-1.82,2.04c-0.41-0.71-1.14-1.43-1.13-2.13c0.01-0.7,0.78-1.38,1.21-2.07
		C220.84,286.51,221.34,287.14,222.07,288.05z"/>
</g>
<g>
	<path class="st0" d="M208.02,156.67c-0.7,0.66-1.17,1.1-1.64,1.53c-0.49-0.69-1.26-1.34-1.38-2.1c-0.08-0.51,0.76-1.16,1.18-1.75
		C206.71,155.03,207.25,155.7,208.02,156.67z"/>
</g>
<g>
	<path class="st0" d="M191.65,210.92c2.2-0.93,4.4-1.85,6.6-2.78c0.19,0.32,0.38,0.63,0.58,0.95c-9.52,3.61-16.63,10.31-23.17,17.74
		c-0.27-0.29-0.53-0.58-0.8-0.87c4.2-4.18,8.41-8.36,12.61-12.54C188.86,212.6,190.25,211.76,191.65,210.92z"/>
</g>
<g>
	<path class="st0" d="M242.28,240.53c-2.13,1.89-4.26,3.78-6.39,5.67c-0.1-0.12-0.2-0.24-0.3-0.35c2.9-3.61,5.81-7.21,8.71-10.82
		c0.13,0.04,0.26,0.07,0.38,0.11c-0.43,1.24-0.86,2.47-1.29,3.71C243.02,239.41,242.65,239.97,242.28,240.53z"/>
</g>
<g>
	<path class="st0" d="M236.39,221.21c0.11-0.44,0.21-0.87,0.34-1.39c3.11,2.72,3.5,8.33,1.32,12.06c-0.26-2.65-0.58-5.78-0.89-8.92
		C236.91,222.37,236.65,221.79,236.39,221.21z"/>
</g>
<g>
	<path class="st0" d="M198.72,237.13c-0.15-0.87-0.29-1.75-0.44-2.62c0.17-0.08,0.34-0.16,0.51-0.24c1.92,3,3.85,6,5.73,9.03
		c0.03,0.04-0.45,0.4-0.69,0.61C202.13,241.65,200.43,239.39,198.72,237.13z"/>
</g>
<g>
	<path class="st0" d="M239.99,237.75c3.5-7.33,3.65-14.7,0.25-22.17C245.63,219.25,245.37,232.16,239.99,237.75z"/>
</g>
<g>
	<path class="st0" d="M203.5,220.94c-1.18,4.98-0.91,9.33,1.45,13.41C201.09,232,200.12,224.48,203.5,220.94z"/>
</g>
<g>
	<path class="st0" d="M246.21,220.79c0,3.47,0,6.94,0,10.42c-0.3,0-0.61-0.01-0.91-0.01c-0.19-3.73-0.39-7.46-0.6-11.57
		c0.65,0.51,1.1,0.86,1.55,1.22C246.24,220.85,246.21,220.79,246.21,220.79z"/>
</g>
<g>
	<path class="st0" d="M198.57,221.78c-0.22,2.62-0.43,5.25-0.65,7.87c-0.34-0.02-0.69-0.05-1.03-0.07c0.17-2.63,0.34-5.25,0.51-7.88
		C197.79,221.72,198.18,221.75,198.57,221.78z"/>
</g>
<g>
	<path class="st0" d="M187.36,228.05c0-2.18,0-4.35,0-6.53c0.27-0.01,0.54-0.02,0.81-0.03c0,2.18,0,4.35,0,6.53
		C187.9,228.03,187.63,228.04,187.36,228.05z"/>
</g>
<g>
	<path class="st0" d="M220.85,360.14c-69.24,0-125.57-56.33-125.57-125.57c0-69.24,56.33-125.57,125.57-125.57
		s125.57,56.33,125.57,125.57C346.41,303.81,290.09,360.14,220.85,360.14z M220.85,111c-68.13,0-123.57,55.43-123.57,123.57
		s55.43,123.57,123.57,123.57c68.14,0,123.57-55.43,123.57-123.57S288.98,111,220.85,111z"/>
</g>
<g>
	<path class="st0" d="M30.07,187.9l0.63-3.02l0.55,0.12l23.62,7.69l-0.74,3.53l-15.24,1.19l13.47,7.25l-0.72,3.41l-24.7-2.51
		l-0.55-0.12l0.65-3.1l21.2,2.6l-13.33-6.97l0.61-2.9l15.04-1.03L30.07,187.9z"/>
	<path class="st0" d="M33.98,174.26l5.56-15l2.59,0.96l-4.45,11.99l7.86,2.91l3.93-10.6l2.48,0.92l-3.93,10.6l8.16,3.03l4.49-12.1
		l2.59,0.96l-5.61,15.11L33.98,174.26z"/>
	<path class="st0" d="M45.11,147.26l1.59-2.88l19.64,10.86l6.42-11.61l2.46,1.36l-8.01,14.49L45.11,147.26z"/>
	<path class="st0" d="M65.48,114.43c1.83-2.38,4.18-3.87,5.77-4.62l2.54,1.95l-0.37,0.48c-1.77,0.66-3.85,1.85-5.36,3.82
		c-3.29,4.29-1.85,9.19,2.86,12.81c4.93,3.78,10.14,3.58,13.04-0.2c1.15-1.5,2.08-3.76,2.31-5.91l0.37-0.48l2.89,0.85
		c-0.47,2.98-2.04,5.76-3.34,7.45c-4.2,5.47-10.8,5.97-17.22,1.04C62.77,126.86,61.01,120.26,65.48,114.43z"/>
	<path class="st0" d="M102.17,112.84c-4.61,4.45-10.6,3.16-16.19-2.64c-5.65-5.85-6.57-11.88-2.04-16.25
		c4.53-4.37,10.52-3.25,16.17,2.61C105.7,102.36,106.78,108.39,102.17,112.84z M85.88,95.98c-3.23,3.12-1.52,7.71,2.49,11.86
		c4.01,4.15,8.56,6.16,11.85,2.99c3.29-3.17,1.44-7.8-2.57-11.95C93.64,94.72,89.11,92.86,85.88,95.98z"/>
	<path class="st0" d="M99.55,80.75l3.13-2.24l11.73,7.88l-3.57-13.7l3.07-2.19l14.67,20.56l-2.38,1.7l-9.31-13.05l-2.84-4.47
		l-0.12,0.04l3.1,12.41l-2.19,1.56l-10.76-6.94l-0.08,0.1l3.14,3.92l9.48,13.28l-2.38,1.7L99.55,80.75z"/>
	<path class="st0" d="M124.86,63.95l14.25-7.27l1.26,2.46l-11.39,5.81l3.81,7.46l10.07-5.14l1.2,2.36l-10.07,5.14l3.95,7.75
		l11.5-5.86l1.26,2.46l-14.35,7.32L124.86,63.95z"/>
	<path class="st0" d="M189.03,44.71l3.83,21.87l-3.16,0.55l-3.83-21.87l-8.41,1.47l-0.53-3l19.98-3.5l0.53,3L189.03,44.71z"/>
	<path class="st0" d="M216.62,64.88c-6.41,0.15-9.94-4.86-10.13-12.92c-0.19-8.14,3.22-13.19,9.51-13.34
		c6.29-0.15,9.94,4.74,10.13,12.88C226.32,59.56,223.03,64.73,216.62,64.88z M216.07,41.43c-4.49,0.11-6.35,4.64-6.21,10.41
		c0.14,5.77,2.13,10.34,6.7,10.23c4.57-0.11,6.34-4.76,6.21-10.53C222.63,45.77,220.56,41.33,216.07,41.43z"/>
	<path class="st0" d="M266.39,44.26l15.41,4.29l-0.74,2.67l-12.32-3.43l-2.25,8.07l10.89,3.03l-0.71,2.55l-10.89-3.03l-2.33,8.38
		l12.44,3.46l-0.74,2.67l-15.53-4.32L266.39,44.26z"/>
	<path class="st0" d="M296.61,70.54l-4.21,9.4l-2.93-1.31l4.21-9.4l-2.35-16.82l0.23-0.51l3.11,1.39l1.62,14.04l11.74-8.05
		l2.96,1.33l-0.23,0.51L296.61,70.54z"/>
	<path class="st0" d="M320.52,66.01l13.46,8.64l-1.5,2.33l-10.76-6.91l-4.53,7.05l9.51,6.11l-1.43,2.23l-9.51-6.11l-4.7,7.32
		l10.86,6.98l-1.5,2.33l-13.56-8.71L320.52,66.01z"/>
	<path class="st0" d="M372.2,109.5c1.94,2.29,2.89,4.9,3.29,6.61l-2.45,2.07l-0.39-0.46c-0.27-1.87-0.99-4.15-2.6-6.05
		c-3.5-4.13-8.59-3.75-13.12,0.08c-4.74,4.02-5.65,9.14-2.57,12.78c1.22,1.44,3.24,2.83,5.28,3.51l0.39,0.46l-1.44,2.64
		c-2.81-1.09-5.19-3.22-6.57-4.84c-4.46-5.26-3.54-11.81,2.63-17.04C360.63,104.22,367.45,103.9,372.2,109.5z"/>
	<path class="st0" d="M386.92,130.54l2.22,3.58l-16.83,19.72l-0.48,0.3l-1.78-2.86l5.18-5.8l-4.98-8.04l-7.56,1.95l-1.6-2.59
		l0.48-0.3L386.92,130.54z M372.86,136.76l4.16,6.71l8.93-10.01L372.86,136.76z"/>
	<path class="st0" d="M387.61,163.77l-1.93-4.49l-9.46,4.07l-1.28-2.98l23.2-9.98l3.15,7.33c2.27,5.27,0.48,8.92-3.54,10.64
		c-3.57,1.54-6.42,0.49-8.5-1.89l-6.83,9.88l-0.52,0.22l-1.36-3.17L387.61,163.77z M396.87,154.46l-8.95,3.85l1.92,4.46
		c1.28,2.98,4.1,3.65,6.6,2.57c2.47-1.06,3.64-3.4,2.38-6.35L396.87,154.46z"/>
	<path class="st0" d="M408.99,178.25l4.07,15.47l-2.67,0.7l-3.25-12.37l-8.1,2.13l2.88,10.93l-2.56,0.67l-2.88-10.93l-8.41,2.21
		l3.28,12.48l-2.67,0.7l-4.1-15.59L408.99,178.25z"/>
</g>
<g>
	<path class="st0" d="M220.85,373.84c-76.8,0-139.27-62.48-139.27-139.27S144.05,95.3,220.85,95.3s139.27,62.48,139.27,139.27
		S297.64,373.84,220.85,373.84z M220.85,97.52c-75.57,0-137.05,61.48-137.05,137.05c0,75.57,61.48,137.05,137.05,137.05
		c75.57,0,137.05-61.48,137.05-137.05C357.9,159,296.42,97.52,220.85,97.52z"/>
</g>
</svg>
