<?xml version="1.0" encoding="utf-8"?>
<!-- Generator: Adobe Illustrator 27.9.2, SVG Export Plug-In . SVG Version: 6.00 Build 0)  -->
<svg version="1.1" id="Layer_1" xmlns="http://www.w3.org/2000/svg" xmlns:xlink="http://www.w3.org/1999/xlink" x="0px" y="0px"
	 viewBox="0 0 443.5 443.5" style="enable-background:new 0 0 443.5 443.5;" xml:space="preserve">
<style type="text/css">
	.st0{fill:#FF4D00;}
</style>
<g>
	<g>
		<path class="st0" d="M235,196.5c0,1,0,2,0,3.2c1.4,0.4,2.7,0.7,4.2,1.1c0.8-1.2,1.4-2.5,2.3-3.6c0.4-0.5,1.2-0.6,1.8-0.9
			c0.1,0.7,0.4,1.5,0.2,2.1c-0.3,1-0.9,1.8-1.4,2.7c3.3,2.5,3.7,2.4,6.2-0.1c0.5-0.6,1.5-0.7,2.3-1c-0.1,0.8,0,1.7-0.3,2.4
			c-0.2,0.7-0.9,1.2-1.5,2c2,1.4,3.6,3.8,6.4,1.1c0.3-0.3,1.2,0,1.8,0.1c-0.1,0.6,0,1.3-0.3,1.8c-0.2,0.4-0.9,0.7-1.3,1
			c2.9,4.1,3.6,4.3,7.5,2c3.6-2.1,7.1-4.2,10.7-6.2c0.6-0.4,1.6-0.1,2.5-0.1c-0.4,0.7-0.6,1.7-1.2,2.1c-2.1,1.4-4.3,2.6-6.5,3.9
			c-2.2,1.3-4.3,2.6-6.5,3.9c0.1,0.3,0.1,0.5,0.2,0.7c3.7,4.1,3.7,4,9,2.2c1.4-0.5,3.1-0.3,4.6-0.4c0,2.5-2.3,2-3.6,2.7
			c-1.1,0.6-2.4,1-3.9,1.6c0.5,0.7,0.9,1.3,1.3,1.9c1.8,2.2,3.5,4.4,5.3,6.6c2.5,3,5.5,5.1,9.4,5.8c0.6,0.1,1.1,0.8,1.6,1.2
			c-0.5,0.5-0.9,1.2-1.5,1.4c-4.3,1.4-8.6,2.6-12.8,4.1c-1.1,0.4-2.7,0.7-2.1,2.7c0.1,0.2-1.1,1.2-1.5,1.1c-3.7-1.2-5.8,1.9-8.8,3.6
			c2.5,0.9,5,1.7,7.5,2.8c0.8,0.3,1.2,1.3,1.9,2c-0.9,0.1-1.9,0.6-2.7,0.3c-2.5-0.8-5-1.6-7.4-2.7c-2.7-1.2-4.9-0.6-7,1
			c0.1,0.2,0.2,0.4,0.3,0.5c0.4,0.8,0.8,1.6,1.2,2.4c-0.9-0.1-1.9-0.1-2.8-0.3c-1.7-0.3-3.4-0.7-5.1-1c-0.1,1.7-0.2,2.6-0.3,3.5
			c-0.9-0.3-1.7-0.7-2.6-1c-0.8-0.2-1.6-0.3-2.4-0.5c-0.1,0.2-0.2,0.4-0.3,0.6c2.3,2.6,4.7,5.1,6.9,7.7c0.5,0.6,0.5,1.7,0.7,2.6
			c-0.9-0.3-1.9-0.4-2.5-0.9c-2.3-2.3-4.4-5-6.7-7.2c-0.9-0.8-2.4-1.4-3.6-1.3c-3.5,0.2-6.9,0.8-10.4,1.1c-1.8,0.1-2.3,0.8-2.2,2.4
			c0.1,2.9,0.1,5.8,0,8.8c0,0.7-0.8,1.5-1.2,2.2c-0.4-0.7-1.2-1.4-1.2-2.1c-0.1-2.7-0.1-5.5-0.1-8.2c0-0.9-0.1-1.8-0.8-2.8
			c-0.2,0.5-0.6,0.9-0.7,1.4c-0.9,4.8-1.8,9.6-2.8,14.4c-0.2,0.8-1.1,1.4-1.7,2c-0.2-0.8-0.8-1.7-0.7-2.4c0.7-4.5,1.6-9.1,2.4-13.6
			c0.1-0.6,0.1-1.2,0.1-1.8c-0.3-0.1-0.6-0.2-0.8-0.3c-0.6,1.3-1,2.8-1.7,4c-0.4,0.7-1.2,1.1-1.9,1.6c-0.2-0.8-0.6-1.6-0.4-2.4
			c0.2-1.1,0.7-2.1,1.1-3.1c-0.2-0.2-0.4-0.4-0.6-0.7c-0.7,0.6-1.7,1.1-2.2,1.9c-2.7,4.4-5.2,8.9-7.8,13.4c-0.3,0.5-0.5,1.1-0.9,1.4
			c-0.6,0.5-1.3,0.8-2,1.1c0-0.8-0.4-1.8-0.1-2.4c2.4-4.4,4.9-8.7,7.4-13c0.5-0.8,0.9-1.6,1.4-2.6c-1-0.3-1.8-0.5-1.9-0.6
			c-3.2,3.8-6.1,7.4-9.2,10.8c-0.3,0.3-1.1,0.1-1.7,0.2c0.1-0.7-0.1-1.7,0.3-2.2c2.5-3.1,5-6.1,7.6-9.1c-1.7-1.6-2.9-0.7-4.3,0.5
			c-3.3,2.8-6.6,5.6-10,8.3c-0.6,0.4-1.6,0.3-2.4,0.4c0.3-0.8,0.3-1.8,0.9-2.3c3.2-2.9,6.6-5.6,10.1-8.5c-1.9-1.4-3.5-1.6-5.4-0.3
			c-2.1,1.5-4.3,2.7-6.6,3.8c-0.5,0.3-1.4-0.2-2.1-0.3c0.3-0.6,0.5-1.4,1-1.8c2.1-1.4,4.3-2.6,6.8-4.1c-4.5-2.5-8.6-4.9-12.8-7
			c-1-0.5-2.5,0.2-3.8,0.1c-1,0-2-0.4-3-0.6c0.6-0.8,1.2-1.6,1.8-2.4c-5.7-3.5-12.1-5-18.9-5.1c-2,0-4,0.1-5.9-0.1
			c-0.7-0.1-1.4-0.9-2.1-1.3c0.7-0.4,1.4-1.2,2.2-1.2c2.6-0.1,5.3-0.1,7.9,0c4.4,0.1,8.1-1.5,11-4.8c2.5-2.9,4.9-5.9,7.6-9.2
			c-1-0.5-1.9-0.7-2.6-1.2c-0.5-0.3-0.7-1-1-1.5c0.6-0.3,1.5-0.9,1.8-0.7c3.5,2.2,5.4-0.2,7.6-2.3c2.1-2,4.3-3.9,6.7-5.9
			c-2.2-1.9-4.4-3.7-6.4-5.7c-0.6-0.5-0.7-1.5-1-2.3c0.9,0.1,1.9,0,2.6,0.5c1.4,0.9,2.6,2.2,3.9,3.3c3.4,3,3.4,3,7.3,0
			c-0.9-1.2-1.9-2.3-2.7-3.5c-0.3-0.5,0.1-1.3,0.1-1.9c0.6,0.1,1.2,0.2,1.7,0.4c0.4,0.2,0.6,0.7,0.9,1c2.8,3.2,2.7,3,6.5,1.3
			c3.3-1.4,6.8-2.4,10.3-3c3.4-0.6,3.7-0.7,3.1-4c-0.7-3.8-1.4-7.6-1.9-11.4c-0.1-0.7,0.5-1.6,0.8-2.4c0.5,0.6,1.4,1.2,1.6,1.9
			c0.8,3.9,1.5,7.9,2.2,11.9c0.6,3.2,0.7,3.2,4.4,2.3c0-1.4-0.2-2.9,0.1-4.4c0.2-1.2,0.8-2.4,1.2-3.6c0.4,1.2,1.1,2.3,1.3,3.5
			c0.2,1.5,0.1,3,0.1,4.4c3.9,1.3,4.3,1.1,5-2.7c0.8-4.6,1.6-9.3,2.5-13.9c0.2-0.8,1.1-1.4,1.7-2.1c0.3,0.9,0.9,1.8,0.7,2.7
			c-0.7,4.6-1.6,9.1-2.3,13.6c-0.2,1-0.2,2-0.4,3.2c1.7,0.7,3.2,1.6,4.2-0.9c0.2-0.5,1.4-0.6,2.1-0.9L235,196.5z M191.6,210.9
			c-1.4,0.8-2.8,1.7-4.2,2.5c-0.6,0.4-1.4,0.6-1.9,1.1c-6.3,5.9-12.5,11.8-18.7,17.7c0.2,0.2,0.4,0.4,0.5,0.6c1.4-1,2.7-1.9,4.1-2.9
			c0.1,0.2,0.3,0.3,0.4,0.5c-0.6,0.8-1.2,1.5-1.9,2.3c0.2,0.2,0.4,0.4,0.6,0.5c3.9-3.8,8-7.4,11.7-11.3c8.9-9.2,19.2-15.2,32.3-15.8
			c10.6-0.5,21.1-0.1,30.7,5.2c0.3,0.2,0.9,0.6,1,0.5c1.9-2.2,3.3,0.1,4.2,0.9c4.6,4,9.4,7.9,13.2,12.6c1.9,2.2,3.2,5,5.7,6.6
			c1.8,1.2,4.3,1.5,5.8,2.9c1.8,1.7,3.6,1.8,5.8,1.5c-6.6-1.6-10-7-14.3-11.4c-1.4-1.4-2.8-2.8-4.2-4.2
			c-18.2-17.1-39.4-21.1-63-13.7C196.8,207.8,194.3,209.6,191.6,210.9z M203.8,243.9c0.9,0.8,1.8,1.5,2.9,2.4
			c-0.9,0.3-1.2,0.4-1.6,0.5c6.4,4.1,12.9,5.6,20.3,4.2c6.9-1.3,12.9-4.3,16.9-10.5c0.4-0.6,0.7-1.1,1.1-1.7
			c3.9-5.6,5-11.6,2.8-18.1l0,0.1c-0.3-1.2-0.6-2.5-1.2-4.5c-0.2,1.4-0.3,2-0.5,3.2c-1.5-2.4-2.7-4.4-3.6-5.8
			c-1.2,0.3-1.7,0.4-2.3,0.5c2.8,6.1,3.6,10.9,2.3,13.4c-1.8-11.1-4-15-8.8-16.2c1,1.3,2.2,2.8,3.4,4.4c-0.2,0.2-0.5,0.5-0.7,0.7
			c-2.6-2.4-5-5.3-8.5-6.3c-0.2,0.3-0.4,0.5-0.6,0.8c0.6,0.2,1.2,0.4,2.2,0.8c-5.7,2.1-7.5,4.3-7,8c0.4,2.9,3.1,5.6,6,5.2
			c1.8-0.2,3.9-1.1,5.1-2.4c1.2-1.4,1.4-3.6,2.2-5.8c0.8,1.6,1.5,3,2.2,4.4c0.3,0.6,0.5,1.2,0.8,1.8c0,0.7,0.1,1.3,0.1,2
			c0.3,8-4.1,14.4-11.6,16.6c-7.6,2.3-15.6-0.6-19.7-7.2c-3.4-5.6-2.9-11.2-0.1-17.2c-1.6,1.4-3.3,2.9-4.9,4.3
			c0.2-2.4,0.9-4.9,3.2-6.5c2-1.3,4.2-2.3,6.4-3.3c1-0.5,2.2-0.6,3.4-0.9c-3.4-0.8-5.7,1.9-9.1,3.2c0.8-1.2,1.2-1.8,1.8-2.6
			c-2.9,0-3.7,2.2-4.9,3.9c-0.8,1.1-1.7,3.2-2.1,3.1c-2.2-0.6-1.9,1.2-2.2,2.2c-2.1,5.7-1.3,11.2,1.4,16.5
			C200.4,239.4,202.1,241.6,203.8,243.9z M169.5,237.3c14.9,5.8,28.8,15.9,46.1,16c-14.5-2.7-27.7-15.6-22.9-35.7
			c-0.3,0-0.5-0.1-0.8-0.1c-0.4,4.2-0.8,8.4-1.3,12.6c-0.2,0-0.5,0-0.7,0c-0.2-3.3-0.4-6.6-0.6-10.2c-1.7,1.2-3.7,2.2-5,3.7
			c-0.7,0.8-0.4,2.6-0.5,3.9c-2.4-2.1-2.4-2-3.8,1.1c-0.4,0.9-1.1,1.8-1.9,2.4C175.2,233.2,172.3,235.3,169.5,237.3z M225.5,253.4
			c9.5-0.8,18.5-3.1,27.1-7.2c6.4-3.1,12.7-6.2,19-9.2c-0.6-0.3-1.8-0.6-2.6-1.3c-2-1.7-3.8-3.5-5.6-5.4c-0.8-0.9-1.2-2.3-2.1-3
			c-1.6-1.4-3.4-2.5-5-3.6c-0.2,0.8-0.5,1.7-0.8,2.7c-0.2-0.1-0.5-0.1-0.7-0.1c0-1.2,0-2.5,0-3.7c-0.1,0-0.2,0-0.3,0
			c-0.3,1.4-0.6,2.7-0.9,4.1c-0.1,0-0.3-0.1-0.4-0.1c-0.4-2.4-0.9-4.8-1.3-7.1c-0.3,0.1-0.6,0.1-0.9,0.2c0.8,3.6,0.6,7.1-1.1,11
			c-0.3-1.2-0.4-1.7-0.6-2.5C248.6,240.5,239,250.5,225.5,253.4z M174.2,241c32.7,23.3,65.4,18.1,93.7-0.4
			c-4.3,1.9-8.5,3.8-12.8,5.8c-9.9,4.7-20.3,7.8-31.4,8.3c-13.7,0.7-26.4-2.7-38.6-8.6C181.5,244.4,177.9,242.8,174.2,241z
			 M232.5,231.7c0-0.4,0-0.8-0.1-1.2c-1.1-0.6-2.2-1.8-3.1-1.6c-1,0.2-1.7,1.7-2.6,2.6c0.9,0.9,1.9,2.3,2.9,2.4
			C230.5,233.9,231.5,232.5,232.5,231.7z M194.6,220.9c-1.5,4.2-1.1,9,0.6,13.2C195,229.9,194.8,225,194.6,220.9z M256.2,218.9
			c0.1-0.1,0.1-0.2,0.2-0.3c2.3,2.6,4.7,5.1,7,7.6c0,0,0,0,0,0C261,223.8,258.6,221.4,256.2,218.9z M221.5,236.5
			c-1-0.6-1.6-1.2-2.1-1.1c-0.5,0.1-1.2,1-1.2,1.5c0,0.5,0.9,1.2,1.4,1.2C220.2,238,220.7,237.2,221.5,236.5z"/>
	</g>
</g>
<g>
	<g>
		<path class="st0" d="M125.1,237.7c-4.2,0-8.5,0.1-12.7-0.1c-0.8,0-1.6-0.8-2.4-1.2c0.8-0.4,1.6-1.2,2.4-1.3
			c8.4-0.1,16.8-0.2,25.1-0.1c0.9,0,1.7,0.9,2.6,1.4c-0.9,0.4-1.7,1.1-2.6,1.2C133.4,237.7,129.2,237.7,125.1,237.7
			C125.1,237.7,125.1,237.7,125.1,237.7z"/>
	</g>
</g>
<g>
	<g>
		<path class="st0" d="M297.8,235.1c2.7,0,5.4-0.1,8.2,0.1c0.6,0,1.3,0.8,1.9,1.2c-0.6,0.4-1.2,1.2-1.9,1.3
			c-5.5,0.1-11.1,0.1-16.6,0c-0.6,0-1.2-0.9-1.7-1.4c0.6-0.4,1.1-1.1,1.7-1.1C292.1,235,294.9,235.1,297.8,235.1
			C297.8,235.1,297.8,235.1,297.8,235.1z"/>
	</g>
</g>
<g>
	<g>
		<path class="st0" d="M294.2,250.5c-6.8-1.3-13.3-2.4-19.7-3.7c-0.5-0.1-0.9-0.9-1.4-1.4c0.7-0.3,1.4-1,2-0.9
			c3.6,0.5,7.2,1.2,10.8,1.9c2.8,0.5,5.5,1,8.3,1.6c0.5,0.1,0.9,0.9,1.4,1.4C295,249.8,294.5,250.2,294.2,250.5z"/>
	</g>
</g>
<g>
	<g>
		<path class="st0" d="M322.8,235.2c3,0,6-0.1,9,0.1c0.6,0,1.2,0.7,1.7,1c-0.6,0.5-1.1,1.4-1.7,1.4c-6.3,0.1-12.6,0.1-18.9,0
			c-0.6,0-1.1-0.8-1.6-1.2c0.6-0.4,1.2-1.2,1.9-1.2C316.4,235.1,319.6,235.2,322.8,235.2C322.8,235.2,322.8,235.2,322.8,235.2z"/>
	</g>
</g>
<g>
	<g>
		<path class="st0" d="M237.7,280.7c-0.2,0.1-0.9,0.5-1.5,0.4c-0.6-0.1-1.3-0.7-1.5-1.3c-1.3-3.3-2.5-6.7-3.7-10
			c-0.7-2-1.6-4-2.2-6.1c-0.2-0.5,0.4-1.3,0.6-1.9c0.5,0.2,1.3,0.2,1.4,0.5C233,268.1,235.1,273.9,237.7,280.7z"/>
	</g>
</g>
<g>
	<g>
		<path class="st0" d="M234.2,258.9c0.5,0.5,1.1,1,1.4,1.6c2.6,4.4,5.1,8.8,7.6,13.2c0.3,0.6,0,1.6,0,2.4c-0.7-0.4-1.7-0.7-2.1-1.3
			c-2.6-4.3-5.1-8.7-7.6-13.2c-0.4-0.7-0.2-1.7-0.2-2.5C233.5,259,233.9,258.9,234.2,258.9z"/>
	</g>
</g>
<g>
	<g>
		<path class="st0" d="M203.5,283.4c-0.4-1-0.9-1.8-0.8-2.2c1.8-5,3.7-10,5.6-14.9c0.2-0.4,1-0.6,1.5-0.9c0.3,0.5,0.9,1.2,0.7,1.6
			c-1.8,5.1-3.8,10.2-5.7,15.2C204.7,282.5,204.2,282.7,203.5,283.4z"/>
	</g>
</g>
<g>
	<g>
		<path class="st0" d="M207.4,196.3c-0.4,0.5-0.8,1.3-1,1.2c-0.6-0.2-1.5-0.5-1.7-1c-1-2.5-1.8-5.1-2.7-7.7
			c-0.9-2.4-1.8-4.7-2.6-7.1c-0.2-0.6,0.3-1.3,0.4-2c0.6,0.2,1.4,0.3,1.6,0.6C203.5,185.7,205.4,191,207.4,196.3z"/>
	</g>
</g>
<g>
	<g>
		<path class="st0" d="M261,282.3c-0.2,0.3-0.4,0.9-0.7,1c-0.5,0.1-1.2,0.1-1.5-0.2c-3.2-3.7-6.4-7.4-9.5-11.1
			c-0.3-0.4,0-1.2-0.1-1.8c0.6,0,1.4-0.2,1.7,0.1c3.3,3.7,6.5,7.5,9.7,11.3C260.8,281.7,260.8,281.9,261,282.3z"/>
	</g>
</g>
<g>
	<g>
		<path class="st0" d="M182,269.6c-0.4,0.5-0.7,1-1.1,1.4c-2.9,2.4-5.7,4.9-8.6,7.2c-0.5,0.4-1.6,0.2-2.4,0.3
			c0.2-0.7,0.3-1.6,0.8-2.1c2.9-2.6,5.8-5,8.8-7.4c0.4-0.4,1.2-0.5,1.8-0.4C181.4,268.5,181.7,269.2,182,269.6z"/>
	</g>
</g>
<g>
	<g>
		<path class="st0" d="M228.5,276c-0.3,0.3-0.7,0.8-1.1,1.4c-0.5-0.4-1.4-0.8-1.5-1.3c-0.7-3.9-1.4-7.7-1.9-11.6
			c-0.1-0.6,0.7-1.3,1-1.9c0.5,0.5,1.2,0.9,1.3,1.5C227.2,267.8,227.8,271.7,228.5,276z"/>
	</g>
</g>
<g>
	<g>
		<path class="st0" d="M210.3,300.4c-0.8,4.2-1.4,8-2.2,11.7c-0.1,0.5-1,0.8-1.6,1.2c-0.3-0.5-0.9-1.1-0.8-1.6
			c0.6-3.8,1.3-7.6,2.1-11.4c0.1-0.5,0.9-0.9,1.4-1.4C209.6,299.5,210,300,210.3,300.4z"/>
	</g>
</g>
<g>
	<g>
		<path class="st0" d="M195.8,281c-0.2,0.5-0.3,0.9-0.5,1.2c-1.9,3.2-3.7,6.5-5.7,9.7c-0.3,0.5-1.3,0.7-2,1
			c-0.1-0.7-0.4-1.6-0.1-2.2c1.8-3.3,3.7-6.5,5.6-9.7c0.3-0.5,1.1-0.9,1.8-1C195.1,279.9,195.5,280.6,195.8,281z"/>
	</g>
</g>
<g>
	<g>
		<path class="st0" d="M245.6,278.8c0.4,0.5,1,0.9,1.3,1.4c1.9,3.1,3.7,6.3,5.5,9.5c0.3,0.5-0.1,1.5-0.1,2.2c-0.7-0.3-1.6-0.5-2-1
			c-2-3.2-3.9-6.5-5.6-9.8c-0.3-0.6,0.1-1.5,0.1-2.3C245.1,278.8,245.4,278.8,245.6,278.8z"/>
	</g>
</g>
<g>
	<g>
		<path class="st0" d="M191.5,184.9c-0.2,0.2-0.4,0.8-0.8,0.8c-0.5,0.1-1.2-0.1-1.4-0.4c-2.1-3.5-4.2-7-6.2-10.6
			c-0.2-0.4,0.1-1.2,0.5-1.6c0.1-0.2,1.2,0,1.4,0.3c2.2,3.6,4.3,7.2,6.4,10.9C191.5,184.3,191.5,184.5,191.5,184.9z"/>
	</g>
</g>
<g>
	<g>
		<path class="st0" d="M179.5,286.5c-0.4,0.6-0.7,1.2-1.1,1.7c-2.1,2.5-4.2,5.1-6.4,7.5c-0.5,0.6-1.5,0.7-2.3,1
			c0.1-0.8-0.1-1.9,0.3-2.4c2.1-2.7,4.4-5.4,6.7-8c0.4-0.5,1.2-0.7,1.9-0.8C178.8,285.5,179.1,286.1,179.5,286.5z"/>
	</g>
</g>
<g>
	<g>
		<path class="st0" d="M180.1,249.3c0.5,0.3,1.2,0.6,1.2,0.9c0,0.5-0.3,1.4-0.7,1.6c-3.5,1.4-7,2.7-10.5,4c-0.4,0.1-1.2-0.3-1.6-0.7
			c-0.1-0.2,0.2-1.2,0.5-1.3C172.7,252.2,176.4,250.8,180.1,249.3z"/>
	</g>
</g>
<g>
	<g>
		<path class="st0" d="M213.4,282.6c-0.7,3.9-1.3,7.3-2,10.7c-0.1,0.6-1,1-1.6,1.6c-0.3-0.6-0.9-1.3-0.9-1.8
			c0.5-3.4,1.1-6.9,1.9-10.2c0.1-0.6,1-1,1.6-1.6C212.8,281.8,213.2,282.3,213.4,282.6z"/>
	</g>
</g>
<g>
	<g>
		<path class="st0" d="M255,255.3c0.5,0.2,0.9,0.3,1.2,0.4c3.1,1.8,6.2,3.5,9.2,5.4c0.5,0.3,0.7,1.3,1,2c-0.7,0.1-1.6,0.5-2.2,0.2
			c-3.1-1.7-6.2-3.4-9.2-5.3c-0.5-0.3-0.7-1.2-0.9-1.8C254.1,255.9,254.7,255.6,255,255.3z"/>
	</g>
</g>
<g>
	<g>
		<path class="st0" d="M228.6,292.1c0.2-0.3,0.6-0.8,1-1.3c0.5,0.4,1.4,0.7,1.5,1.2c0.8,3.6,1.4,7.1,2,10.8c0.1,0.5-0.5,1-0.8,1.6
			c-0.5-0.4-1.4-0.7-1.5-1.2C229.9,299.6,229.3,296,228.6,292.1z"/>
	</g>
</g>
<g>
	<g>
		<path class="st0" d="M143.9,248.4c0.3,0.3,0.8,0.7,1.3,1.1c-0.5,0.5-0.8,1.3-1.4,1.4c-3.5,0.8-7,1.5-10.5,2
			c-0.5,0.1-1.2-0.6-1.8-0.9c0.5-0.5,0.9-1.3,1.4-1.4C136.4,249.8,139.9,249.1,143.9,248.4z"/>
	</g>
</g>
<g>
	<g>
		<path class="st0" d="M260.5,268.6c0.5,0.3,1,0.5,1.3,0.8c2.5,2.1,5.1,4.2,7.5,6.4c0.5,0.4,0.4,1.4,0.6,2.1c-0.7-0.1-1.7,0-2.2-0.4
			c-2.6-2-5.1-4.1-7.6-6.3c-0.5-0.4-0.6-1.2-0.7-1.9C259.4,269.2,260.1,268.9,260.5,268.6z"/>
	</g>
</g>
<g>
	<g>
		<path class="st0" d="M284.8,226.4c-0.3-0.3-1-0.6-1.2-1.2c-0.1-0.3,0.6-1.2,1.1-1.3c3.4-0.7,6.8-1.3,10.2-1.9
			c0.5-0.1,1,0.6,1.5,0.9c-0.4,0.5-0.8,1.4-1.3,1.5C291.9,225.1,288.6,225.7,284.8,226.4z"/>
	</g>
</g>
<g>
	<g>
		<path class="st0" d="M194.8,309.9c-1.4,3.6-2.6,7-4,10.4c-0.1,0.3-1.2,0.7-1.4,0.5c-0.4-0.3-0.9-1.1-0.7-1.5
			c1.1-3.3,2.3-6.5,3.6-9.8c0.2-0.4,1-0.7,1.5-0.7C194.2,308.8,194.5,309.5,194.8,309.9z"/>
	</g>
</g>
<g>
	<g>
		<path class="st0" d="M195.4,305.3c-0.3-0.9-0.9-1.6-0.8-2.2c1.1-3.3,2.2-6.5,3.5-9.7c0.2-0.4,1-0.8,1.5-0.8c0.2,0,0.9,0.9,0.8,1.2
			c-1.2,3.5-2.5,7-3.8,10.5C196.6,304.6,196.1,304.8,195.4,305.3z"/>
	</g>
</g>
<g>
	<g>
		<path class="st0" d="M251.4,185c-0.7,1.3-1.4,2.4-2,3.5c-1.2,2-2.3,4.1-3.6,6c-0.3,0.4-1.2,0.4-1.8,0.6c-0.1-0.6-0.5-1.3-0.2-1.7
			c1.6-3,3.4-6,5.2-9c0.2-0.4,1.1-0.7,1.6-0.7C250.8,183.8,251.1,184.6,251.4,185z"/>
	</g>
</g>
<g>
	<g>
		<path class="st0" d="M210.1,170.4c-0.2,0.3-0.6,0.8-1,1.2c-0.5-0.4-1.4-0.8-1.5-1.3c-0.7-3.1-1.2-6.2-1.7-9.4
			c-0.1-0.5,0.6-1.1,0.9-1.7c0.5,0.4,1.2,0.7,1.4,1.2C208.9,163.6,209.5,166.8,210.1,170.4z"/>
	</g>
</g>
<g>
	<g>
		<path class="st0" d="M176.1,158.3c0.4,0.5,0.9,0.9,1.3,1.4c1.5,2.5,3,5,4.3,7.5c0.3,0.6,0,1.5,0,2.2c-0.7-0.3-1.7-0.4-2-0.9
			c-1.6-2.6-3.2-5.3-4.6-8c-0.3-0.6,0.1-1.5,0.2-2.3C175.5,158.3,175.8,158.3,176.1,158.3z"/>
	</g>
</g>
<g>
	<g>
		<path class="st0" d="M270.4,296.6c-1.2-1-1.8-1.3-2.2-1.8c-1.8-2.2-3.6-4.4-5.2-6.6c-0.4-0.5-0.2-1.5-0.3-2.2
			c0.7,0.2,1.7,0.1,2.1,0.6c2,2.3,3.8,4.6,5.6,7.1C270.8,294.1,270.4,295.1,270.4,296.6z"/>
	</g>
</g>
<g>
	<g>
		<path class="st0" d="M229.8,177.1c0.6-3.9,1.1-7.1,1.7-10.4c0.1-0.5,0.9-0.9,1.4-1.4c0.3,0.6,1,1.2,0.9,1.7c-0.5,3.4-1,6.7-1.7,10
			c-0.1,0.5-1,0.8-1.5,1.2C230.2,177.8,229.8,177.2,229.8,177.1z"/>
	</g>
</g>
<g>
	<g>
		<path class="st0" d="M252.6,198.7c-0.2-0.7-0.7-1.6-0.5-1.9c2.1-2.7,4.3-5.4,6.6-8c0.2-0.3,1.2-0.3,1.5,0c0.3,0.2,0.5,1.2,0.2,1.4
			c-2.1,2.6-4.2,5.2-6.4,7.8C253.8,198.3,253.4,198.3,252.6,198.7z"/>
	</g>
</g>
<g>
	<g>
		<path class="st0" d="M241.4,178.8c-0.4-0.7-1-1.4-0.8-1.9c1.1-3.2,2.3-6.3,3.6-9.4c0.2-0.4,1-0.6,1.6-0.6c0.2,0,0.7,1,0.6,1.3
			c-1.2,3.2-2.4,6.5-3.7,9.7C242.5,178.2,242.1,178.3,241.4,178.8z"/>
	</g>
</g>
<g>
	<g>
		<path class="st0" d="M247.3,163.5c-0.3-0.9-0.9-1.7-0.7-2.2c0.9-2.9,1.8-5.7,2.9-8.5c0.2-0.4,1-0.8,1.5-0.8c0.2,0,0.9,0.9,0.8,1.2
			c-1,3.1-2.1,6.2-3.2,9.3C248.4,162.8,248,163,247.3,163.5z"/>
	</g>
</g>
<g>
	<g>
		<path class="st0" d="M221.5,300.2c0,1.6,0.1,3.2-0.1,4.8c-0.1,0.5-0.8,1-1.3,1.5c-0.4-0.5-1.1-0.9-1.1-1.4c-0.1-3.3-0.1-6.5,0-9.8
			c0-0.5,0.7-0.9,1.1-1.3c0.4,0.5,1.1,1,1.2,1.5C221.6,297,221.5,298.6,221.5,300.2C221.5,300.2,221.5,300.2,221.5,300.2z"/>
	</g>
</g>
<g>
	<g>
		<path class="st0" d="M194.2,188.7c0.3,0.6,0.6,1.2,0.9,1.7c1.4,2.4,2.9,4.8,4.2,7.3c0.3,0.6-0.1,1.4-0.2,2.2c-0.7-0.3-1.6-0.5-2-1
			c-1.5-2.4-2.9-4.8-4.2-7.3c-0.3-0.6-0.1-1.6-0.1-2.4C193.3,189.1,193.8,188.9,194.2,188.7z"/>
	</g>
</g>
<g>
	<g>
		<path class="st0" d="M179.5,212.5c-0.9,0.2-1.8,0.7-2.2,0.4c-2.6-1.4-5.2-2.9-7.8-4.5c-0.4-0.2-0.5-1.1-0.4-1.6
			c0-0.2,1.1-0.6,1.4-0.5c2.8,1.5,5.5,3.1,8.3,4.7C179,211.3,179.1,211.8,179.5,212.5z"/>
	</g>
</g>
<g>
	<g>
		<path class="st0" d="M165.6,256.6c-1.1,0.9-1.5,1.4-2.1,1.6c-2.6,1-5.2,2-7.9,2.9c-0.5,0.2-1.3-0.3-1.9-0.5
			c0.4-0.6,0.6-1.6,1.2-1.8c2.6-1.1,5.2-2.1,7.9-2.9C163.4,255.8,164.2,256.3,165.6,256.6z"/>
	</g>
</g>
<g>
	<g>
		<path class="st0" d="M152.3,276c-0.2,0.6-0.2,0.9-0.4,1c-2.9,1.7-5.8,3.3-8.7,4.9c-0.2,0.1-1-0.4-1-0.7c-0.1-0.5,0.1-1.2,0.4-1.4
			c2.5-1.6,5.1-3.1,7.7-4.4C150.8,275.1,151.7,275.8,152.3,276z"/>
	</g>
</g>
<g>
	<g>
		<path class="st0" d="M252,319.7c-0.3,0.4-0.6,1.1-1,1.1c-0.5,0-1.4-0.4-1.5-0.8c-1.1-2.6-2-5.2-2.9-7.9c-0.1-0.4,0.3-1.2,0.7-1.5
			c0.1-0.1,1.2,0.2,1.3,0.6C249.8,313.9,250.9,316.7,252,319.7z"/>
	</g>
</g>
<g>
	<g>
		<path class="st0" d="M162.5,271.2c-0.5-0.3-1-0.5-1.2-0.8c-0.2-0.3-0.1-1.1,0.1-1.2c2.7-1.7,5.4-3.3,8.2-4.8
			c0.3-0.1,1,0.3,1.3,0.7c0.2,0.2,0,1-0.2,1.2C168,267.9,165.3,269.5,162.5,271.2z"/>
	</g>
</g>
<g>
	<g>
		<path class="st0" d="M289.6,196.9c-0.5,0.7-0.7,1.1-1,1.3c-2.5,1.5-5,3.1-7.5,4.5c-0.3,0.2-1.4-0.1-1.4-0.3
			c-0.1-0.5,0-1.4,0.3-1.7c2.4-1.6,4.9-3.1,7.5-4.5C287.9,195.9,288.8,196.5,289.6,196.9z"/>
	</g>
</g>
<g>
	<g>
		<path class="st0" d="M305.4,267.3c-1,0.2-1.7,0.6-2.3,0.5c-2.5-0.8-4.9-1.7-7.4-2.7c-0.4-0.2-0.6-1-0.9-1.5
			c0.5-0.2,1.2-0.8,1.6-0.7c2.6,0.8,5.1,1.8,7.6,2.8C304.6,265.8,304.8,266.5,305.4,267.3z"/>
	</g>
</g>
<g>
	<g>
		<path class="st0" d="M242.5,296.1c0.9,1,1.4,1.4,1.6,1.9c0.9,2.2,1.8,4.5,2.4,6.8c0.2,0.6-0.4,1.4-0.7,2.1
			c-0.5-0.4-1.4-0.7-1.6-1.2c-1-2.3-1.8-4.7-2.5-7.1C241.6,298.1,242.1,297.3,242.5,296.1z"/>
	</g>
</g>
<g>
	<g>
		<path class="st0" d="M156.1,223.8c2.8,0.5,5.1,0.9,7.3,1.4c0.6,0.1,1,0.9,1.5,1.3c-0.6,0.4-1.3,1.1-1.9,1
			c-2.3-0.2-4.6-0.6-6.9-1.2c-0.6-0.1-1.1-1-1.6-1.5C155.1,224.4,155.7,224,156.1,223.8z"/>
	</g>
</g>
<g>
	<g>
		<path class="st0" d="M199.4,174.4c-0.2,0.4-0.5,1.2-0.8,1.2c-0.5,0.1-1.4-0.2-1.6-0.6c-1.1-2.5-2-5.1-2.9-7.6
			c-0.1-0.4,0.3-1.2,0.7-1.6c0.2-0.1,1.2,0.2,1.3,0.6C197.3,168.9,198.3,171.6,199.4,174.4z"/>
	</g>
</g>
<g>
	<g>
		<path class="st0" d="M160.3,213.2c2.7,1.1,5.2,2,7.7,3.1c0.3,0.1,0.7,1.2,0.5,1.4c-0.4,0.4-1.1,0.9-1.6,0.7
			c-2.4-0.8-4.8-1.7-7.1-2.7c-0.4-0.2-0.7-1-0.7-1.6C159.1,213.8,159.9,213.5,160.3,213.2z"/>
	</g>
</g>
<g>
	<g>
		<path class="st0" d="M221.5,180.3c0,1.2,0.1,2.4-0.1,3.6c-0.1,0.6-0.8,1-1.2,1.6c-0.4-0.4-1.1-0.9-1.1-1.3c-0.1-2.8-0.1-5.6,0-8.4
			c0-0.4,0.8-1.1,1-1.1c0.5,0.2,1.2,0.7,1.3,1.1C221.5,177.3,221.4,178.8,221.5,180.3C221.4,180.3,221.5,180.3,221.5,180.3z"/>
	</g>
</g>
<g>
	<g>
		<path class="st0" d="M235,196.6c-0.4-0.7-1.2-1.5-1.1-2c0.8-2.5,1.7-4.9,2.8-7.3c0.2-0.4,1-0.5,1.6-0.8c0.2,0.5,0.8,1.2,0.7,1.6
			C237.7,190.9,236.3,193.7,235,196.6C235,196.5,235,196.6,235,196.6z"/>
	</g>
</g>
<g>
	<g>
		<path class="st0" d="M283.5,257.9c2.7,1,5.2,2,7.7,3c0.3,0.1,0.7,1,0.6,1.4c-0.1,0.4-0.9,0.9-1.2,0.8c-2.6-0.9-5.1-1.8-7.7-2.8
			c-0.3-0.1-0.6-1-0.5-1.4C282.4,258.5,283,258.2,283.5,257.9z"/>
	</g>
</g>
<g>
	<g>
		<path class="st0" d="M289.1,212.4c-0.5,0.3-1,0.6-1.5,0.8c-2.1,0.8-4.2,1.6-6.3,2.3c-0.5,0.1-1.1-0.3-1.7-0.5
			c0.3-0.6,0.4-1.5,0.9-1.7c2-0.9,4.2-1.7,6.3-2.4c0.5-0.2,1.3,0.4,2,0.6C288.9,211.8,289,212.1,289.1,212.4z"/>
	</g>
</g>
<g>
	<g>
		<path class="st0" d="M286.7,274.4c-0.9,0.2-1.8,0.7-2.3,0.5c-2.1-1-4.1-2.2-6.1-3.5c-0.4-0.3-0.6-1.1-0.6-1.6c0-0.2,1-0.7,1.3-0.6
			c2.4,1.3,4.7,2.6,7,4C286.2,273.3,286.3,273.6,286.7,274.4z"/>
	</g>
</g>
<g>
	<g>
		<path class="st0" d="M155.8,212.7c-0.7,0.4-1.4,0.9-1.8,0.8c-2.4-0.7-4.7-1.6-7-2.6c-0.3-0.1-0.5-1-0.4-1.4
			c0.1-0.3,0.8-0.7,1.1-0.7c2.5,0.8,4.9,1.7,7.3,2.6C155.2,211.6,155.3,212,155.8,212.7z"/>
	</g>
</g>
<g>
	<g>
		<path class="st0" d="M275.9,190.6c-0.5,0.9-0.6,1.3-0.9,1.5c-1.8,1.5-3.5,3.1-5.4,4.5c-0.4,0.3-1.1,0-1.7,0c0-0.6-0.1-1.4,0.2-1.7
			c1.7-1.6,3.5-3.1,5.4-4.5C273.8,190.1,274.8,190.5,275.9,190.6z"/>
	</g>
</g>
<g>
	<g>
		<path class="st0" d="M160.3,288.3c-0.6-0.5-1.2-0.7-1.3-1c-0.1-0.5,0-1.2,0.3-1.5c1.7-1.6,3.5-3.1,5.3-4.5c0.3-0.3,1.1-0.2,1.5,0
			c0.3,0.1,0.5,1,0.4,1.1C164.6,284.4,162.5,286.3,160.3,288.3z"/>
	</g>
</g>
<g>
	<g>
		<path class="st0" d="M181.9,282.9c-0.2-0.6-0.9-1.6-0.6-1.9c1.5-2,3.1-3.9,4.8-5.8c0.2-0.3,1.1-0.3,1.5-0.1
			c0.3,0.2,0.5,1.2,0.3,1.4c-1.6,2-3.3,4-5,6C182.8,282.7,182.5,282.7,181.9,282.9z"/>
	</g>
</g>
<g>
	<g>
		<path class="st0" d="M222.1,280.7c-0.6,1.5-1.3,2.9-1.9,4.4c-0.4-1.5-0.9-3-1.2-4.5c-0.2-1-0.2-2.1,0-3.1c0.1-0.7,0.8-1.3,1.2-1.9
			c0.4,0.6,1.1,1.2,1.2,1.8c0.2,1,0.1,2,0.1,3.1C221.7,280.6,221.9,280.6,222.1,280.7z"/>
	</g>
</g>
<g>
	<g>
		<path class="st0" d="M275.2,267.9c-0.7,0.2-1.5,0.7-1.9,0.5c-2-1-3.9-2.2-5.8-3.4c-0.3-0.2-0.3-1-0.2-1.5c0.1-0.3,0.9-0.6,1.2-0.4
			c2.1,1.2,4.2,2.4,6.2,3.7C274.9,266.9,274.9,267.2,275.2,267.9z"/>
	</g>
</g>
<g>
	<g>
		<path class="st0" d="M221.4,315.5c0,1,0.1,2.1-0.1,3.1c-0.1,0.5-0.8,0.8-1.1,1.3c-0.4-0.4-1.1-0.8-1.1-1.3c-0.1-2.2-0.1-4.5,0-6.7
			c0-0.5,0.8-0.9,1.2-1.3c0.4,0.4,1.1,0.8,1.1,1.3C221.6,313.1,221.5,314.3,221.4,315.5C221.5,315.5,221.4,315.5,221.4,315.5z"/>
	</g>
</g>
<g>
	<g>
		<path class="st0" d="M278.8,304c-0.4,0.6-0.5,1.1-0.9,1.3c-0.3,0.2-1,0.1-1.3-0.1c-1.6-1.8-3.2-3.7-4.7-5.6c-0.2-0.2,0-1,0.3-1.2
			c0.3-0.2,1-0.4,1.2-0.2C275.3,300.1,277,302,278.8,304z"/>
	</g>
</g>
<g>
	<g>
		<path class="st0" d="M150.3,195.6c-0.9,0.2-1.7,0.8-2.2,0.5c-1.8-0.9-3.6-1.9-5.3-3.1c-0.4-0.2-0.5-1.1-0.5-1.6
			c0-0.2,1-0.7,1.3-0.5c2,1,3.9,2.2,5.8,3.3C149.8,194.4,149.9,194.9,150.3,195.6z"/>
	</g>
</g>
<g>
	<g>
		<path class="st0" d="M176.6,183.8c1.1,0.6,1.6,0.8,1.9,1.1c1.3,1.5,2.6,2.9,3.7,4.5c0.3,0.4,0.1,1.3,0.1,2
			c-0.6-0.1-1.5-0.1-1.9-0.4c-1.4-1.4-2.6-2.9-3.7-4.5C176.3,185.9,176.6,185,176.6,183.8z"/>
	</g>
</g>
<g>
	<g>
		<path class="st0" d="M238,284.4c0.6,0.5,1.1,0.7,1.3,1c0.8,1.9,1.6,3.8,2.2,5.7c0.1,0.4-0.4,1.2-0.8,1.5c-0.2,0.2-1.2-0.2-1.3-0.6
			c-0.9-2-1.6-4-2.3-6C237,285.7,237.6,285.1,238,284.4z"/>
	</g>
</g>
<g>
	<g>
		<path class="st0" d="M251.1,264c-2-1.7-3.9-3.3-5.7-4.9c-0.1-0.1,0.1-1,0.3-1.2c0.4-0.2,1.1-0.3,1.5-0.1c1.7,1.2,3.3,2.4,4.9,3.8
			c0.3,0.3,0.4,1,0.3,1.5C252.3,263.4,251.7,263.6,251.1,264z"/>
	</g>
</g>
<g>
	<g>
		<path class="st0" d="M268.2,198.2c-2.9,2.1-5.1,3.6-7.2,5.2c-0.2-0.6-0.9-1.7-0.7-1.8c1.6-1.6,3.3-3,5.1-4.3
			C265.8,196.9,266.7,197.6,268.2,198.2z"/>
	</g>
</g>
<g>
	<g>
		<path class="st0" d="M255.9,175.9c-0.3-0.7-1-1.5-0.8-1.8c0.9-1.9,2-3.8,3.2-5.6c0.2-0.3,1.1-0.4,1.5-0.2c0.3,0.2,0.7,1.1,0.5,1.4
			c-0.9,1.8-2,3.6-3.1,5.3C256.9,175.3,256.5,175.4,255.9,175.9z"/>
	</g>
</g>
<g>
	<g>
		<path class="st0" d="M269.2,180.3c-1.9,2-3.6,3.8-5.4,5.6c-0.1,0.1-1-0.2-1.1-0.5c-0.1-0.4-0.1-1.2,0.1-1.5
			c1.2-1.6,2.5-3.1,3.8-4.5c0.3-0.3,1-0.5,1.5-0.4C268.3,179.1,268.6,179.7,269.2,180.3z"/>
	</g>
</g>
<g>
	<g>
		<path class="st0" d="M278.1,282.9c-1.1,0.8-1.9,1.4-2,1.3c-1.9-1.4-3.8-3-5.5-4.5c-0.1-0.1,0.5-0.9,0.8-1.4
			C273.5,279.7,275.6,281.1,278.1,282.9z"/>
	</g>
</g>
<g>
	<g>
		<path class="st0" d="M254.1,294.2c0.9,0.7,1.5,1,1.8,1.4c1,1.5,1.9,3,2.7,4.6c0.2,0.5-0.1,1.3-0.2,2c-0.6-0.2-1.5-0.3-1.8-0.7
			c-1.1-1.5-2-3.2-2.8-4.9C253.4,296.1,253.9,295.3,254.1,294.2z"/>
	</g>
</g>
<g>
	<g>
		<path class="st0" d="M168.1,206.1c-0.6,0.2-1.4,0.7-1.8,0.5c-1.9-1-3.8-2.1-5.6-3.2c-0.3-0.2-0.4-1-0.2-1.5
			c0.1-0.3,0.9-0.6,1.2-0.5c2,1.1,4,2.3,6,3.5C167.9,205.1,167.9,205.4,168.1,206.1z"/>
	</g>
</g>
<g>
	<g>
		<path class="st0" d="M272.6,253.9c2,0.8,4,1.5,5.9,2.3c0.3,0.1,0.7,1.2,0.5,1.3c-0.4,0.4-1.1,0.8-1.6,0.7
			c-1.8-0.5-3.6-1.1-5.3-1.9c-0.4-0.2-0.8-1-0.7-1.5C271.4,254.6,272.1,254.3,272.6,253.9z"/>
	</g>
</g>
<g>
	<g>
		<path class="st0" d="M208.1,174.1c0.3-0.4,0.7-0.9,1.1-1.4c0.5,0.4,1.3,0.8,1.5,1.3c0.5,1.6,0.8,3.3,0.9,5c0.1,0.5-0.6,1-0.9,1.5
			c-0.5-0.3-1.3-0.6-1.4-1C208.8,177.8,208.6,176.1,208.1,174.1z"/>
	</g>
</g>
<g>
	<g>
		<path class="st0" d="M222.1,166.4c-0.7,1.5-1.4,2.8-2,4.1c-0.4-1.4-1.1-2.8-1-4.2c0-1.4-1.1-3.6,1.4-4.1
			C220.7,162.2,221.5,164.8,222.1,166.4z"/>
	</g>
</g>
<g>
	<g>
		<path class="st0" d="M278.9,168.8c-1.7,1.8-3.4,3.5-5.1,5.3c-0.4-0.6-1.2-1.6-1-1.8c1.1-1.6,2.4-3.1,3.8-4.5
			c0.3-0.3,1.4,0.1,2.1,0.1C278.7,168.1,278.8,168.4,278.9,168.8z"/>
	</g>
</g>
<g>
	<g>
		<path class="st0" d="M171.5,176.1c1.9,2.8,3.4,4.9,4.8,7c-0.6,0.3-1.5,0.9-1.7,0.7c-1.5-1.6-2.9-3.4-4.2-5.2
			C170.2,178.4,170.9,177.6,171.5,176.1z"/>
	</g>
</g>
<g>
	<g>
		<path class="st0" d="M222.2,157.1c-0.7,1.4-1.3,2.6-2,3.9c-0.4-1.3-1.1-2.6-1.1-3.9c0-1.4-1.1-3.6,1.3-4.1
			C220.7,152.9,221.5,155.4,222.2,157.1z"/>
	</g>
</g>
<g>
	<g>
		<path class="st0" d="M207,318.9c-0.3,2-0.5,3.4-0.9,4.7c-0.2,0.5-1,0.9-1.5,1.3c-0.3-0.6-0.9-1.2-0.9-1.8c0.1-1.4,0.3-2.8,0.7-4.1
			c0.2-0.7,0.9-1.2,1.4-1.8C206.3,317.9,206.7,318.6,207,318.9z"/>
	</g>
</g>
<g>
	<g>
		<path class="st0" d="M150.6,262c-0.7,0.8-1,1.3-1.4,1.5c-1.3,0.6-2.6,1.1-3.9,1.4c-0.5,0.1-1.2-0.4-1.8-0.7
			c0.3-0.5,0.5-1.3,0.9-1.5c1.3-0.6,2.7-1.2,4.2-1.5C149,261.2,149.7,261.7,150.6,262z"/>
	</g>
</g>
<g>
	<g>
		<path class="st0" d="M178.8,261.1c-1.4,1.1-2,1.9-2.9,2.2c-1.4,0.5-2.5,2.7-4.4,1c1-1,2-2.1,3-3.1c0.5-0.4,1.1-0.8,1.7-0.9
			C176.8,260.3,177.4,260.7,178.8,261.1z"/>
	</g>
</g>
<g>
	<g>
		<path class="st0" d="M284.4,184.2c-2.1,1.6-3.7,2.8-5.4,4c-0.4-0.5-1.1-1.4-1-1.5c1.4-1.3,2.8-2.6,4.4-3.8
			C282.5,182.9,283.3,183.5,284.4,184.2z"/>
	</g>
</g>
<g>
	<g>
		<path class="st0" d="M168.1,300.7c-2,2-3.5,3.4-4.9,4.8c-0.4-0.6-1.2-1.5-1.1-1.7c0.9-1.4,2.1-2.7,3.3-3.8
			C165.7,299.8,166.7,300.3,168.1,300.7z"/>
	</g>
</g>
<g>
	<g>
		<path class="st0" d="M160.2,200.9c-0.9,0.6-1.5,1.2-1.7,1.1c-1.7-0.9-3.4-1.8-5-2.9c-0.2-0.1,0.1-1,0.2-1.5
			c1.2,0.3,2.4,0.5,3.5,1.1C158.2,199.2,159.1,200,160.2,200.9z"/>
	</g>
</g>
<g>
	<g>
		<path class="st0" d="M235.5,313.5c-0.5,0.8-1,1.4-1.4,2c-0.5-0.6-1.3-1.1-1.4-1.7c-0.2-1.6-0.1-3.2-0.1-4.8c0,0,0.9-0.2,1-0.1
			C234.2,310.4,234.8,311.9,235.5,313.5z"/>
	</g>
</g>
<g>
	<g>
		<path class="st0" d="M174.4,199.8c-2.1-2-3.6-3.5-5.1-4.9c0.5-0.4,1.4-1.3,1.5-1.2c1.5,1.1,3,2.2,4.3,3.5
			C175.3,197.4,174.8,198.4,174.4,199.8z"/>
	</g>
</g>
<g>
	<g>
		<path class="st0" d="M151.2,250.2c-0.9-0.7-1.4-1.2-2-1.6c1.5-0.6,3-1.4,4.6-1.9c0.5-0.1,1.2,0.7,1.9,1
			C154.2,248.5,152.8,249.3,151.2,250.2z"/>
	</g>
</g>
<g>
	<g>
		<path class="st0" d="M194,271.4c-1.5,1-2.9,2.1-4.4,2.9c-0.2,0.1-0.9-0.6-1.4-0.9c1.2-1.4,2.4-2.9,3.7-4.2c0.1,0,0.9,0.6,1.3,1
			C193.5,270.5,193.7,270.9,194,271.4z"/>
	</g>
</g>
<g>
	<g>
		<path class="st0" d="M164.5,189.2c-0.7,0.2-1.5,0.7-1.9,0.4c-1.2-0.8-2.4-1.8-3.4-2.9c-0.2-0.2,0.4-1.2,0.7-1.8
			c1.6,1.1,3.2,2.2,4.9,3.4C164.7,188.6,164.6,188.9,164.5,189.2z"/>
	</g>
</g>
<g>
	<g>
		<path class="st0" d="M151.2,226.1c-1.4-0.9-2.6-1.6-3.7-2.3c0.6-0.4,1.4-1.1,1.9-1c1.4,0.4,2.7,1.1,4.1,1.7
			C152.8,224.9,152.1,225.4,151.2,226.1z"/>
	</g>
</g>
<g>
	<g>
		<path class="st0" d="M184.6,295.4c0.9,1.1,1.6,1.8,1.5,1.9c-1,1.6-2.1,3.1-3.2,4.7c-0.4-0.4-1.1-0.9-1.1-1
			C182.6,299.3,183.5,297.6,184.6,295.4z"/>
	</g>
</g>
<g>
	<g>
		<path class="st0" d="M178.8,308.9c-0.2-0.5-0.8-1.1-0.6-1.4c0.8-1.6,1.8-3.1,2.8-4.7c0-0.1,1.3,0.6,1.3,0.6
			c-0.7,1.8-1.5,3.5-2.2,5.3C179.6,308.8,179.2,308.9,178.8,308.9z"/>
	</g>
</g>
<g>
	<g>
		<path class="st0" d="M157.1,181.5c-1.1,0.8-1.7,1.4-1.9,1.4c-1.5-1-2.9-2.2-4.2-3.4c-0.1-0.1,0.7-1.2,0.8-1.2
			C153.5,179.2,155.1,180.2,157.1,181.5z"/>
	</g>
</g>
<g>
	<g>
		<path class="st0" d="M300.4,248.5c1.5,0.9,2.7,1.7,3.9,2.5c-0.7,0.3-1.4,1.1-2,0.9c-1.3-0.4-2.5-1.1-3.7-1.7
			C299.1,249.7,299.6,249.2,300.4,248.5z"/>
	</g>
</g>
<g>
	<g>
		<path class="st0" d="M135,223.1c-1.2-0.8-2.3-1.4-3.4-2.1c0.7-0.4,1.5-1.3,2.1-1.1c1.3,0.4,2.6,1.2,3.8,1.8
			C136.7,222.1,136,222.6,135,223.1z"/>
	</g>
</g>
<g>
	<g>
		<path class="st0" d="M161.4,248.3c-0.8-0.8-1.3-1.3-1.8-1.9c1.2-0.5,2.4-1.2,3.6-1.5c0.5-0.1,1.3,0.6,1.9,1
			C164.1,246.7,162.9,247.4,161.4,248.3z"/>
	</g>
</g>
<g>
	<g>
		<path class="st0" d="M160.8,271.6c-0.9,0.7-1.7,1.5-2.6,2c-0.8,0.4-1.7,0.5-2.6,0.6c-0.1,0-0.5-0.9-0.4-0.9c1.5-1,3.1-1.9,4.7-2.8
			C159.9,270.5,160.3,271.1,160.8,271.6z"/>
	</g>
</g>
<g>
	<g>
		<path class="st0" d="M280.4,284.8c1.3,1.5,2.4,2.7,3.4,3.9c0,0-0.9,1-1,1c-1.3-1-2.5-2-3.7-3.1
			C279.1,286.6,279.7,285.8,280.4,284.8z"/>
	</g>
</g>
<g>
	<g>
		<path class="st0" d="M200.9,289.3c-0.2-0.6-0.7-1.3-0.5-1.8c0.6-1.3,1.4-2.4,2.1-3.6c0.4,0.5,1.2,1.1,1.1,1.5
			c-0.4,1.4-1.1,2.7-1.7,4.1C201.6,289.4,201.2,289.3,200.9,289.3z"/>
	</g>
</g>
<g>
	<g>
		<path class="st0" d="M142,224.4c-1.4-0.9-2.5-1.5-3.6-2.2c0.6-0.4,1.4-1.2,1.8-1.1c1.2,0.3,2.4,1.1,3.6,1.6
			C143.3,223.2,142.8,223.6,142,224.4z"/>
	</g>
</g>
<g>
	<g>
		<path class="st0" d="M218.4,323.3c0.7-1.1,1.3-1.9,1.8-2.7c0.4,1,1.1,2,1.1,3c0,0.9-0.8,1.8-1.2,2.7
			C219.7,325.4,219.1,324.5,218.4,323.3z"/>
	</g>
</g>
<g>
	<g>
		<path class="st0" d="M230.6,284.6c-0.8,0.9-1.3,1.5-1.8,2.1c-0.5-1.2-1.2-2.4-1.5-3.6c-0.1-0.5,0.7-1.2,1.1-1.8
			C229.1,282.2,229.7,283.3,230.6,284.6z"/>
	</g>
</g>
<g>
	<g>
		<path class="st0" d="M201.1,140c0.9-0.8,1.5-1.3,2.1-1.8c0.6,1.4,1.4,2.8,1.8,4.3c0.1,0.4-0.8,1.1-1.3,1.7
			C202.9,142.9,202.1,141.6,201.1,140z"/>
	</g>
</g>
<g>
	<g>
		<path class="st0" d="M276.8,228.3c-0.9-0.8-1.4-1.3-1.9-1.8c1.2-0.5,2.3-1.2,3.5-1.5c0.4-0.1,1.1,0.6,1.7,1
			C279,226.7,278,227.4,276.8,228.3z"/>
	</g>
</g>
<g>
	<g>
		<path class="st0" d="M187.4,199.5c-1.1-1.5-1.9-2.7-2.6-3.9c-0.1-0.1,1.2-1,1.2-1c1,1,1.9,2.1,2.7,3.2
			C188.8,198,188.1,198.7,187.4,199.5z"/>
	</g>
</g>
<g>
	<g>
		<path class="st0" d="M262.6,306.5c-0.8,0.6-1.2,1-1.6,1.4c-0.9-1.1-1.8-2.2-2.6-3.4c-0.1-0.1,0.7-0.9,1-1.3
			C260.4,304.1,261.4,305.2,262.6,306.5z"/>
	</g>
</g>
<g>
	<g>
		<path class="st0" d="M294.7,210.3c-1.2,0.5-2.4,1.1-3.6,1.4c-0.4,0.1-1-0.7-1.5-1.1c1.1-0.6,2.1-1.4,3.2-1.9
			c0.4-0.2,1.2,0.4,1.8,0.6C294.6,209.7,294.6,210,294.7,210.3z"/>
	</g>
</g>
<g>
	<g>
		<path class="st0" d="M288.5,274c1.3,1.2,2.3,2.2,3.3,3.1c-0.5,0.4-1.1,1.1-1.3,1c-1.1-0.7-2.2-1.5-3.2-2.4
			C287.3,275.7,287.9,274.9,288.5,274z"/>
	</g>
</g>
<g>
	<g>
		<path class="st0" d="M254.1,262.6c1.2,1.5,2.1,2.6,2.9,3.7c0,0-1.1,1-1.2,1c-1-0.9-2-1.8-2.8-2.8
			C252.8,264.3,253.5,263.6,254.1,262.6z"/>
	</g>
</g>
<g>
	<g>
		<path class="st0" d="M251.9,183.8c-0.7-1.1-1.4-1.8-1.2-2.1c0.6-1.1,1.4-2.1,2.1-3.1c0.4,0.4,1.3,0.9,1.3,1.1
			C253.6,181,252.9,182.1,251.9,183.8z"/>
	</g>
</g>
<g>
	<g>
		<path class="st0" d="M263.8,164.3c-1.1,1.1-2.1,2.1-3,3c-0.4-0.4-1.1-1.1-1-1.3c0.7-1.1,1.6-2.1,2.4-3.1
			C262.6,163.2,263,163.6,263.8,164.3z"/>
	</g>
</g>
<g>
	<g>
		<path class="st0" d="M166.2,189.4c1.1,1.2,1.9,2.1,2.7,3.1c0.1,0.1-1.1,1.2-1.1,1.1c-1-0.8-2-1.6-2.8-2.5
			C164.9,191.1,165.6,190.2,166.2,189.4z"/>
	</g>
</g>
<g>
	<g>
		<path class="st0" d="M273.2,175.5c-1.3,1.2-2.3,2.1-3.3,2.9c0,0-1.1-1.1-1.1-1.1c0.7-1,1.5-1.9,2.5-2.8
			C271.4,174.3,272.2,174.9,273.2,175.5z"/>
	</g>
</g>
<g>
	<g>
		<path class="st0" d="M167.8,171.9c1,1.5,1.8,2.6,2.4,3.8c0,0.1-1.2,1-1.2,0.9c-0.9-0.9-1.7-1.8-2.4-2.9
			C166.4,173.6,167.1,172.9,167.8,171.9z"/>
	</g>
</g>
<g>
	<g>
		<path class="st0" d="M195.6,163.3c-0.8,0.7-1.2,1.1-1.6,1.5c-0.7-1-1.4-1.9-2-3c-0.1-0.2,0.7-0.9,1-1.3
			C193.8,161.3,194.6,162.2,195.6,163.3z"/>
	</g>
</g>
<g>
	<g>
		<path class="st0" d="M302.4,207.3c-0.8,0.4-1.6,1.1-2.4,1.2c-0.5,0.1-1.2-0.5-1.8-0.8c0.8-0.6,1.5-1.4,2.3-1.8
			c0.4-0.2,1.2,0.4,1.8,0.6C302.3,206.7,302.3,207,302.4,207.3z"/>
	</g>
</g>
<g>
	<g>
		<path class="st0" d="M159.6,288.9c-1.4,1-2.3,1.6-3.3,2.2c-0.1,0.1-1.1-1.1-1-1.2c0.7-0.8,1.5-1.6,2.4-2.1
			C157.8,287.6,158.5,288.2,159.6,288.9z"/>
	</g>
</g>
<g>
	<g>
		<path class="st0" d="M296.8,193.3c-1.2,0.8-2,1.5-2.9,1.8c-0.3,0.1-0.9-0.6-1.4-0.9c0.8-0.7,1.5-1.5,2.4-2
			C295.1,192,295.8,192.7,296.8,193.3z"/>
	</g>
</g>
<g>
	<g>
		<path class="st0" d="M241.6,184.6c-0.9,0.4-1.8,1-2.7,1.2c-0.3,0.1-1.2-1.1-1.1-1.4c0.3-0.8,1.1-1.5,1.6-2.3
			c0.5,0.4,0.9,0.8,1.4,1.2C241.1,183.7,241.4,184.1,241.6,184.6z"/>
	</g>
</g>
<g>
	<g>
		<path class="st0" d="M233.9,160.5c0.3,0.6,0.9,1.2,0.7,1.7c-0.2,0.8-0.9,1.6-1.4,2.4c-0.4-0.5-1.2-1-1.1-1.5
			c0.1-0.9,0.6-1.7,0.9-2.5C233.3,160.5,233.6,160.5,233.9,160.5z"/>
	</g>
</g>
<g>
	<g>
		<path class="st0" d="M222.1,288c-0.8,0.9-1.3,1.4-1.8,2c-0.4-0.7-1.1-1.4-1.1-2.1s0.8-1.4,1.2-2.1
			C220.8,286.5,221.3,287.1,222.1,288z"/>
	</g>
</g>
<g>
	<g>
		<path class="st0" d="M208,156.7c-0.7,0.7-1.2,1.1-1.6,1.5c-0.5-0.7-1.3-1.3-1.4-2.1c-0.1-0.5,0.8-1.2,1.2-1.8
			C206.7,155,207.2,155.7,208,156.7z"/>
	</g>
</g>
<g>
	<g>
		<path class="st0" d="M191.6,210.9c2.2-0.9,4.4-1.9,6.6-2.8c0.2,0.3,0.4,0.6,0.6,0.9c-9.5,3.6-16.6,10.3-23.2,17.7
			c-0.3-0.3-0.5-0.6-0.8-0.9c4.2-4.2,8.4-8.4,12.6-12.5C188.9,212.6,190.2,211.8,191.6,210.9z"/>
	</g>
</g>
<g>
	<g>
		<path class="st0" d="M242.3,240.5c-2.1,1.9-4.3,3.8-6.4,5.7c-0.1-0.1-0.2-0.2-0.3-0.4c2.9-3.6,5.8-7.2,8.7-10.8
			c0.1,0,0.3,0.1,0.4,0.1c-0.4,1.2-0.9,2.5-1.3,3.7C243,239.4,242.6,240,242.3,240.5z"/>
	</g>
</g>
<g>
	<g>
		<path class="st0" d="M236.4,221.2c0.1-0.4,0.2-0.9,0.3-1.4c3.1,2.7,3.5,8.3,1.3,12.1c-0.3-2.6-0.6-5.8-0.9-8.9
			C236.9,222.4,236.6,221.8,236.4,221.2z"/>
	</g>
</g>
<g>
	<g>
		<path class="st0" d="M198.7,237.1c-0.1-0.9-0.3-1.8-0.4-2.6c0.2-0.1,0.3-0.2,0.5-0.2c1.9,3,3.9,6,5.7,9c0,0-0.4,0.4-0.7,0.6
			C202.1,241.6,200.4,239.4,198.7,237.1z"/>
	</g>
</g>
<g>
	<g>
		<path class="st0" d="M240,237.8c3.5-7.3,3.6-14.7,0.2-22.2C245.6,219.2,245.4,232.2,240,237.8z"/>
	</g>
</g>
<g>
	<g>
		<path class="st0" d="M203.5,220.9c-1.2,5-0.9,9.3,1.4,13.4C201.1,232,200.1,224.5,203.5,220.9z"/>
	</g>
</g>
<g>
	<g>
		<path class="st0" d="M246.2,220.8c0,3.5,0,6.9,0,10.4c-0.3,0-0.6,0-0.9,0c-0.2-3.7-0.4-7.5-0.6-11.6
			C245.3,220.1,245.8,220.5,246.2,220.8C246.2,220.9,246.2,220.8,246.2,220.8z"/>
	</g>
</g>
<g>
	<g>
		<path class="st0" d="M198.6,221.8c-0.2,2.6-0.4,5.2-0.6,7.9c-0.3,0-0.7-0.1-1-0.1c0.2-2.6,0.3-5.2,0.5-7.9
			C197.8,221.7,198.2,221.8,198.6,221.8z"/>
	</g>
</g>
<g>
	<g>
		<path class="st0" d="M187.4,228.1c0-2.2,0-4.4,0-6.5c0.3,0,0.5,0,0.8,0c0,2.2,0,4.4,0,6.5C187.9,228,187.6,228,187.4,228.1z"/>
	</g>
</g>
<g>
	<g>
		<path class="st0" d="M220.8,360c-69.2,0-125.6-56.3-125.6-125.6s56.3-125.6,125.6-125.6s125.6,56.3,125.6,125.6
			C346.3,303.7,290,360,220.8,360z M220.8,110.9c-68.1,0-123.6,55.4-123.6,123.6S152.6,358,220.8,358s123.6-55.4,123.6-123.6
			S288.9,110.9,220.8,110.9z"/>
	</g>
</g>
<g>
	<g>
		<path class="st0" d="M220.8,373.7c-76.8,0-139.3-62.5-139.3-139.3S144,95.2,220.8,95.2S360,157.6,360,234.4
			S297.6,373.7,220.8,373.7z M220.8,97.4c-75.6,0-137.1,61.5-137.1,137.1s61.5,137,137.1,137S357.8,310,357.8,234.4
			C357.8,158.9,296.3,97.4,220.8,97.4z"/>
	</g>
</g>
<g>
	<path class="st0" d="M26.5,212.1l0.5-6l0.9,0.1l29.1,5l-0.5,6.5l-14.6,2.9l14,5.3l-0.5,6.1l-29.5,0.3l-0.9-0.1l0.5-6.2l21.6,0.8
		l-13.1-4.6l0.4-4.9l13.6-2.6L26.5,212.1z"/>
	<path class="st0" d="M28.6,197.7l4.8-19.6l5.4,1.3l-3.3,13.4l6.6,1.6l2.8-11.6l5.1,1.2l-2.8,11.6l7,1.7l3.3-13.5l5.4,1.3L58,204.9
		L28.6,197.7z"/>
	<path class="st0" d="M36.9,167.4l2.6-6.1l22.8,9.6l5.5-13l5.1,2.2l-8.1,19.1L36.9,167.4z"/>
	<path class="st0" d="M56,128.2c1.8-2.8,4.2-5.1,6.2-6.3l5.4,3.4l-0.5,0.8c-1.9,0.8-4.2,2.5-5.6,4.6c-2.8,4.5-1.5,9.1,3.8,12.4
		c5.2,3.2,10.1,2.9,12.8-1.3c1.1-1.7,1.7-4,1.6-6.3l0.5-0.8l5.8,1.2c-0.1,3.7-1.8,7.3-3.2,9.5c-5,7.9-13.2,8.3-20.9,3.4
		C54,143.8,51,136.1,56,128.2z"/>
	<path class="st0" d="M97.5,125.8c-5.6,6.3-13.2,4.5-20-1.5s-9.4-13.2-3.8-19.5s13-4.7,19.8,1.3S103.1,119.5,97.5,125.8z
		 M77.8,108.5c-2.8,3.2-0.1,7.2,4.1,10.9s8.5,6.2,11.5,2.8c3-3.4-0.1-7.4-4.3-11.1S80.6,105.2,77.8,108.5z"/>
	<path class="st0" d="M87.9,90.7l5.4-4.5l12.5,8.1l-5.6-13.8l5.3-4.4l19.2,23.4l-4.4,3.6l-10.2-12.3l-3.3-4.7l-0.1,0.1L111,97
		l-3.6,3l-9.9-6.1L97.4,94l3.5,3.6l10.6,12.9l-4.4,3.6L87.9,90.7z"/>
	<path class="st0" d="M114,70.5l17.4-10.1l2.8,4.8l-11.9,6.9l3.4,5.9l10.3-6l2.6,4.5l-10.3,6l3.6,6.2l12-7l2.8,4.8l-17.5,10.2
		L114,70.5z"/>
	<path class="st0" d="M185.5,48.4l4.9,23.7l-6.3,1.3l-4.9-23.7l-8.8,1.8l-1.2-5.9l23.9-4.9l1.2,5.9L185.5,48.4z"/>
	<path class="st0" d="M213.6,70.3c-8.4,0.4-12.4-6.4-12.8-15.5c-0.4-9.1,3-15.9,11.4-16.2c8.4-0.4,12.4,6.1,12.8,15.2
		C225.4,62.9,222,70,213.6,70.3z M212.5,44c-4.3,0.2-5.3,4.9-5,10.5c0.2,5.6,1.4,10.5,5.9,10.3c4.6-0.2,5.3-5.2,5-10.7
		C218.1,48.5,216.7,43.9,212.5,44z"/>
	<path class="st0" d="M264.9,43.8l19.4,5.5l-1.5,5.3l-13.2-3.8l-1.9,6.6l11.4,3.3l-1.4,5l-11.4-3.3l-2,6.9l13.4,3.8l-1.5,5.3
		l-19.5-5.6L264.9,43.8z"/>
	<path class="st0" d="M298.8,75.9l-4.9,10.5l-5.8-2.7l4.9-10.5L292,52.9l0.4-0.8l6.2,2.9l-0.1,14.4l11.3-9.1l5.8,2.7l-0.4,0.8
		L298.8,75.9z"/>
	<path class="st0" d="M323,67.6L339.6,79l-3.1,4.6l-11.4-7.8l-3.9,5.6l9.8,6.7l-3,4.3l-9.8-6.7l-4,5.9l11.5,7.9l-3.1,4.6l-16.7-11.5
		L323,67.6z"/>
	<path class="st0" d="M378.3,117.8c2,2.7,3.3,5.8,3.7,8l-5.1,3.9l-0.6-0.7c-0.1-2.1-0.8-4.8-2.4-6.9c-3.2-4.2-8-4.6-13-0.8
		c-4.9,3.7-6.2,8.5-3.2,12.4c1.2,1.6,3.2,3,5.4,3.7l0.6,0.7l-3.2,5c-3.4-1.4-6.2-4.3-7.8-6.3c-5.6-7.4-3.1-15.2,4.1-20.7
		C364.4,110.4,372.7,110.3,378.3,117.8z"/>
	<path class="st0" d="M391.6,139.6l3.8,7.2l-22,21.2l-0.8,0.4l-3.2-6l5.8-5.1l-4.2-7.8l-7.5,1.8l-2.9-5.5l0.8-0.4L391.6,139.6z
		 M376.1,148.3l3,5.7l10-8.7L376.1,148.3z"/>
	<path class="st0" d="M387.7,176.7l-1-3l-10.8,3.7l-2.1-6.2l28.6-9.7l3.3,9.8c2.4,7-0.4,11.6-5.6,13.4c-4.1,1.4-7.4,0.2-9.7-2.6
		l-8.5,10.4l-0.8,0.3l-2.2-6.5L387.7,176.7z M399.3,169.5l-8.2,2.8l1.2,3.6c0.9,2.6,3.3,3.4,5.6,2.6c2.2-0.7,3.5-2.8,2.7-5.3
		L399.3,169.5z"/>
	<path class="st0" d="M411.9,192.5l3.3,19.9l-5.4,0.9l-2.3-13.6l-6.7,1.1l1.9,11.7l-5.2,0.9l-1.9-11.7l-7.1,1.2l2.3,13.7l-5.4,0.9
		l-3.3-20L411.9,192.5z"/>
</g>
</svg>
