<?xml version="1.0" encoding="utf-8"?>
<!-- Generator: Adobe Illustrator 27.9.2, SVG Export Plug-In . SVG Version: 6.00 Build 0)  -->
<svg version="1.1" id="Layer_1" xmlns="http://www.w3.org/2000/svg" xmlns:xlink="http://www.w3.org/1999/xlink" x="0px" y="0px"
	 viewBox="0 0 250 250" style="enable-background:new 0 0 250 250;" xml:space="preserve">
<style type="text/css">
	.st0{fill:#FF4D00;stroke:#FF4D00;stroke-miterlimit:10;}
</style>
<g>
	<path class="st0" d="M137.55,91.6c0,0.89,0,1.77,0,2.78c1.19,0.32,2.35,0.64,3.68,1c0.67-1.09,1.24-2.18,1.99-3.13
		c0.33-0.41,1.03-0.53,1.57-0.78c0.08,0.63,0.36,1.32,0.2,1.88c-0.25,0.84-0.82,1.59-1.24,2.37c2.84,2.18,3.19,2.13,5.4-0.11
		c0.47-0.47,1.31-0.58,1.98-0.86c-0.08,0.72-0.04,1.48-0.28,2.14c-0.22,0.58-0.76,1.05-1.28,1.72c1.76,1.21,3.16,3.3,5.55,0.97
		c0.25-0.24,1,0.03,1.52,0.06c-0.06,0.51,0,1.1-0.23,1.52c-0.21,0.39-0.74,0.62-1.1,0.89c2.57,3.59,3.13,3.73,6.5,1.74
		c3.11-1.83,6.19-3.7,9.35-5.43c0.56-0.31,1.43-0.06,2.16-0.07c-0.35,0.64-0.54,1.5-1.07,1.86c-1.83,1.24-3.78,2.29-5.68,3.42
		c-1.89,1.13-3.77,2.28-5.64,3.4c0.09,0.28,0.1,0.47,0.2,0.58c3.25,3.54,3.23,3.47,7.8,1.9c1.23-0.42,2.66-0.28,4-0.39
		c0.01,2.17-2,1.74-3.15,2.37c-0.99,0.54-2.11,0.85-3.39,1.35c0.45,0.63,0.78,1.14,1.16,1.61c1.54,1.92,3.06,3.85,4.65,5.73
		c2.17,2.57,4.75,4.48,8.19,5.04c0.51,0.08,0.94,0.68,1.4,1.04c-0.42,0.41-0.78,1.03-1.28,1.2c-3.71,1.22-7.48,2.29-11.18,3.53
		c-0.98,0.33-2.32,0.64-1.84,2.35c0.06,0.21-0.98,1.09-1.3,0.99c-3.26-1.03-5.07,1.69-7.65,3.1c2.17,0.79,4.37,1.5,6.48,2.42
		c0.67,0.29,1.09,1.14,1.63,1.73c-0.78,0.11-1.63,0.48-2.32,0.28c-2.2-0.65-4.39-1.38-6.47-2.33c-2.32-1.06-4.23-0.52-6.13,0.86
		c0.12,0.19,0.2,0.32,0.27,0.45c0.35,0.7,0.7,1.4,1.05,2.1c-0.82-0.09-1.64-0.13-2.44-0.28c-1.47-0.27-2.92-0.6-4.4-0.9
		c-0.12,1.51-0.18,2.3-0.24,3.09c-0.76-0.29-1.51-0.62-2.29-0.85c-0.67-0.2-1.38-0.27-2.07-0.4c-0.08,0.19-0.17,0.37-0.25,0.56
		c2.01,2.23,4.07,4.42,5.98,6.73c0.46,0.55,0.44,1.49,0.64,2.25c-0.74-0.26-1.69-0.32-2.19-0.82c-2.02-2.04-3.8-4.31-5.87-6.28
		c-0.74-0.71-2.08-1.18-3.11-1.12c-3.02,0.15-6.01,0.72-9.03,0.92c-1.52,0.1-1.98,0.68-1.94,2.11c0.07,2.54,0.09,5.08-0.03,7.62
		c-0.03,0.65-0.66,1.26-1.01,1.89c-0.38-0.62-1.05-1.23-1.08-1.87c-0.13-2.37-0.05-4.75-0.07-7.13c-0.01-0.77-0.09-1.54-0.7-2.44
		c-0.22,0.41-0.55,0.8-0.64,1.24c-0.81,4.18-1.53,8.37-2.41,12.54c-0.14,0.66-0.97,1.17-1.48,1.76c-0.21-0.71-0.7-1.47-0.6-2.13
		c0.62-3.96,1.38-7.9,2.08-11.85c0.09-0.52,0.08-1.06,0.12-1.6c-0.24-0.09-0.48-0.18-0.72-0.27c-0.49,1.17-0.89,2.39-1.52,3.48
		c-0.35,0.6-1.09,0.97-1.65,1.44c-0.14-0.7-0.47-1.43-0.38-2.1c0.14-0.94,0.59-1.83,0.91-2.75c-0.18-0.19-0.35-0.38-0.53-0.57
		c-0.65,0.53-1.5,0.94-1.9,1.61c-2.32,3.86-4.54,7.78-6.8,11.68c-0.25,0.43-0.42,0.94-0.77,1.24c-0.49,0.41-1.13,0.66-1.7,0.98
		c-0.04-0.72-0.36-1.59-0.06-2.12c2.08-3.81,4.29-7.54,6.46-11.31c0.4-0.7,0.77-1.41,1.23-2.27c-0.86-0.26-1.54-0.46-1.69-0.51
		c-2.78,3.3-5.35,6.4-8,9.43c-0.24,0.28-0.99,0.11-1.5,0.14c0.08-0.65-0.06-1.47,0.29-1.91c2.14-2.69,4.39-5.29,6.61-7.91
		c-1.46-1.36-2.57-0.61-3.76,0.4c-2.86,2.45-5.75,4.88-8.71,7.21c-0.49,0.39-1.38,0.26-2.09,0.37c0.24-0.68,0.29-1.58,0.76-2
		c2.82-2.49,5.75-4.86,8.8-7.41c-1.67-1.2-3.04-1.44-4.72-0.25c-1.8,1.27-3.77,2.32-5.75,3.3c-0.46,0.23-1.24-0.16-1.88-0.27
		c0.27-0.52,0.41-1.26,0.84-1.54c1.83-1.21,3.76-2.28,5.9-3.56c-3.88-2.17-7.45-4.28-11.15-6.13c-0.87-0.43-2.21,0.15-3.32,0.1
		c-0.88-0.04-1.75-0.33-2.63-0.5c0.51-0.68,1.02-1.36,1.57-2.11c-4.93-3.06-10.51-4.33-16.42-4.4c-1.72-0.02-3.45,0.08-5.16-0.09
		c-0.65-0.06-1.23-0.74-1.84-1.14c0.64-0.37,1.26-1.03,1.92-1.07c2.29-0.13,4.59-0.09,6.88-0.04c3.86,0.09,7.06-1.33,9.55-4.21
		c2.19-2.53,4.25-5.18,6.57-8.03c-0.88-0.4-1.65-0.63-2.27-1.07c-0.4-0.28-0.6-0.86-0.9-1.3c0.54-0.23,1.31-0.82,1.58-0.65
		c3.06,1.94,4.71-0.17,6.59-2.03c1.8-1.77,3.78-3.35,5.84-5.14c-1.94-1.7-3.82-3.25-5.57-4.94c-0.49-0.47-0.61-1.32-0.89-1.99
		c0.77,0.12,1.69,0.01,2.28,0.4c1.22,0.81,2.25,1.89,3.37,2.86c2.98,2.61,2.98,2.61,6.38-0.03c-0.79-1.01-1.68-1.97-2.33-3.06
		c-0.24-0.4,0.05-1.12,0.09-1.7c0.51,0.11,1.06,0.15,1.51,0.37c0.34,0.17,0.56,0.58,0.83,0.89c2.43,2.82,2.34,2.58,5.66,1.15
		c2.84-1.22,5.92-2.06,8.97-2.62c2.99-0.55,3.24-0.57,2.72-3.49c-0.59-3.3-1.21-6.6-1.68-9.92c-0.09-0.64,0.46-1.36,0.71-2.05
		c0.47,0.55,1.23,1.04,1.36,1.66c0.72,3.44,1.29,6.92,1.92,10.38c0.5,2.75,0.61,2.82,3.83,1.99c0-1.22-0.14-2.53,0.04-3.8
		c0.15-1.08,0.66-2.11,1.01-3.17c0.38,1.01,0.95,1.99,1.11,3.04c0.19,1.27,0.05,2.59,0.05,3.83c3.4,1.13,3.74,0.94,4.33-2.33
		c0.72-4.03,1.37-8.07,2.19-12.08c0.14-0.69,0.95-1.24,1.45-1.86c0.23,0.78,0.75,1.59,0.64,2.32c-0.59,3.96-1.35,7.9-2.02,11.86
		c-0.15,0.87-0.21,1.76-0.32,2.75c1.51,0.64,2.78,1.37,3.64-0.77c0.17-0.43,1.22-0.51,1.86-0.76L137.55,91.6z M99.81,104.13
		c-1.21,0.73-2.43,1.46-3.64,2.19c-0.56,0.33-1.2,0.57-1.66,1c-5.45,5.12-10.88,10.27-16.31,15.41c0.15,0.18,0.3,0.36,0.45,0.54
		c1.19-0.84,2.39-1.69,3.58-2.53c0.12,0.15,0.25,0.29,0.37,0.44c-0.54,0.66-1.08,1.32-1.62,1.98c0.16,0.15,0.33,0.3,0.49,0.46
		c3.42-3.26,6.95-6.41,10.22-9.81c7.73-8.03,16.74-13.26,28.15-13.79c9.25-0.43,18.35-0.11,26.75,4.49
		c0.29,0.16,0.79,0.48,0.85,0.41c1.67-1.88,2.87,0.08,3.68,0.78c4.01,3.47,8.15,6.89,11.52,10.93c1.61,1.92,2.76,4.32,4.94,5.72
		c1.58,1.01,3.76,1.27,5.05,2.51c1.56,1.49,3.1,1.6,5.05,1.31c-5.75-1.4-8.73-6.13-12.46-9.96c-1.2-1.23-2.42-2.44-3.67-3.62
		c-15.88-14.92-34.31-18.39-54.82-11.95C104.3,101.4,102.11,102.94,99.81,104.13z M110.42,132.85c0.78,0.66,1.57,1.31,2.54,2.13
		c-0.76,0.23-1.05,0.32-1.42,0.44c5.6,3.55,11.26,4.86,17.66,3.67c6.03-1.12,11.26-3.78,14.68-9.18c0.32-0.49,0.65-0.98,0.97-1.47
		c3.36-4.84,4.35-10.05,2.45-15.72l0.03,0.05c-0.28-1.08-0.57-2.16-1.03-3.9c-0.19,1.24-0.27,1.74-0.44,2.83
		c-1.33-2.12-2.37-3.79-3.15-5.03c-1.02,0.22-1.51,0.33-1.99,0.44c2.4,5.27,3.11,9.45,1.98,11.65c-1.54-9.63-3.48-13.08-7.64-14.09
		c0.88,1.13,1.92,2.47,2.97,3.81c-0.2,0.2-0.4,0.4-0.59,0.6c-2.28-2.12-4.32-4.64-7.38-5.5c-0.18,0.22-0.36,0.44-0.54,0.67
		c0.52,0.18,1.04,0.36,1.89,0.66c-4.96,1.79-6.56,3.77-6.09,6.94c0.38,2.55,2.66,4.83,5.25,4.57c1.56-0.16,3.41-0.95,4.41-2.09
		c1.04-1.18,1.22-3.12,1.9-5.07c0.69,1.4,1.29,2.61,1.9,3.83c0.22,0.51,0.45,1.01,0.67,1.52c0.04,0.57,0.09,1.14,0.11,1.71
		c0.26,7-3.61,12.54-10.1,14.48c-6.62,1.98-13.63-0.53-17.12-6.27c-2.97-4.87-2.56-9.78-0.13-14.98c-1.43,1.26-2.87,2.52-4.26,3.76
		c0.19-2.08,0.79-4.29,2.8-5.66c1.7-1.16,3.64-2,5.53-2.85c0.91-0.41,1.95-0.53,2.93-0.78c-2.98-0.73-4.97,1.67-7.96,2.82
		c0.71-1.04,1.08-1.58,1.53-2.24c-2.5,0-3.18,1.95-4.25,3.41c-0.67,0.91-1.48,2.75-1.86,2.66c-1.96-0.48-1.62,1.09-1.92,1.89
		c-1.87,4.98-1.15,9.77,1.23,14.4C107.45,128.91,108.94,130.88,110.42,132.85z M80.51,127.07c13,5.06,25.1,13.81,40.14,13.97
		c-12.61-2.35-24.12-13.63-19.97-31.09c-0.22-0.03-0.45-0.05-0.67-0.08c-0.37,3.65-0.74,7.31-1.1,10.96c-0.21,0-0.41,0-0.62,0
		c-0.17-2.88-0.34-5.76-0.52-8.88c-1.49,1.03-3.2,1.88-4.39,3.2c-0.62,0.7-0.31,2.23-0.43,3.43c-2.09-1.78-2.04-1.76-3.3,0.95
		c-0.37,0.79-0.95,1.59-1.64,2.11C85.51,123.55,82.92,125.34,80.51,127.07z M129.29,141.08c8.27-0.68,16.14-2.74,23.59-6.3
		c5.56-2.65,11.09-5.36,16.52-8c-0.56-0.27-1.56-0.54-2.27-1.14c-1.71-1.47-3.34-3.04-4.89-4.68c-0.73-0.77-1.03-1.97-1.81-2.65
		c-1.38-1.21-2.98-2.16-4.34-3.12c-0.2,0.67-0.45,1.49-0.7,2.31c-0.21-0.04-0.42-0.09-0.64-0.13c0-1.08,0-2.16,0-3.24
		c-0.08,0-0.16,0-0.24,0c-0.25,1.18-0.5,2.35-0.75,3.53c-0.12-0.03-0.25-0.05-0.37-0.08c-0.39-2.07-0.78-4.13-1.17-6.2
		c-0.27,0.05-0.55,0.09-0.82,0.14c0.73,3.13,0.53,6.15-0.92,9.6c-0.24-1.04-0.34-1.46-0.51-2.18
		C149.37,129.87,141.05,138.58,129.29,141.08z M84.66,130.36c28.45,20.28,56.99,15.8,81.57-0.31c-3.74,1.62-7.43,3.32-11.11,5.07
		c-8.65,4.13-17.71,6.75-27.32,7.21c-11.9,0.58-23.01-2.37-33.64-7.49C91,133.32,87.83,131.85,84.66,130.36z M135.37,122.24
		c-0.02-0.35-0.03-0.7-0.05-1.06c-0.92-0.52-1.95-1.57-2.73-1.41c-0.87,0.18-1.51,1.46-2.25,2.26c0.83,0.74,1.62,1.99,2.5,2.06
		C133.63,124.15,134.52,122.91,135.37,122.24z M102.4,112.83c-1.28,3.63-0.94,7.84,0.5,11.54
		C102.74,120.63,102.56,116.41,102.4,112.83z M155.99,111.07c0.06-0.08,0.12-0.17,0.18-0.25c2.04,2.22,4.07,4.43,6.11,6.65
		c-0.01,0.01-0.03,0.02-0.04,0.03C160.15,115.35,158.07,113.21,155.99,111.07z M125.83,126.39c-0.86-0.5-1.43-1.09-1.83-1
		c-0.45,0.1-1.05,0.85-1.03,1.28c0.03,0.4,0.8,1.03,1.25,1.03C124.64,127.71,125.08,127.04,125.83,126.39z"/>
</g>
<g>
	<path class="st0" d="M41.86,127.45c-3.69,0-7.38,0.06-11.06-0.05c-0.72-0.02-1.42-0.71-2.13-1.09c0.7-0.38,1.4-1.09,2.1-1.1
		c7.29-0.11,14.59-0.15,21.88-0.08c0.75,0.01,1.5,0.8,2.25,1.22c-0.74,0.35-1.47,0.99-2.23,1.01c-3.6,0.11-7.21,0.05-10.82,0.05
		C41.86,127.43,41.86,127.44,41.86,127.45z"/>
</g>
<g>
	<path class="st0" d="M192.2,125.17c2.37,0,4.74-0.07,7.1,0.05c0.56,0.03,1.09,0.69,1.64,1.06c-0.54,0.38-1.08,1.09-1.63,1.1
		c-4.82,0.08-9.64,0.07-14.45-0.02c-0.51-0.01-1.01-0.78-1.51-1.19c0.5-0.34,0.99-0.94,1.5-0.97c2.45-0.1,4.9-0.05,7.35-0.05
		C192.2,125.16,192.2,125.17,192.2,125.17z"/>
</g>
<g>
	<path class="st0" d="M189.09,138.57c-5.95-1.11-11.56-2.13-17.15-3.24c-0.47-0.09-0.81-0.82-1.21-1.25
		c0.59-0.28,1.22-0.86,1.76-0.78c3.14,0.46,6.26,1.08,9.38,1.65c2.4,0.44,4.82,0.84,7.19,1.4c0.48,0.11,0.81,0.82,1.21,1.26
		C189.82,137.96,189.39,138.32,189.09,138.57z"/>
</g>
<g>
	<path class="st0" d="M213.98,125.26c2.62,0,5.24-0.05,7.85,0.04c0.51,0.02,1.01,0.57,1.51,0.88c-0.49,0.42-0.97,1.21-1.46,1.21
		c-5.48,0.08-10.96,0.06-16.44-0.02c-0.49-0.01-0.96-0.68-1.44-1.04c0.54-0.36,1.08-1.01,1.63-1.04c2.78-0.11,5.56-0.05,8.34-0.05
		C213.98,125.26,213.98,125.26,213.98,125.26z"/>
</g>
<g>
	<path class="st0" d="M139.89,164.89c-0.21,0.06-0.81,0.45-1.3,0.34c-0.52-0.12-1.15-0.63-1.34-1.12c-1.15-2.88-2.19-5.8-3.26-8.71
		c-0.65-1.76-1.36-3.51-1.88-5.3c-0.14-0.47,0.31-1.11,0.49-1.67c0.42,0.15,1.12,0.19,1.23,0.47
		C135.78,153.9,137.66,158.95,139.89,164.89z"/>
</g>
<g>
	<path class="st0" d="M136.85,145.87c0.41,0.46,0.92,0.86,1.23,1.38c2.23,3.81,4.45,7.62,6.57,11.48c0.29,0.54-0.01,1.4-0.04,2.12
		c-0.62-0.36-1.5-0.58-1.83-1.12c-2.28-3.77-4.48-7.6-6.61-11.46c-0.33-0.59-0.14-1.47-0.19-2.22
		C136.28,145.99,136.56,145.93,136.85,145.87z"/>
</g>
<g>
	<path class="st0" d="M110.09,167.26c-0.3-0.85-0.82-1.52-0.66-1.96c1.56-4.36,3.2-8.7,4.9-13.01c0.15-0.37,0.87-0.52,1.33-0.76
		c0.22,0.46,0.75,1.03,0.62,1.37c-1.6,4.44-3.28,8.84-4.98,13.24C111.18,166.46,110.75,166.66,110.09,167.26z"/>
</g>
<g>
	<path class="st0" d="M113.51,91.43c-0.33,0.43-0.69,1.12-0.86,1.08c-0.54-0.14-1.28-0.44-1.45-0.88c-0.86-2.2-1.55-4.46-2.34-6.69
		c-0.74-2.07-1.59-4.1-2.26-6.2c-0.15-0.48,0.24-1.13,0.39-1.71c0.48,0.18,1.27,0.25,1.39,0.57
		C110.12,82.17,111.79,86.77,113.51,91.43z"/>
</g>
<g>
	<path class="st0" d="M160.19,166.26c-0.16,0.24-0.3,0.76-0.58,0.84c-0.39,0.11-1.06,0.06-1.29-0.2c-2.81-3.18-5.57-6.4-8.28-9.67
		c-0.26-0.31-0.04-1.01-0.04-1.52c0.51,0.03,1.25-0.15,1.49,0.12c2.86,3.24,5.65,6.55,8.45,9.84
		C160.03,165.78,160.06,165.96,160.19,166.26z"/>
</g>
<g>
	<path class="st0" d="M91.38,155.21c-0.38,0.45-0.64,0.87-1,1.18c-2.49,2.12-4.96,4.27-7.53,6.29c-0.47,0.37-1.38,0.19-2.09,0.26
		c0.21-0.62,0.24-1.44,0.67-1.82c2.5-2.23,5.08-4.37,7.69-6.48c0.37-0.3,1.02-0.4,1.53-0.35C90.9,154.31,91.11,154.85,91.38,155.21z
		"/>
</g>
<g>
	<path class="st0" d="M131.92,160.75c-0.23,0.29-0.58,0.73-0.93,1.18c-0.44-0.38-1.19-0.71-1.27-1.16
		c-0.63-3.35-1.19-6.72-1.63-10.1c-0.07-0.51,0.57-1.11,0.88-1.66c0.4,0.43,1.07,0.81,1.16,1.3
		C130.78,153.65,131.3,157.03,131.92,160.75z"/>
</g>
<g>
	<path class="st0" d="M116.04,182.01c-0.67,3.65-1.23,6.95-1.93,10.23c-0.09,0.42-0.89,0.7-1.36,1.04c-0.25-0.47-0.76-0.98-0.7-1.4
		c0.52-3.31,1.1-6.61,1.78-9.88c0.1-0.46,0.83-0.79,1.26-1.18C115.46,181.26,115.81,181.72,116.04,182.01z"/>
</g>
<g>
	<path class="st0" d="M103.39,165.14c-0.19,0.46-0.28,0.77-0.44,1.05c-1.63,2.82-3.22,5.66-4.94,8.42
		c-0.29,0.46-1.12,0.58-1.71,0.85c-0.05-0.65-0.38-1.43-0.12-1.91c1.54-2.86,3.19-5.68,4.88-8.45c0.28-0.45,0.97-0.74,1.53-0.89
		C102.77,164.17,103.13,164.83,103.39,165.14z"/>
</g>
<g>
	<path class="st0" d="M146.83,163.19c0.38,0.4,0.84,0.74,1.11,1.2c1.62,2.74,3.24,5.49,4.75,8.3c0.26,0.48-0.05,1.26-0.09,1.91
		c-0.59-0.28-1.44-0.39-1.72-0.85c-1.72-2.78-3.36-5.61-4.89-8.5c-0.27-0.51,0.06-1.35,0.11-2.04
		C146.34,163.2,146.59,163.2,146.83,163.19z"/>
</g>
<g>
	<path class="st0" d="M99.71,81.47c-0.16,0.19-0.38,0.68-0.65,0.71c-0.41,0.04-1.07-0.1-1.24-0.4c-1.85-3.05-3.66-6.13-5.39-9.26
		c-0.18-0.32,0.11-1.06,0.41-1.42c0.13-0.16,1.06-0.01,1.21,0.25c1.89,3.12,3.71,6.29,5.54,9.45
		C99.66,80.94,99.65,81.12,99.71,81.47z"/>
</g>
<g>
	<path class="st0" d="M89.2,169.96c-0.35,0.55-0.61,1.07-0.97,1.5c-1.83,2.2-3.64,4.42-5.56,6.54c-0.44,0.49-1.31,0.58-1.98,0.86
		c0.08-0.71-0.09-1.62,0.29-2.11c1.85-2.39,3.82-4.69,5.83-6.96c0.36-0.41,1.05-0.61,1.63-0.71
		C88.61,169.05,88.91,169.62,89.2,169.96z"/>
</g>
<g>
	<path class="st0" d="M89.8,137.57c0.4,0.29,1.06,0.54,1.06,0.81c0,0.46-0.28,1.2-0.64,1.35c-3.02,1.23-6.08,2.38-9.16,3.46
		c-0.36,0.13-1.04-0.29-1.37-0.64c-0.13-0.14,0.17-1.05,0.46-1.17C83.3,140.07,86.5,138.85,89.8,137.57z"/>
</g>
<g>
	<path class="st0" d="M118.78,166.53c-0.62,3.38-1.11,6.37-1.76,9.32c-0.12,0.53-0.88,0.91-1.35,1.36c-0.27-0.53-0.82-1.1-0.75-1.57
		c0.44-2.99,0.97-5.97,1.61-8.93c0.11-0.53,0.89-0.91,1.36-1.36C118.24,165.81,118.59,166.28,118.78,166.53z"/>
</g>
<g>
	<path class="st0" d="M154.96,142.79c0.44,0.16,0.77,0.23,1.05,0.38c2.68,1.54,5.38,3.04,8.01,4.67c0.47,0.29,0.61,1.12,0.9,1.7
		c-0.64,0.06-1.42,0.39-1.89,0.14c-2.73-1.45-5.41-3-8.04-4.61c-0.43-0.27-0.64-1.01-0.78-1.57
		C154.16,143.33,154.71,143.02,154.96,142.79z"/>
</g>
<g>
	<path class="st0" d="M131.99,174.81c0.21-0.28,0.53-0.69,0.84-1.11c0.46,0.35,1.23,0.63,1.32,1.06c0.67,3.1,1.24,6.23,1.73,9.36
		c0.06,0.41-0.47,0.91-0.73,1.37c-0.46-0.35-1.24-0.63-1.34-1.05C133.16,181.34,132.63,178.21,131.99,174.81z"/>
</g>
<g>
	<path class="st0" d="M58.21,136.73c0.26,0.22,0.7,0.6,1.13,0.97c-0.4,0.43-0.73,1.14-1.2,1.25c-3.02,0.68-6.07,1.28-9.13,1.77
		c-0.45,0.07-1.02-0.54-1.53-0.83c0.4-0.43,0.74-1.13,1.22-1.23C51.72,137.97,54.78,137.41,58.21,136.73z"/>
</g>
<g>
	<path class="st0" d="M159.72,154.38c0.45,0.27,0.83,0.45,1.13,0.7c2.2,1.83,4.43,3.63,6.55,5.56c0.4,0.36,0.33,1.23,0.48,1.86
		c-0.64-0.09-1.45,0.04-1.9-0.31c-2.26-1.76-4.45-3.61-6.59-5.51c-0.39-0.35-0.52-1.08-0.58-1.65
		C158.8,154.85,159.4,154.6,159.72,154.38z"/>
</g>
<g>
	<path class="st0" d="M180.92,117.56c-0.27-0.25-0.88-0.57-1.05-1.04c-0.09-0.25,0.55-1.03,0.95-1.12c2.96-0.62,5.93-1.17,8.92-1.63
		c0.4-0.06,0.9,0.5,1.35,0.77c-0.37,0.45-0.67,1.21-1.12,1.31C187.11,116.49,184.2,116.97,180.92,117.56z"/>
</g>
<g>
	<path class="st0" d="M102.59,190.35c-1.18,3.1-2.28,6.09-3.48,9.04c-0.11,0.28-1.01,0.58-1.19,0.43c-0.36-0.3-0.75-0.98-0.63-1.34
		c0.97-2.87,2.01-5.71,3.14-8.51c0.14-0.36,0.88-0.65,1.34-0.64C102.04,189.34,102.31,189.98,102.59,190.35z"/>
</g>
<g>
	<path class="st0" d="M103.11,186.33c-0.29-0.77-0.81-1.44-0.66-1.88c0.92-2.86,1.95-5.68,3.05-8.48c0.15-0.38,0.84-0.68,1.31-0.73
		c0.2-0.02,0.77,0.79,0.68,1.06c-1.04,3.07-2.15,6.11-3.29,9.15C104.1,185.7,103.72,185.85,103.11,186.33z"/>
</g>
<g>
	<path class="st0" d="M151.85,81.54c-0.63,1.11-1.19,2.1-1.76,3.09c-1.02,1.76-1.99,3.55-3.11,5.24c-0.25,0.37-1.05,0.37-1.6,0.55
		c-0.09-0.51-0.41-1.14-0.22-1.5c1.43-2.64,2.94-5.25,4.5-7.81c0.22-0.36,0.92-0.61,1.38-0.58
		C151.33,80.54,151.58,81.17,151.85,81.54z"/>
</g>
<g>
	<path class="st0" d="M115.89,68.83c-0.21,0.27-0.54,0.67-0.87,1.08c-0.45-0.36-1.2-0.66-1.3-1.1c-0.59-2.7-1.08-5.42-1.48-8.16
		c-0.06-0.45,0.52-0.99,0.81-1.49c0.41,0.33,1.09,0.61,1.18,1.01C114.84,62.94,115.32,65.75,115.89,68.83z"/>
</g>
<g>
	<path class="st0" d="M86.23,58.29c0.37,0.4,0.83,0.75,1.1,1.21c1.29,2.16,2.58,4.33,3.74,6.56c0.27,0.52,0.02,1.3,0.02,1.96
		c-0.6-0.25-1.48-0.32-1.76-0.77c-1.44-2.26-2.78-4.59-4.01-6.97c-0.26-0.49,0.1-1.3,0.17-1.97C85.74,58.3,85.98,58.29,86.23,58.29z
		"/>
</g>
<g>
	<path class="st0" d="M168.41,178.74c-1.08-0.87-1.58-1.16-1.91-1.57c-1.55-1.9-3.1-3.8-4.53-5.79c-0.34-0.48-0.21-1.29-0.3-1.95
		c0.63,0.16,1.49,0.11,1.84,0.51c1.71,1.97,3.34,4.02,4.86,6.15C168.69,176.54,168.41,177.42,168.41,178.74z"/>
</g>
<g>
	<path class="st0" d="M133,74.7c0.53-3.38,0.93-6.22,1.48-9.04c0.09-0.46,0.81-0.8,1.23-1.2c0.29,0.51,0.88,1.06,0.82,1.51
		c-0.4,2.93-0.9,5.85-1.5,8.74c-0.09,0.43-0.87,0.72-1.33,1.07C133.38,75.29,133.06,74.79,133,74.7z"/>
</g>
<g>
	<path class="st0" d="M152.92,93.46c-0.19-0.64-0.64-1.38-0.45-1.63c1.84-2.37,3.76-4.68,5.73-6.95c0.2-0.23,1.02-0.25,1.29-0.03
		c0.26,0.21,0.41,1.02,0.22,1.26c-1.8,2.3-3.68,4.54-5.56,6.78C153.95,93.11,153.58,93.16,152.92,93.46z"/>
</g>
<g>
	<path class="st0" d="M143.16,76.14c-0.3-0.64-0.86-1.24-0.73-1.61c0.95-2.77,2-5.51,3.13-8.21c0.14-0.34,0.89-0.56,1.36-0.55
		c0.2,0.01,0.63,0.85,0.52,1.16c-1.01,2.83-2.1,5.64-3.21,8.43C144.13,75.6,143.74,75.73,143.16,76.14z"/>
</g>
<g>
	<path class="st0" d="M148.27,62.84c-0.27-0.78-0.77-1.44-0.63-1.92c0.74-2.5,1.61-4.97,2.54-7.41c0.14-0.37,0.85-0.67,1.32-0.7
		c0.22-0.01,0.76,0.8,0.67,1.08c-0.87,2.71-1.83,5.4-2.81,8.07C149.27,62.22,148.88,62.37,148.27,62.84z"/>
</g>
<g>
	<path class="st0" d="M125.79,181.86c0,1.38,0.09,2.77-0.05,4.14c-0.05,0.46-0.71,0.85-1.1,1.28c-0.32-0.4-0.92-0.8-0.93-1.21
		c-0.08-2.84-0.08-5.69,0.01-8.53c0.01-0.39,0.65-0.77,1-1.15c0.36,0.44,0.99,0.86,1.04,1.33c0.14,1.37,0.05,2.76,0.05,4.14
		C125.81,181.86,125.8,181.86,125.79,181.86z"/>
</g>
<g>
	<path class="st0" d="M102.02,84.77c0.26,0.5,0.51,1.01,0.8,1.5c1.22,2.11,2.51,4.19,3.63,6.35c0.25,0.48-0.08,1.25-0.14,1.88
		c-0.59-0.29-1.41-0.42-1.72-0.88c-1.32-2.05-2.54-4.17-3.66-6.34c-0.28-0.55-0.04-1.36-0.04-2.06
		C101.26,85.08,101.64,84.93,102.02,84.77z"/>
</g>
<g>
	<path class="st0" d="M89.24,105.53c-0.79,0.18-1.52,0.6-1.93,0.39c-2.31-1.2-4.56-2.51-6.76-3.89c-0.32-0.2-0.45-0.96-0.38-1.42
		c0.03-0.21,0.92-0.54,1.19-0.4c2.43,1.31,4.82,2.69,7.2,4.1C88.79,104.45,88.87,104.85,89.24,105.53z"/>
</g>
<g>
	<path class="st0" d="M77.12,143.91c-0.96,0.78-1.32,1.24-1.79,1.43c-2.26,0.9-4.53,1.77-6.84,2.52c-0.46,0.15-1.1-0.25-1.66-0.4
		c0.33-0.54,0.53-1.37,1.01-1.58c2.23-0.96,4.52-1.81,6.83-2.55C75.2,143.16,75.93,143.6,77.12,143.91z"/>
</g>
<g>
	<path class="st0" d="M65.55,160.81c-0.2,0.53-0.22,0.76-0.33,0.82c-2.5,1.45-5,2.91-7.54,4.29c-0.16,0.09-0.84-0.34-0.88-0.59
		c-0.05-0.41,0.09-1.07,0.38-1.25c2.21-1.36,4.44-2.67,6.74-3.85C64.28,160.05,65,160.6,65.55,160.81z"/>
</g>
<g>
	<path class="st0" d="M152.36,198.82c-0.28,0.36-0.56,1-0.83,1c-0.46,0-1.18-0.3-1.33-0.67c-0.93-2.26-1.77-4.57-2.52-6.89
		c-0.12-0.37,0.27-1.03,0.62-1.35c0.13-0.13,1.04,0.2,1.17,0.49C150.48,193.81,151.38,196.25,152.36,198.82z"/>
</g>
<g>
	<path class="st0" d="M74.46,156.59c-0.43-0.28-0.88-0.42-1.03-0.72c-0.15-0.29-0.13-0.97,0.06-1.09c2.34-1.46,4.7-2.88,7.11-4.22
		c0.23-0.13,0.9,0.26,1.15,0.58c0.15,0.19,0.02,0.9-0.21,1.04C79.22,153.7,76.86,155.12,74.46,156.59z"/>
</g>
<g>
	<path class="st0" d="M185.09,91.89c-0.46,0.62-0.59,0.96-0.84,1.12c-2.16,1.33-4.32,2.67-6.53,3.91c-0.29,0.16-1.21-0.11-1.25-0.29
		c-0.09-0.47-0.01-1.26,0.3-1.46c2.12-1.4,4.28-2.73,6.51-3.93C183.62,91.04,184.37,91.61,185.09,91.89z"/>
</g>
<g>
	<path class="st0" d="M198.88,153.22c-0.89,0.2-1.51,0.56-1.98,0.41c-2.16-0.69-4.3-1.47-6.4-2.34c-0.37-0.15-0.51-0.87-0.75-1.32
		c0.47-0.21,1.03-0.71,1.4-0.59c2.24,0.72,4.44,1.54,6.63,2.41C198.13,151.94,198.32,152.48,198.88,153.22z"/>
</g>
<g>
	<path class="st0" d="M144.06,178.31c0.74,0.88,1.21,1.23,1.39,1.69c0.77,1.96,1.53,3.94,2.11,5.96c0.15,0.5-0.37,1.19-0.58,1.79
		c-0.47-0.35-1.19-0.6-1.38-1.07c-0.83-2.02-1.57-4.09-2.2-6.18C143.26,180.02,143.72,179.37,144.06,178.31z"/>
</g>
<g>
	<path class="st0" d="M68.81,115.3c2.4,0.44,4.41,0.75,6.39,1.22c0.49,0.12,0.86,0.76,1.28,1.16c-0.56,0.32-1.16,0.95-1.69,0.9
		c-2.02-0.21-4.03-0.57-6-1.04c-0.54-0.13-0.92-0.88-1.38-1.34C67.95,115.85,68.49,115.51,68.81,115.3z"/>
</g>
<g>
	<path class="st0" d="M106.53,72.28c-0.22,0.35-0.42,1.01-0.7,1.05c-0.45,0.05-1.24-0.18-1.38-0.51c-0.93-2.18-1.77-4.4-2.52-6.65
		c-0.12-0.36,0.29-1.03,0.64-1.36c0.14-0.13,1.04,0.19,1.17,0.49C104.71,67.56,105.57,69.86,106.53,72.28z"/>
</g>
<g>
	<path class="st0" d="M72.49,106.13c2.31,0.92,4.52,1.75,6.69,2.7c0.29,0.13,0.58,1.01,0.44,1.18c-0.31,0.35-0.98,0.75-1.35,0.64
		c-2.09-0.69-4.15-1.47-6.17-2.35c-0.36-0.16-0.64-0.89-0.63-1.35C71.47,106.67,72.12,106.41,72.49,106.13z"/>
</g>
<g>
	<path class="st0" d="M125.8,77.49c0,1.06,0.11,2.13-0.05,3.16c-0.08,0.49-0.67,0.9-1.03,1.35c-0.35-0.38-0.98-0.75-0.99-1.14
		c-0.09-2.43-0.07-4.87,0.01-7.3c0.01-0.34,0.68-0.98,0.86-0.92c0.44,0.14,1.07,0.59,1.11,0.96c0.14,1.28,0.05,2.59,0.05,3.89
		C125.76,77.49,125.78,77.49,125.8,77.49z"/>
</g>
<g>
	<path class="st0" d="M137.59,91.62c-0.34-0.59-1.09-1.3-0.96-1.74c0.66-2.17,1.5-4.28,2.4-6.36c0.15-0.36,0.88-0.47,1.35-0.7
		c0.21,0.47,0.71,1.07,0.57,1.4c-1.07,2.49-2.26,4.92-3.41,7.38C137.55,91.6,137.59,91.62,137.59,91.62z"/>
</g>
<g>
	<path class="st0" d="M179.75,145.04c2.33,0.91,4.56,1.73,6.73,2.66c0.3,0.13,0.59,0.87,0.49,1.18c-0.12,0.33-0.81,0.78-1.09,0.69
		c-2.25-0.74-4.48-1.56-6.67-2.45c-0.29-0.12-0.55-0.85-0.46-1.2C178.84,145.57,179.39,145.33,179.75,145.04z"/>
</g>
<g>
	<path class="st0" d="M184.64,105.45c-0.43,0.22-0.84,0.49-1.29,0.66c-1.83,0.7-3.65,1.43-5.52,2.01c-0.4,0.13-0.97-0.28-1.47-0.44
		c0.25-0.52,0.37-1.32,0.77-1.5c1.79-0.8,3.63-1.48,5.51-2.04c0.48-0.14,1.14,0.33,1.72,0.52
		C184.45,104.92,184.55,105.19,184.64,105.45z"/>
</g>
<g>
	<path class="st0" d="M182.59,159.39c-0.79,0.17-1.56,0.61-2,0.39c-1.82-0.89-3.57-1.93-5.28-3.03c-0.36-0.23-0.54-0.92-0.55-1.4
		c0-0.18,0.88-0.63,1.13-0.51c2.07,1.09,4.1,2.28,6.12,3.47C182.18,158.42,182.23,158.72,182.59,159.39z"/>
</g>
<g>
	<path class="st0" d="M68.61,105.66c-0.64,0.3-1.22,0.83-1.6,0.71c-2.08-0.65-4.12-1.42-6.13-2.25c-0.26-0.11-0.42-0.83-0.35-1.22
		c0.05-0.25,0.68-0.65,0.91-0.57c2.14,0.7,4.26,1.47,6.37,2.26C68.06,104.69,68.19,105.08,68.61,105.66z"/>
</g>
<g>
	<path class="st0" d="M173.14,86.46c-0.45,0.77-0.56,1.11-0.78,1.3c-1.54,1.33-3.08,2.67-4.71,3.9c-0.32,0.24-0.99,0.02-1.49,0.01
		c0.04-0.52-0.12-1.25,0.15-1.51c1.49-1.39,3.04-2.73,4.68-3.92C171.37,85.97,172.23,86.35,173.14,86.46z"/>
</g>
<g>
	<path class="st0" d="M72.54,171.53c-0.56-0.43-1.06-0.62-1.12-0.9c-0.08-0.4,0-1.04,0.28-1.29c1.5-1.37,3.05-2.68,4.65-3.93
		c0.29-0.23,0.94-0.19,1.33-0.04c0.23,0.09,0.46,0.88,0.34,1C76.25,168.12,74.41,169.79,72.54,171.53z"/>
</g>
<g>
	<path class="st0" d="M91.35,166.84c-0.2-0.56-0.74-1.36-0.54-1.63c1.29-1.76,2.71-3.42,4.17-5.04c0.21-0.24,1-0.27,1.28-0.06
		c0.27,0.2,0.47,1.01,0.29,1.23c-1.4,1.78-2.9,3.48-4.37,5.19C92.08,166.64,91.88,166.65,91.35,166.84z"/>
</g>
<g>
	<path class="st0" d="M126.32,164.9c-0.55,1.26-1.09,2.53-1.64,3.79c-0.35-1.3-0.78-2.59-1.01-3.91c-0.15-0.87-0.15-1.82,0.02-2.68
		c0.13-0.6,0.67-1.12,1.03-1.67c0.37,0.53,0.94,1.01,1.07,1.59c0.18,0.86,0.05,1.78,0.05,2.68
		C126,164.77,126.16,164.84,126.32,164.9z"/>
</g>
<g>
	<path class="st0" d="M172.54,153.74c-0.6,0.17-1.28,0.61-1.64,0.43c-1.73-0.88-3.4-1.89-5.02-2.95c-0.25-0.16-0.29-0.89-0.16-1.27
		c0.08-0.23,0.79-0.51,1.01-0.39c1.84,1.01,3.64,2.09,5.43,3.19C172.32,152.84,172.33,153.17,172.54,153.74z"/>
</g>
<g>
	<path class="st0" d="M125.76,195.18c0,0.89,0.11,1.8-0.05,2.66c-0.07,0.41-0.65,0.73-1,1.09c-0.35-0.37-0.98-0.73-1-1.12
		c-0.1-1.94-0.09-3.88,0.02-5.82c0.02-0.39,0.66-0.74,1.02-1.11c0.34,0.38,0.92,0.73,0.98,1.14c0.14,1.03,0.05,2.1,0.05,3.15
		C125.77,195.18,125.76,195.18,125.76,195.18z"/>
</g>
<g>
	<path class="st0" d="M175.68,185.19c-0.33,0.54-0.45,1-0.74,1.15c-0.29,0.15-0.92,0.13-1.1-0.07c-1.41-1.57-2.76-3.19-4.07-4.85
		c-0.15-0.19,0.01-0.84,0.24-1.07c0.22-0.22,0.92-0.35,1.06-0.2C172.65,181.78,174.14,183.48,175.68,185.19z"/>
</g>
<g>
	<path class="st0" d="M63.82,90.81c-0.76,0.21-1.47,0.66-1.88,0.47c-1.61-0.76-3.15-1.67-4.64-2.65c-0.33-0.22-0.47-0.96-0.41-1.43
		c0.03-0.21,0.89-0.58,1.16-0.44c1.72,0.89,3.4,1.88,5.06,2.88C63.34,89.78,63.43,90.16,63.82,90.81z"/>
</g>
<g>
	<path class="st0" d="M86.67,80.52c0.97,0.55,1.39,0.67,1.63,0.95c1.12,1.28,2.26,2.56,3.24,3.94c0.28,0.39,0.06,1.14,0.07,1.72
		c-0.57-0.12-1.34-0.05-1.67-0.39c-1.17-1.23-2.27-2.55-3.23-3.95C86.43,82.38,86.67,81.59,86.67,80.52z"/>
</g>
<g>
	<path class="st0" d="M140.19,168.13c0.53,0.41,0.98,0.58,1.11,0.89c0.71,1.64,1.39,3.29,1.94,4.98c0.11,0.34-0.32,1.03-0.7,1.29
		c-0.19,0.14-1.04-0.19-1.17-0.49c-0.74-1.71-1.41-3.45-1.97-5.22C139.31,169.25,139.85,168.72,140.19,168.13z"/>
</g>
<g>
	<path class="st0" d="M151.58,150.36c-1.7-1.45-3.37-2.84-4.97-4.29c-0.13-0.12,0.05-0.89,0.27-1.02c0.35-0.19,1-0.28,1.29-0.08
		c1.46,1.02,2.88,2.12,4.23,3.28c0.27,0.23,0.35,0.88,0.27,1.29C152.62,149.81,152.11,149.99,151.58,150.36z"/>
</g>
<g>
	<path class="st0" d="M166.49,93.01c-2.54,1.82-4.41,3.16-6.28,4.49c-0.22-0.55-0.77-1.44-0.61-1.6c1.4-1.35,2.89-2.63,4.47-3.78
		C164.34,91.94,165.14,92.5,166.49,93.01z"/>
</g>
<g>
	<path class="st0" d="M155.73,73.65c-0.29-0.64-0.84-1.29-0.69-1.6c0.8-1.68,1.74-3.3,2.74-4.87c0.16-0.25,0.97-0.36,1.28-0.18
		c0.29,0.17,0.57,0.92,0.43,1.19c-0.82,1.59-1.74,3.12-2.67,4.65C156.66,73.09,156.31,73.22,155.73,73.65z"/>
</g>
<g>
	<path class="st0" d="M167.31,77.49c-1.63,1.71-3.15,3.34-4.73,4.9c-0.11,0.11-0.91-0.17-0.98-0.4c-0.13-0.4-0.12-1.02,0.12-1.33
		c1.03-1.35,2.13-2.66,3.29-3.91c0.26-0.28,0.87-0.4,1.28-0.34C166.58,76.46,166.8,76.93,167.31,77.49z"/>
</g>
<g>
	<path class="st0" d="M175.12,166.8c-0.97,0.65-1.62,1.25-1.75,1.15c-1.66-1.24-3.26-2.57-4.81-3.95c-0.07-0.06,0.46-0.81,0.72-1.24
		C171.08,164.01,172.89,165.26,175.12,166.8z"/>
</g>
<g>
	<path class="st0" d="M154.16,176.63c0.81,0.62,1.29,0.83,1.52,1.2c0.83,1.31,1.66,2.63,2.31,4.03c0.21,0.45-0.09,1.14-0.16,1.73
		c-0.55-0.2-1.33-0.23-1.6-0.62c-0.93-1.34-1.76-2.76-2.44-4.23C153.59,178.3,153.97,177.58,154.16,176.63z"/>
</g>
<g>
	<path class="st0" d="M79.31,99.96c-0.57,0.16-1.23,0.6-1.58,0.42c-1.66-0.84-3.27-1.8-4.83-2.82c-0.25-0.17-0.31-0.89-0.19-1.27
		c0.08-0.23,0.79-0.52,1.01-0.4c1.78,0.95,3.51,1.99,5.24,3.04C79.11,99.02,79.11,99.36,79.31,99.96z"/>
</g>
<g>
	<path class="st0" d="M170.27,141.6c1.79,0.69,3.48,1.3,5.11,2.04c0.29,0.13,0.58,1.03,0.45,1.17c-0.33,0.34-0.97,0.7-1.36,0.6
		c-1.57-0.44-3.12-0.99-4.61-1.65c-0.36-0.16-0.65-0.88-0.63-1.33C169.25,142.13,169.9,141.88,170.27,141.6z"/>
</g>
<g>
	<path class="st0" d="M114.15,72.05c0.24-0.31,0.59-0.78,0.94-1.25c0.44,0.38,1.13,0.69,1.27,1.16c0.41,1.4,0.68,2.86,0.83,4.32
		c0.04,0.41-0.53,0.87-0.82,1.31c-0.42-0.3-1.1-0.52-1.21-0.91C114.75,75.29,114.52,73.83,114.15,72.05z"/>
</g>
<g>
	<path class="st0" d="M126.35,65.4c-0.62,1.27-1.18,2.43-1.75,3.59c-0.32-1.22-0.91-2.45-0.9-3.67c0.02-1.26-0.93-3.14,1.2-3.54
		C125.13,61.74,125.78,63.96,126.35,65.4z"/>
</g>
<g>
	<path class="st0" d="M175.77,67.41c-1.49,1.53-2.98,3.05-4.46,4.58c-0.31-0.55-1.03-1.38-0.87-1.61c0.97-1.39,2.07-2.72,3.28-3.9
		c0.29-0.29,1.19,0.05,1.81,0.09C175.61,66.86,175.69,67.13,175.77,67.41z"/>
</g>
<g>
	<path class="st0" d="M82.27,73.84c1.68,2.45,2.92,4.26,4.16,6.06c-0.5,0.23-1.34,0.76-1.45,0.64c-1.3-1.43-2.54-2.92-3.67-4.49
		C81.15,75.83,81.7,75.11,82.27,73.84z"/>
</g>
<g>
	<path class="st0" d="M126.4,57.23c-0.61,1.2-1.16,2.27-1.71,3.35c-0.35-1.13-1-2.26-0.97-3.38c0.03-1.25-1-3.14,1.15-3.54
		C125.13,53.62,125.8,55.8,126.4,57.23z"/>
</g>
<g>
	<path class="st0" d="M113.16,198.14c-0.3,1.71-0.41,2.94-0.77,4.09c-0.15,0.48-0.83,0.79-1.28,1.17c-0.27-0.51-0.79-1.03-0.77-1.54
		c0.04-1.2,0.23-2.43,0.57-3.59c0.17-0.58,0.8-1.02,1.23-1.53C112.55,197.3,112.95,197.86,113.16,198.14z"/>
</g>
<g>
	<path class="st0" d="M64.06,148.61c-0.6,0.67-0.84,1.15-1.22,1.33c-1.1,0.5-2.23,0.98-3.4,1.25c-0.46,0.11-1.06-0.37-1.6-0.59
		c0.26-0.45,0.41-1.12,0.8-1.31c1.16-0.56,2.38-1.01,3.63-1.32C62.71,147.87,63.29,148.32,64.06,148.61z"/>
</g>
<g>
	<path class="st0" d="M88.58,147.81c-1.19,0.94-1.77,1.65-2.52,1.93c-1.2,0.45-2.15,2.32-3.79,0.86c0.88-0.9,1.72-1.83,2.65-2.67
		c0.41-0.37,0.97-0.71,1.49-0.76C86.91,147.12,87.44,147.45,88.58,147.81z"/>
</g>
<g>
	<path class="st0" d="M180.56,80.88c-1.81,1.37-3.23,2.44-4.66,3.51c-0.32-0.44-0.97-1.23-0.92-1.28c1.2-1.16,2.46-2.28,3.79-3.3
		C178.92,79.7,179.58,80.27,180.56,80.88z"/>
</g>
<g>
	<path class="st0" d="M79.33,182.31c-1.77,1.75-3.01,2.97-4.25,4.2c-0.34-0.5-1.08-1.28-0.95-1.46c0.83-1.2,1.78-2.34,2.85-3.34
		C77.2,181.5,78.06,181.96,79.33,182.31z"/>
</g>
<g>
	<path class="st0" d="M72.45,95.36c-0.76,0.52-1.28,1.08-1.47,0.98c-1.49-0.75-2.94-1.6-4.34-2.51c-0.16-0.11,0.09-0.83,0.15-1.28
		c1.02,0.3,2.1,0.47,3.05,0.93C70.71,93.89,71.43,94.6,72.45,95.36z"/>
</g>
<g>
	<path class="st0" d="M137.98,193.49c-0.47,0.65-0.84,1.18-1.21,1.7c-0.44-0.5-1.17-0.96-1.25-1.51c-0.2-1.37-0.1-2.79-0.07-4.19
		c0-0.04,0.81-0.16,0.85-0.07C136.88,190.71,137.39,192.03,137.98,193.49z"/>
</g>
<g>
	<path class="st0" d="M84.76,94.45c-1.81-1.75-3.12-3.01-4.43-4.27c0.46-0.37,1.2-1.14,1.33-1.04c1.31,0.93,2.58,1.94,3.72,3.07
		C85.57,92.4,85.11,93.25,84.76,94.45z"/>
</g>
<g>
	<path class="st0" d="M64.61,138.31c-0.76-0.61-1.26-1.01-1.76-1.41c1.32-0.57,2.6-1.25,3.97-1.63c0.43-0.12,1.08,0.57,1.63,0.89
		C67.22,136.85,65.99,137.54,64.61,138.31z"/>
</g>
<g>
	<path class="st0" d="M101.85,156.74c-1.28,0.87-2.54,1.8-3.88,2.56c-0.2,0.11-0.81-0.51-1.23-0.8c1.07-1.24,2.13-2.5,3.25-3.69
		c0.04-0.04,0.76,0.55,1.16,0.84C101.39,156.02,101.62,156.38,101.85,156.74z"/>
</g>
<g>
	<path class="st0" d="M76.21,85.25c-0.57,0.14-1.34,0.58-1.68,0.36c-1.09-0.69-2.09-1.57-2.97-2.53c-0.17-0.19,0.38-1.04,0.59-1.59
		c1.41,0.97,2.83,1.94,4.24,2.92C76.33,84.7,76.27,84.98,76.21,85.25z"/>
</g>
<g>
	<path class="st0" d="M64.59,117.32c-1.23-0.76-2.24-1.39-3.25-2.02c0.56-0.32,1.21-1,1.65-0.88c1.22,0.32,2.36,0.97,3.53,1.48
		C65.96,116.32,65.4,116.73,64.59,117.32z"/>
</g>
<g>
	<path class="st0" d="M93.69,177.69c0.75,0.93,1.41,1.53,1.32,1.68c-0.85,1.41-1.83,2.74-2.77,4.1c-0.33-0.3-1.01-0.75-0.95-0.88
		C91.95,181.09,92.72,179.64,93.69,177.69z"/>
</g>
<g>
	<path class="st0" d="M88.64,189.47c-0.2-0.43-0.69-1-0.56-1.26c0.71-1.4,1.56-2.74,2.42-4.06c0.03-0.05,1.11,0.49,1.1,0.51
		c-0.61,1.55-1.28,3.07-1.95,4.6C89.31,189.34,88.97,189.4,88.64,189.47z"/>
</g>
<g>
	<path class="st0" d="M69.77,78.48c-0.95,0.7-1.52,1.27-1.63,1.19c-1.28-0.9-2.5-1.89-3.68-2.92c-0.05-0.04,0.63-1.03,0.66-1.01
		C66.56,76.53,67.98,77.4,69.77,78.48z"/>
</g>
<g>
	<path class="st0" d="M194.54,136.84c1.27,0.83,2.33,1.52,3.38,2.2c-0.58,0.29-1.25,0.92-1.72,0.79c-1.13-0.31-2.17-0.97-3.24-1.49
		C193.4,137.92,193.85,137.5,194.54,136.84z"/>
</g>
<g>
	<path class="st0" d="M50.45,114.74c-1.08-0.65-2.04-1.22-2.99-1.8c0.6-0.35,1.31-1.1,1.79-0.97c1.17,0.31,2.22,1.02,3.32,1.57
		C51.95,113.9,51.33,114.25,50.45,114.74z"/>
</g>
<g>
	<path class="st0" d="M73.51,136.71c-0.67-0.71-1.1-1.17-1.53-1.62c1.05-0.46,2.06-1.07,3.16-1.32c0.47-0.1,1.1,0.56,1.66,0.87
		C75.79,135.28,74.77,135.92,73.51,136.71z"/>
</g>
<g>
	<path class="st0" d="M72.9,156.99c-0.81,0.64-1.46,1.33-2.26,1.75c-0.65,0.34-1.47,0.4-2.23,0.5c-0.1,0.01-0.41-0.75-0.38-0.77
		c1.33-0.84,2.69-1.64,4.06-2.39C72.16,156.05,72.49,156.51,72.9,156.99z"/>
</g>
<g>
	<path class="st0" d="M177.08,168.49c1.16,1.31,2.09,2.33,2.95,3.4c0.03,0.04-0.8,0.89-0.85,0.85c-1.11-0.83-2.19-1.72-3.2-2.67
		C175.92,170.03,176.5,169.31,177.08,168.49z"/>
</g>
<g>
	<path class="st0" d="M107.86,172.34c-0.17-0.52-0.62-1.17-0.45-1.55c0.48-1.12,1.21-2.13,1.84-3.18c0.35,0.44,1.07,0.99,0.98,1.3
		c-0.37,1.22-0.99,2.37-1.51,3.55C108.43,172.42,108.15,172.38,107.86,172.34z"/>
</g>
<g>
	<path class="st0" d="M56.55,115.85c-1.2-0.74-2.16-1.34-3.13-1.94c0.54-0.35,1.17-1.09,1.6-0.98c1.09,0.28,2.09,0.93,3.12,1.43
		C57.68,114.79,57.23,115.21,56.55,115.85z"/>
</g>
<g>
	<path class="st0" d="M123.12,201.98c0.64-0.93,1.12-1.63,1.6-2.32c0.36,0.86,0.98,1.73,0.99,2.6c0.01,0.78-0.65,1.56-1.02,2.34
		C124.22,203.8,123.73,203,123.12,201.98z"/>
</g>
<g>
	<path class="st0" d="M133.69,168.25c-0.66,0.76-1.11,1.27-1.57,1.79c-0.46-1.04-1.07-2.04-1.3-3.13c-0.09-0.43,0.64-1.05,1-1.58
		C132.4,166.22,132.97,167.11,133.69,168.25z"/>
</g>
<g>
	<path class="st0" d="M108.04,42.41c0.81-0.71,1.31-1.16,1.81-1.6c0.54,1.23,1.2,2.44,1.55,3.72c0.1,0.37-0.71,0.98-1.1,1.49
		C109.6,44.91,108.91,43.8,108.04,42.41z"/>
</g>
<g>
	<path class="st0" d="M173.92,119.27c-0.75-0.73-1.19-1.17-1.64-1.6c1.02-0.46,2-1.05,3.07-1.32c0.38-0.1,0.96,0.57,1.44,0.88
		C175.91,117.87,175.02,118.5,173.92,119.27z"/>
</g>
<g>
	<path class="st0" d="M96.11,94.2c-0.94-1.34-1.66-2.33-2.29-3.39c-0.04-0.07,1.03-0.91,1.05-0.88c0.85,0.88,1.67,1.81,2.38,2.81
		C97.33,92.84,96.71,93.45,96.11,94.2z"/>
</g>
<g>
	<path class="st0" d="M161.56,187.31c-0.66,0.56-1.04,0.88-1.42,1.2c-0.77-0.97-1.58-1.92-2.25-2.96c-0.08-0.13,0.59-0.75,0.91-1.14
		C159.64,185.31,160.5,186.2,161.56,187.31z"/>
</g>
<g>
	<path class="st0" d="M189.53,103.61c-1.04,0.44-2.06,0.99-3.14,1.26c-0.32,0.08-0.84-0.64-1.27-0.99c0.93-0.56,1.81-1.23,2.8-1.63
		c0.38-0.15,1.01,0.31,1.53,0.5C189.47,103.03,189.5,103.32,189.53,103.61z"/>
</g>
<g>
	<path class="st0" d="M184.16,159.05c1.11,1.06,2,1.9,2.88,2.73c-0.4,0.31-1,0.97-1.16,0.87c-0.99-0.58-1.9-1.31-2.77-2.06
		C183.06,160.55,183.63,159.82,184.16,159.05z"/>
</g>
<g>
	<path class="st0" d="M154.21,149.12c1.01,1.27,1.79,2.23,2.49,3.23c0.02,0.03-0.99,0.92-1.06,0.86c-0.89-0.75-1.74-1.57-2.48-2.47
		C153.08,150.63,153.67,149.96,154.21,149.12z"/>
</g>
<g>
	<path class="st0" d="M152.31,80.55c-0.62-0.99-1.2-1.57-1.09-1.79c0.5-0.97,1.21-1.83,1.84-2.73c0.39,0.33,1.16,0.81,1.1,0.96
		C153.73,78.04,153.13,79.03,152.31,80.55z"/>
</g>
<g>
	<path class="st0" d="M162.63,63.5c-1,1-1.81,1.79-2.61,2.59c-0.31-0.39-0.96-1-0.87-1.14c0.61-0.96,1.38-1.82,2.1-2.71
		C161.61,62.57,161.98,62.9,162.63,63.5z"/>
</g>
<g>
	<path class="st0" d="M77.67,85.38c0.94,1.06,1.68,1.86,2.32,2.72c0.04,0.06-0.91,1.01-0.97,0.96c-0.88-0.65-1.71-1.38-2.46-2.18
		C76.5,86.82,77.12,86.12,77.67,85.38z"/>
</g>
<g>
	<path class="st0" d="M170.84,73.27c-1.15,1.03-1.98,1.8-2.87,2.5c-0.04,0.03-0.98-0.92-0.93-0.99c0.63-0.86,1.33-1.69,2.13-2.4
		C169.28,72.27,169.97,72.8,170.84,73.27z"/>
</g>
<g>
	<path class="st0" d="M79.04,70.19c0.87,1.34,1.52,2.29,2.06,3.29c0.04,0.06-1.04,0.86-1.09,0.82c-0.76-0.78-1.49-1.6-2.07-2.51
		C77.85,71.63,78.45,71.03,79.04,70.19z"/>
</g>
<g>
	<path class="st0" d="M103.26,62.63c-0.67,0.62-1.04,0.96-1.41,1.3c-0.59-0.87-1.26-1.7-1.71-2.64c-0.1-0.2,0.58-0.77,0.89-1.17
		C101.72,60.9,102.41,61.67,103.26,62.63z"/>
</g>
<g>
	<path class="st0" d="M196.2,100.93c-0.7,0.38-1.37,0.92-2.11,1.08c-0.44,0.09-1.02-0.42-1.53-0.67c0.67-0.54,1.27-1.23,2.03-1.57
		c0.37-0.17,1.02,0.3,1.55,0.48C196.16,100.49,196.18,100.71,196.2,100.93z"/>
</g>
<g>
	<path class="st0" d="M71.86,172.02c-1.23,0.83-2.03,1.42-2.89,1.88c-0.09,0.05-0.93-0.99-0.88-1.05c0.62-0.69,1.29-1.36,2.06-1.86
		C70.33,170.88,70.95,171.45,71.86,172.02z"/>
</g>
<g>
	<path class="st0" d="M191.37,88.78c-1.09,0.71-1.74,1.29-2.5,1.56c-0.28,0.1-0.81-0.52-1.23-0.8c0.68-0.6,1.3-1.29,2.07-1.75
		C189.9,87.67,190.52,88.25,191.37,88.78z"/>
</g>
<g>
	<path class="st0" d="M143.31,81.18c-0.78,0.36-1.54,0.84-2.36,1.01c-0.23,0.05-1.02-0.95-0.91-1.22c0.29-0.73,0.91-1.33,1.4-1.98
		c0.41,0.35,0.83,0.71,1.24,1.06C142.89,80.43,143.1,80.8,143.31,81.18z"/>
</g>
<g>
	<path class="st0" d="M136.56,60.22c0.24,0.5,0.75,1.07,0.64,1.47c-0.2,0.73-0.76,1.37-1.18,2.05c-0.35-0.44-1.02-0.9-0.99-1.3
		c0.06-0.75,0.53-1.47,0.83-2.21C136.1,60.23,136.33,60.23,136.56,60.22z"/>
</g>
<g>
	<path class="st0" d="M126.3,171.29c-0.66,0.74-1.12,1.26-1.58,1.77c-0.36-0.62-1-1.24-0.99-1.86c0.01-0.61,0.68-1.2,1.05-1.8
		C125.23,169.94,125.66,170.49,126.3,171.29z"/>
</g>
<g>
	<path class="st0" d="M114.06,56.89c-0.61,0.57-1.02,0.95-1.43,1.33c-0.43-0.6-1.1-1.17-1.2-1.82c-0.07-0.44,0.66-1.01,1.03-1.52
		C112.93,55.46,113.39,56.05,114.06,56.89z"/>
</g>
<g>
	<path class="st0" d="M99.81,104.13c1.92-0.81,3.83-1.61,5.75-2.42c0.17,0.28,0.33,0.55,0.5,0.83c-8.29,3.14-14.48,8.98-20.17,15.45
		c-0.23-0.25-0.47-0.5-0.7-0.76c3.66-3.64,7.32-7.28,10.98-10.92C97.38,105.59,98.59,104.86,99.81,104.13z"/>
</g>
<g>
	<path class="st0" d="M143.9,129.91c-1.85,1.65-3.71,3.29-5.56,4.94c-0.09-0.1-0.17-0.21-0.26-0.31c2.53-3.14,5.06-6.28,7.58-9.42
		c0.11,0.03,0.22,0.06,0.33,0.09c-0.38,1.08-0.75,2.15-1.13,3.23C144.54,128.93,144.22,129.42,143.9,129.91z"/>
</g>
<g>
	<path class="st0" d="M138.77,113.08c0.09-0.38,0.19-0.76,0.3-1.21c2.71,2.37,3.05,7.25,1.15,10.5c-0.23-2.31-0.5-5.04-0.77-7.76
		C139.22,114.1,138.99,113.59,138.77,113.08z"/>
</g>
<g>
	<path class="st0" d="M105.97,126.94c-0.13-0.76-0.25-1.52-0.38-2.28c0.15-0.07,0.3-0.14,0.44-0.21c1.67,2.62,3.35,5.23,4.99,7.86
		c0.02,0.04-0.39,0.35-0.6,0.53C108.94,130.88,107.45,128.91,105.97,126.94z"/>
</g>
<g>
	<path class="st0" d="M141.9,127.49c3.05-6.38,3.18-12.8,0.22-19.31C146.81,111.38,146.59,122.62,141.9,127.49z"/>
</g>
<g>
	<path class="st0" d="M110.13,112.85c-1.03,4.33-0.79,8.12,1.26,11.68C108.03,122.48,107.19,115.93,110.13,112.85z"/>
</g>
<g>
	<path class="st0" d="M147.32,112.72c0,3.02,0,6.05,0,9.07c-0.26,0-0.53-0.01-0.79-0.01c-0.17-3.25-0.34-6.49-0.52-10.08
		c0.57,0.44,0.96,0.75,1.35,1.06C147.35,112.77,147.32,112.72,147.32,112.72z"/>
</g>
<g>
	<path class="st0" d="M105.83,113.58c-0.19,2.29-0.38,4.57-0.57,6.86c-0.3-0.02-0.6-0.04-0.9-0.06c0.15-2.29,0.29-4.57,0.44-6.86
		C105.15,113.53,105.49,113.55,105.83,113.58z"/>
</g>
<g>
	<path class="st0" d="M96.08,119.04c0-1.9,0-3.79,0-5.69c0.23-0.01,0.47-0.02,0.7-0.02c0,1.9,0,3.79,0,5.69
		C96.54,119.02,96.31,119.03,96.08,119.04z"/>
</g>
<g>
	<path class="st0" d="M125.23,234.06c-60.29,0-109.34-49.05-109.34-109.34c0-60.29,49.05-109.34,109.34-109.34
		s109.34,49.05,109.34,109.34C234.57,185.01,185.52,234.06,125.23,234.06z M125.23,17.12c-59.33,0-107.6,48.27-107.6,107.6
		s48.27,107.6,107.6,107.6c59.33,0,107.6-48.27,107.6-107.6S184.56,17.12,125.23,17.12z"/>
</g>
<g>
	<path class="st0" d="M125.23,245.99c-66.87,0-121.27-54.4-121.27-121.27S58.37,3.45,125.23,3.45s121.27,54.4,121.27,121.27
		S192.1,245.99,125.23,245.99z M125.23,5.38C59.43,5.38,5.9,58.92,5.9,124.72c0,65.8,53.54,119.34,119.34,119.34
		c65.8,0,119.34-53.53,119.34-119.34C244.57,58.92,191.04,5.38,125.23,5.38z"/>
</g>
</svg>
